M48
; DRILL file {KiCad (6.0.6)} date Fri Dec  2 00:17:37 2022
; FORMAT={-:-/ absolute / inch / decimal}
; #@! TF.CreationDate,2022-12-02T00:17:37-05:00
; #@! TF.GenerationSoftware,Kicad,Pcbnew,(6.0.6)
; #@! TF.FileFunction,MixedPlating,1,2
FMAT,2
INCH
; #@! TA.AperFunction,Plated,PTH,ViaDrill
T1C0.0157
; #@! TA.AperFunction,Plated,PTH,ComponentDrill
T2C0.0374
; #@! TA.AperFunction,Plated,PTH,ComponentDrill
T3C0.0394
; #@! TA.AperFunction,Plated,PTH,ComponentDrill
T4C0.0709
; #@! TA.AperFunction,Plated,PTH,ComponentDrill
T5C0.0866
%
G90
G05
T1
X5.493Y-4.5776
X5.493Y-4.689
X5.6084Y-4.5776
X5.657Y-5.077
T2
X4.478Y-2.628
X4.478Y-2.7264
X4.478Y-2.8249
X4.478Y-2.9233
X4.478Y-3.2535
X4.478Y-3.3519
X4.478Y-3.4504
X4.478Y-3.5488
X4.478Y-3.879
X4.478Y-3.9774
X4.478Y-4.0759
X4.478Y-4.1743
X4.478Y-4.5045
X4.478Y-4.6029
X4.478Y-4.7014
X4.478Y-4.7998
X4.478Y-5.13
X4.478Y-5.2284
X4.478Y-5.3269
X4.478Y-5.4253
X7.2102Y-2.6404
X7.2102Y-2.7388
X7.2102Y-2.8372
X7.2102Y-2.9356
X7.2102Y-3.2659
X7.2102Y-3.3643
X7.2102Y-3.4627
X7.2102Y-3.5611
X7.2102Y-3.8914
X7.2102Y-3.9898
X7.2102Y-4.0882
X7.2102Y-4.1866
X7.2102Y-4.5169
X7.2102Y-4.6153
X7.2102Y-4.7137
X7.2102Y-4.8121
X7.2102Y-5.1424
X7.2102Y-5.2408
X7.2102Y-5.3392
X7.2102Y-5.4376
T3
X5.16Y-3.064
X5.16Y-3.764
X5.7Y-4.069
X5.7Y-4.169
X5.7Y-4.269
X5.8Y-4.069
X5.8Y-4.169
X5.8Y-4.269
X6.76Y-3.064
X6.76Y-3.764
T4
X6.398Y-4.1441
X6.7329Y-4.1441
T5
X4.7259Y-2.6301
X4.7259Y-5.4633
X6.566Y-5.2735
X6.9621Y-2.6301
X6.9621Y-5.4633
T0
M30
