<?xml version="1.0" encoding="utf-8"?>
<!-- Generator: Adobe Illustrator 22.1.0, SVG Export Plug-In . SVG Version: 6.00 Build 0)  -->
<svg version="1.1" id="Layer_1" xmlns="http://www.w3.org/2000/svg" xmlns:xlink="http://www.w3.org/1999/xlink" x="0px" y="0px"
	 viewBox="0 0 3401.6 2551.2" style="enable-background:new 0 0 3401.6 2551.2;" xml:space="preserve">
<path d="M1195.3,863v-2.3c0-0.7,0.3-1.4,0.8-2.1c0.5-0.7,1.1-1.3,1.9-1.8l2.2-1.6c0.8-0.5,1.4-1.1,1.9-1.8c0.5-0.7,0.8-1.3,0.8-2
	c0-0.7-0.2-1.2-0.6-1.7c-0.4-0.5-1.1-0.7-1.9-0.7c-0.7,0-1.3,0.2-1.7,0.6c-0.4,0.4-0.7,1-0.7,1.7c0,0.2-0.1,0.5-0.4,0.7
	c-0.2,0.2-0.6,0.3-0.9,0.3c-0.7,0-1.1-0.5-1.1-1.4c0-1.2,0.5-2.2,1.4-3s2.1-1.2,3.4-1.2c1.4,0,2.6,0.4,3.6,1.3c1,0.9,1.5,2,1.5,3.4
	c0,0.9-0.3,1.8-0.8,2.6c-0.5,0.8-1.2,1.5-1.9,2.1c-0.7,0.6-1.5,1.1-2.2,1.6c-0.7,0.5-1.4,1-1.9,1.5s-0.8,1-0.8,1.5v0.9h6.9
	c0.2,0,0.4,0.1,0.6,0.3c0.2,0.2,0.2,0.5,0.2,0.8c0,0.3-0.1,0.6-0.2,0.8c-0.2,0.2-0.4,0.3-0.6,0.3h-8.3c-0.2,0-0.5-0.1-0.7-0.2
	C1195.4,863.5,1195.3,863.3,1195.3,863z"/>
<path d="M1207.4,858.8V852c0-1.8,0.5-3.1,1.4-4c1-0.8,2.2-1.3,3.9-1.3c1.6,0,2.9,0.4,3.9,1.3c1,0.8,1.4,2.2,1.4,4v6.8
	c0,1.8-0.5,3.1-1.4,4c-1,0.8-2.2,1.3-3.9,1.3c-1.6,0-2.9-0.4-3.9-1.3C1207.8,861.9,1207.4,860.6,1207.4,858.8z"/>
<path d="M1209.9,858.8c0,2,0.9,3,2.8,3c0.9,0,1.6-0.2,2.1-0.7c0.5-0.5,0.7-1.3,0.7-2.3V852c0-1-0.2-1.8-0.7-2.3
	c-0.5-0.5-1.2-0.8-2.1-0.8c-1.9,0-2.8,1-2.8,3V858.8z"/>
<path d="M1211.9,856.1c-0.2-0.2-0.3-0.4-0.3-0.7c0-0.3,0.1-0.5,0.3-0.7c0.2-0.2,0.4-0.3,0.8-0.3c0.3,0,0.6,0.1,0.7,0.3
	s0.3,0.4,0.3,0.7c0,0.3-0.1,0.5-0.3,0.7c-0.2,0.2-0.4,0.3-0.7,0.3C1212.4,856.4,1212.1,856.3,1211.9,856.1z"/>
<path d="M1219.8,863v-2.3c0-0.7,0.3-1.4,0.8-2.1c0.5-0.7,1.1-1.3,1.9-1.8l2.2-1.6c0.8-0.5,1.4-1.1,1.9-1.8c0.5-0.7,0.8-1.3,0.8-2
	c0-0.7-0.2-1.2-0.6-1.7c-0.4-0.5-1.1-0.7-1.9-0.7c-0.7,0-1.3,0.2-1.7,0.6c-0.4,0.4-0.7,1-0.7,1.7c0,0.2-0.1,0.5-0.4,0.7
	c-0.2,0.2-0.6,0.3-0.9,0.3c-0.7,0-1.1-0.5-1.1-1.4c0-1.2,0.5-2.2,1.4-3s2.1-1.2,3.4-1.2c1.4,0,2.6,0.4,3.6,1.3c1,0.9,1.5,2,1.5,3.4
	c0,0.9-0.3,1.8-0.8,2.6c-0.5,0.8-1.2,1.5-1.9,2.1c-0.7,0.6-1.5,1.1-2.2,1.6c-0.7,0.5-1.4,1-1.9,1.5s-0.8,1-0.8,1.5v0.9h6.9
	c0.2,0,0.4,0.1,0.6,0.3c0.2,0.2,0.2,0.5,0.2,0.8c0,0.3-0.1,0.6-0.2,0.8c-0.2,0.2-0.4,0.3-0.6,0.3h-8.3c-0.2,0-0.5-0.1-0.7-0.2
	C1220,863.5,1219.8,863.3,1219.8,863z"/>
<path d="M1231.4,863v-2.3c0-0.7,0.3-1.4,0.8-2.1c0.5-0.7,1.1-1.3,1.9-1.8l2.2-1.6c0.8-0.5,1.4-1.1,1.9-1.8c0.5-0.7,0.8-1.3,0.8-2
	c0-0.7-0.2-1.2-0.6-1.7c-0.4-0.5-1.1-0.7-1.9-0.7c-0.7,0-1.3,0.2-1.7,0.6c-0.4,0.4-0.7,1-0.7,1.7c0,0.2-0.1,0.5-0.4,0.7
	c-0.2,0.2-0.6,0.3-0.9,0.3c-0.7,0-1.1-0.5-1.1-1.4c0-1.2,0.5-2.2,1.4-3c0.9-0.8,2.1-1.2,3.4-1.2c1.4,0,2.6,0.4,3.6,1.3
	c1,0.9,1.5,2,1.5,3.4c0,0.9-0.3,1.8-0.8,2.6c-0.5,0.8-1.2,1.5-1.9,2.1c-0.7,0.6-1.5,1.1-2.2,1.6c-0.7,0.5-1.4,1-1.9,1.5
	c-0.5,0.5-0.8,1-0.8,1.5v0.9h6.9c0.2,0,0.4,0.1,0.6,0.3c0.2,0.2,0.2,0.5,0.2,0.8c0,0.3-0.1,0.6-0.2,0.8c-0.2,0.2-0.4,0.3-0.6,0.3
	h-8.3c-0.2,0-0.5-0.1-0.7-0.2C1231.6,863.5,1231.4,863.3,1231.4,863z"/>
<path d="M1248.5,863V848c0-0.4,0.1-0.7,0.4-0.9c0.2-0.2,0.5-0.3,0.9-0.3c0.5,0,0.8,0.1,1.1,0.3c0.3,0.2,0.6,0.6,0.9,1.1l3.3,6.2
	l3.3-6.2c0.3-0.5,0.6-0.9,0.8-1.1c0.3-0.2,0.6-0.3,1.1-0.3c0.4,0,0.7,0.1,0.9,0.3c0.2,0.2,0.4,0.5,0.4,0.9V863
	c0,0.2-0.1,0.4-0.4,0.6c-0.2,0.1-0.5,0.2-0.9,0.2c-0.3,0-0.6-0.1-0.9-0.2c-0.2-0.1-0.4-0.3-0.4-0.6v-11.2l-3.1,5.8
	c-0.2,0.4-0.5,0.6-0.9,0.6s-0.7-0.2-0.8-0.6l-3.1-6V863c0,0.2-0.1,0.4-0.4,0.6c-0.2,0.1-0.5,0.2-0.9,0.2c-0.3,0-0.6-0.1-0.9-0.2
	C1248.6,863.5,1248.5,863.3,1248.5,863z"/>
<path d="M1264.1,848.7c0-0.4,0.1-0.7,0.4-0.9c0.3-0.2,0.6-0.4,1-0.4c0.4,0,0.7,0.1,1,0.4c0.3,0.3,0.4,0.6,0.4,0.9
	c0,0.3-0.1,0.6-0.4,0.9c-0.3,0.3-0.6,0.4-1,0.4c-0.4,0-0.7-0.1-1-0.4C1264.3,849.3,1264.1,849,1264.1,848.7z"/>
<path d="M1264.3,863v-9.5c0-0.2,0.1-0.4,0.3-0.6c0.2-0.1,0.5-0.2,0.9-0.2c0.4,0,0.7,0.1,0.9,0.2c0.2,0.1,0.4,0.3,0.4,0.6v9.5
	c0,0.2-0.1,0.4-0.4,0.6s-0.5,0.3-0.9,0.3c-0.3,0-0.6-0.1-0.9-0.3C1264.5,863.4,1264.3,863.3,1264.3,863z"/>
<path d="M1269.4,863v-16.1c0-0.2,0.1-0.4,0.3-0.6c0.2-0.1,0.5-0.2,0.9-0.2c0.4,0,0.7,0.1,0.9,0.2s0.4,0.3,0.4,0.6v10.4l4.9-4.5
	c0.1-0.1,0.3-0.2,0.5-0.2c0.3,0,0.5,0.1,0.8,0.4c0.3,0.2,0.4,0.5,0.4,0.8c0,0.2-0.1,0.4-0.2,0.5l-3,2.7l3.7,5.3
	c0.1,0.1,0.1,0.3,0.1,0.4c0,0.3-0.2,0.6-0.5,0.8c-0.3,0.3-0.6,0.4-0.9,0.4c-0.3,0-0.5-0.1-0.7-0.4l-3.4-5.1l-1.7,1.5v2.9
	c0,0.2-0.1,0.4-0.4,0.6c-0.3,0.2-0.5,0.3-0.9,0.3c-0.3,0-0.6-0.1-0.9-0.3C1269.5,863.4,1269.4,863.3,1269.4,863z"/>
<path d="M1280,859.4v-2.2c0-1.2,0.5-2.3,1.4-3.2c1-0.9,2.1-1.3,3.4-1.3c1.3,0,2.4,0.4,3.3,1.2c0.9,0.8,1.4,1.8,1.4,3.1
	c0,0.5-0.1,0.9-0.2,1.2c-0.1,0.3-0.3,0.5-0.5,0.6c-0.2,0.1-0.5,0.2-0.7,0.2c-0.2,0-0.5,0-0.8,0h-4.9v0.5c0,0.8,0.3,1.4,0.8,1.9
	c0.6,0.5,1.3,0.7,2.2,0.7c0.6,0,1.2-0.1,1.8-0.4s0.9-0.4,1-0.4c0.3,0,0.5,0.1,0.7,0.4c0.2,0.3,0.3,0.5,0.3,0.7
	c0,0.4-0.4,0.8-1.1,1.2c-0.8,0.4-1.7,0.6-2.8,0.6c-1.6,0-2.9-0.4-3.9-1.3C1280.5,861.9,1280,860.8,1280,859.4z"/>
<path d="M1282.4,857.4h3.9c0.3,0,0.6,0,0.7-0.1c0.1-0.1,0.2-0.3,0.2-0.6c0-0.6-0.2-1.1-0.7-1.6s-1-0.6-1.7-0.6
	c-0.7,0-1.2,0.2-1.7,0.6c-0.5,0.4-0.7,0.9-0.7,1.6V857.4z"/>
<path d="M1296.5,863v-15.5c0-0.2,0.1-0.4,0.3-0.6c0.2-0.1,0.5-0.2,0.8-0.2h8.2c0.3,0,0.5,0.1,0.6,0.3c0.1,0.2,0.2,0.5,0.2,0.8
	c0,0.3-0.1,0.6-0.2,0.8c-0.1,0.2-0.3,0.3-0.6,0.3h-6.8v5.4h3.6c0.2,0,0.4,0.1,0.6,0.3c0.1,0.2,0.2,0.4,0.2,0.7
	c0,0.2-0.1,0.5-0.2,0.7c-0.1,0.2-0.3,0.3-0.6,0.3h-3.6v6.8c0,0.3-0.1,0.5-0.4,0.6c-0.2,0.1-0.5,0.2-0.9,0.2c-0.3,0-0.6-0.1-0.9-0.2
	C1296.6,863.5,1296.5,863.3,1296.5,863z"/>
<path d="M1307.7,848.7c0-0.4,0.1-0.7,0.4-0.9c0.3-0.2,0.6-0.4,1-0.4c0.4,0,0.7,0.1,1,0.4c0.3,0.3,0.4,0.6,0.4,0.9
	c0,0.3-0.1,0.6-0.4,0.9c-0.3,0.3-0.6,0.4-1,0.4c-0.4,0-0.7-0.1-1-0.4C1307.9,849.3,1307.7,849,1307.7,848.7z"/>
<path d="M1308,863v-9.5c0-0.2,0.1-0.4,0.3-0.6c0.2-0.1,0.5-0.2,0.9-0.2c0.4,0,0.7,0.1,0.9,0.2c0.2,0.1,0.4,0.3,0.4,0.6v9.5
	c0,0.2-0.1,0.4-0.4,0.6c-0.2,0.2-0.5,0.3-0.9,0.3c-0.3,0-0.6-0.1-0.9-0.3C1308.1,863.4,1308,863.3,1308,863z"/>
<path d="M1313,863v-9.5c0-0.2,0.1-0.4,0.3-0.6c0.2-0.1,0.5-0.2,0.9-0.2c0.3,0,0.6,0.1,0.8,0.2c0.2,0.2,0.3,0.3,0.3,0.6v0.9
	c0.2-0.5,0.7-0.9,1.2-1.3c0.6-0.3,1.2-0.5,1.9-0.5c1.1,0,2.1,0.5,2.9,1.4c0.8,0.9,1.2,2,1.2,3.3v5.8c0,0.2-0.1,0.4-0.4,0.6
	c-0.2,0.1-0.5,0.2-0.9,0.2c-0.3,0-0.6-0.1-0.8-0.2s-0.4-0.3-0.4-0.6v-5.8c0-0.6-0.2-1.2-0.7-1.7c-0.5-0.5-1-0.7-1.7-0.7
	c-0.6,0-1.1,0.2-1.6,0.7c-0.5,0.4-0.7,1-0.7,1.8v5.8c0,0.2-0.1,0.4-0.4,0.6c-0.2,0.2-0.5,0.3-0.9,0.3c-0.3,0-0.6-0.1-0.9-0.3
	C1313.1,863.4,1313,863.3,1313,863z"/>
<path d="M1325,863v-16.1c0-0.2,0.1-0.4,0.3-0.6c0.2-0.1,0.5-0.2,0.9-0.2c0.4,0,0.7,0.1,0.9,0.2c0.2,0.1,0.4,0.3,0.4,0.6v10.4
	l4.9-4.5c0.1-0.1,0.3-0.2,0.5-0.2c0.3,0,0.5,0.1,0.8,0.4c0.3,0.2,0.4,0.5,0.4,0.8c0,0.2-0.1,0.4-0.2,0.5l-3,2.7l3.7,5.3
	c0.1,0.1,0.1,0.3,0.1,0.4c0,0.3-0.2,0.6-0.5,0.8c-0.3,0.3-0.6,0.4-0.9,0.4c-0.3,0-0.5-0.1-0.7-0.4l-3.4-5.1l-1.7,1.5v2.9
	c0,0.2-0.1,0.4-0.4,0.6c-0.3,0.2-0.5,0.3-0.9,0.3c-0.3,0-0.6-0.1-0.9-0.3C1325.2,863.4,1325,863.3,1325,863z"/>
<path d="M1184.1,891.2v-15.5c0-0.2,0.1-0.4,0.3-0.6c0.2-0.2,0.5-0.2,0.8-0.2h4.1c1.6,0,2.9,0.4,3.8,1.3c1,0.8,1.4,2.2,1.4,4v6.7
	c0,1.8-0.5,3.1-1.4,4c-1,0.8-2.2,1.3-3.8,1.3h-4.1c-0.3,0-0.6-0.1-0.8-0.2C1184.2,891.6,1184.1,891.4,1184.1,891.2z"/>
<path d="M1186.6,889.8h2.8c1.9,0,2.8-1,2.8-3v-6.7c0-2-0.9-3-2.8-3h-2.8V889.8z"/>
<path d="M1196.3,875.9c0-0.3,0.2-0.5,0.5-0.7c0.3-0.2,0.7-0.3,1.1-0.3c0.5,0,0.8,0.2,0.9,0.5l3.8,13.4l2.1-8.4
	c0.1-0.5,0.5-0.7,1.2-0.7c0.7,0,1.1,0.2,1.2,0.7l2.1,8.4l3.8-13.4c0.1-0.3,0.4-0.5,0.9-0.5c0.4,0,0.7,0.1,1,0.3
	c0.3,0.2,0.5,0.4,0.5,0.7c0,0.1,0,0.2,0,0.2l-4.6,15.2c-0.1,0.3-0.3,0.5-0.6,0.6c-0.3,0.2-0.6,0.2-1,0.2s-0.7-0.1-1-0.2
	c-0.3-0.1-0.5-0.4-0.5-0.6l-1.8-7.1l-1.8,7.1c-0.1,0.3-0.2,0.5-0.5,0.6c-0.3,0.1-0.6,0.2-1,0.2s-0.7-0.1-1-0.2s-0.5-0.4-0.6-0.6
	l-4.7-15.2C1196.3,876.1,1196.3,876,1196.3,875.9z"/>
<path d="M1216.1,876c0-0.3,0.1-0.6,0.2-0.8c0.1-0.2,0.3-0.3,0.6-0.3h9.7c0.3,0,0.5,0.1,0.6,0.3c0.1,0.2,0.2,0.5,0.2,0.8
	c0,0.3-0.1,0.6-0.2,0.8c-0.1,0.2-0.3,0.3-0.6,0.3h-3.6v14c0,0.2-0.1,0.4-0.4,0.6c-0.2,0.1-0.5,0.2-0.9,0.2c-0.3,0-0.6-0.1-0.9-0.2
	c-0.2-0.1-0.4-0.3-0.4-0.6v-14h-3.6c-0.2,0-0.4-0.1-0.6-0.3C1216.2,876.6,1216.1,876.3,1216.1,876z"/>
<path d="M1229.4,891.2v-15.5c0-0.2,0.1-0.4,0.3-0.6c0.2-0.1,0.5-0.2,0.8-0.2h8.2c0.3,0,0.5,0.1,0.6,0.3s0.2,0.5,0.2,0.8
	c0,0.3-0.1,0.6-0.2,0.8c-0.1,0.2-0.3,0.3-0.6,0.3h-6.8v5.4h3.6c0.2,0,0.4,0.1,0.6,0.3c0.1,0.2,0.2,0.4,0.2,0.7
	c0,0.2-0.1,0.5-0.2,0.7c-0.1,0.2-0.3,0.3-0.6,0.3h-3.6v6.8c0,0.3-0.1,0.5-0.4,0.6c-0.2,0.1-0.5,0.2-0.9,0.2c-0.3,0-0.6-0.1-0.9-0.2
	C1229.5,891.6,1229.4,891.4,1229.4,891.2z"/>
<path d="M1239.9,875.9c0-0.3,0.2-0.5,0.5-0.7c0.3-0.2,0.7-0.3,1.1-0.3c0.3,0,0.6,0.2,0.8,0.6l3.9,7.4l3.8-7.4
	c0.2-0.4,0.5-0.6,0.8-0.6s0.7,0.1,1,0.3c0.3,0.2,0.5,0.4,0.5,0.7c0,0.1,0,0.3-0.1,0.4l-4.9,8.7c0,0.1,0,0.2,0,0.3v5.9
	c0,0.2-0.1,0.4-0.4,0.6c-0.3,0.1-0.5,0.2-0.9,0.2c-0.3,0-0.6-0.1-0.9-0.2c-0.2-0.1-0.4-0.3-0.4-0.6v-5.9c0,0,0-0.1-0.1-0.3l-4.9-8.7
	C1239.9,876.1,1239.9,876,1239.9,875.9z"/>
<path d="M1253,875.9c0-0.3,0.2-0.5,0.5-0.7c0.3-0.2,0.7-0.3,1.1-0.3c0.5,0,0.8,0.2,0.9,0.5l3.8,13.4l2.1-8.4
	c0.1-0.5,0.5-0.7,1.2-0.7c0.7,0,1.1,0.2,1.2,0.7l2.1,8.4l3.8-13.4c0.1-0.3,0.4-0.5,0.9-0.5c0.4,0,0.7,0.1,1,0.3
	c0.3,0.2,0.5,0.4,0.5,0.7c0,0.1,0,0.2,0,0.2l-4.6,15.2c-0.1,0.3-0.3,0.5-0.6,0.6c-0.3,0.2-0.6,0.2-1,0.2s-0.7-0.1-1-0.2
	c-0.3-0.1-0.5-0.4-0.5-0.6l-1.8-7.1l-1.8,7.1c-0.1,0.3-0.2,0.5-0.5,0.6c-0.3,0.1-0.6,0.2-1,0.2s-0.7-0.1-1-0.2s-0.5-0.4-0.6-0.6
	l-4.7-15.2C1253,876.1,1253,876,1253,875.9z"/>
<path d="M1278.8,891.2v-15.5c0-0.3,0.1-0.5,0.4-0.6c0.2-0.1,0.5-0.2,0.9-0.2c0.3,0,0.6,0.1,0.9,0.2c0.2,0.1,0.4,0.3,0.4,0.6v14.1
	h6.1c0.2,0,0.4,0.1,0.6,0.3c0.1,0.2,0.2,0.5,0.2,0.8s-0.1,0.6-0.2,0.8c-0.1,0.2-0.3,0.3-0.6,0.3h-7.5c-0.3,0-0.6-0.1-0.8-0.2
	C1278.9,891.6,1278.8,891.4,1278.8,891.2z"/>
<path d="M1289.5,876.8c0-0.4,0.1-0.7,0.4-0.9c0.3-0.2,0.6-0.4,1-0.4c0.4,0,0.7,0.1,1,0.4c0.3,0.3,0.4,0.6,0.4,0.9
	c0,0.3-0.1,0.6-0.4,0.9c-0.3,0.3-0.6,0.4-1,0.4c-0.4,0-0.7-0.1-1-0.4C1289.6,877.4,1289.5,877.1,1289.5,876.8z"/>
<path d="M1289.7,891.2v-9.5c0-0.2,0.1-0.4,0.3-0.6c0.2-0.1,0.5-0.2,0.9-0.2c0.4,0,0.7,0.1,0.9,0.2c0.2,0.1,0.4,0.3,0.4,0.6v9.5
	c0,0.2-0.1,0.4-0.4,0.6s-0.5,0.3-0.9,0.3c-0.3,0-0.6-0.1-0.9-0.3C1289.8,891.6,1289.7,891.4,1289.7,891.2z"/>
<path d="M1294.3,887.5v-2.1c0-1.4,0.4-2.5,1.2-3.4c0.8-0.9,2-1.3,3.6-1.3c1,0,1.9,0.2,2.6,0.5c0.7,0.4,1,0.7,1,1.2
	c0,0.3-0.1,0.5-0.3,0.8c-0.2,0.3-0.4,0.4-0.7,0.4c-0.1,0-0.4-0.1-0.8-0.4c-0.5-0.2-1-0.4-1.6-0.4c-1.7,0-2.6,0.8-2.6,2.5v2.1
	c0,1.6,0.9,2.5,2.6,2.5c0.6,0,1.1-0.1,1.6-0.4c0.5-0.2,0.8-0.4,0.9-0.4c0.3,0,0.6,0.1,0.8,0.4c0.2,0.3,0.3,0.5,0.3,0.8
	c0,0.4-0.4,0.8-1.1,1.2c-0.7,0.4-1.6,0.6-2.6,0.6c-1.6,0-2.8-0.4-3.7-1.3C1294.7,890,1294.3,888.9,1294.3,887.5z"/>
<path d="M1304.2,887.5v-2.2c0-1.2,0.5-2.3,1.4-3.2c1-0.9,2.1-1.3,3.4-1.3c1.3,0,2.4,0.4,3.3,1.2c0.9,0.8,1.4,1.8,1.4,3.1
	c0,0.5-0.1,0.9-0.2,1.2c-0.1,0.3-0.3,0.5-0.5,0.6c-0.2,0.1-0.5,0.2-0.7,0.2c-0.2,0-0.5,0-0.8,0h-4.9v0.5c0,0.8,0.3,1.4,0.8,1.9
	c0.6,0.5,1.3,0.7,2.2,0.7c0.6,0,1.2-0.1,1.8-0.4c0.6-0.3,0.9-0.4,1-0.4c0.3,0,0.5,0.1,0.7,0.4c0.2,0.3,0.3,0.5,0.3,0.7
	c0,0.4-0.4,0.8-1.1,1.2c-0.8,0.4-1.7,0.6-2.8,0.6c-1.6,0-2.9-0.4-3.9-1.3C1304.7,890,1304.2,888.9,1304.2,887.5z"/>
<path d="M1306.6,885.5h3.9c0.3,0,0.6,0,0.7-0.1c0.1-0.1,0.2-0.3,0.2-0.6c0-0.6-0.2-1.1-0.7-1.6c-0.5-0.4-1-0.6-1.7-0.6
	c-0.7,0-1.2,0.2-1.7,0.6c-0.5,0.4-0.7,0.9-0.7,1.6V885.5z"/>
<path d="M1315.7,891.2v-9.5c0-0.2,0.1-0.4,0.3-0.6c0.2-0.1,0.5-0.2,0.9-0.2c0.3,0,0.6,0.1,0.8,0.2c0.2,0.2,0.3,0.3,0.3,0.6v0.9
	c0.2-0.5,0.7-0.9,1.2-1.3c0.6-0.3,1.2-0.5,1.9-0.5c1.1,0,2.1,0.5,2.9,1.4c0.8,0.9,1.2,2,1.2,3.3v5.8c0,0.2-0.1,0.4-0.4,0.6
	c-0.2,0.1-0.5,0.2-0.9,0.2c-0.3,0-0.6-0.1-0.8-0.2s-0.4-0.3-0.4-0.6v-5.8c0-0.6-0.2-1.2-0.7-1.7c-0.5-0.5-1-0.7-1.7-0.7
	c-0.6,0-1.1,0.2-1.6,0.7c-0.5,0.4-0.7,1-0.7,1.8v5.8c0,0.2-0.1,0.4-0.4,0.6c-0.2,0.2-0.5,0.3-0.9,0.3c-0.3,0-0.6-0.1-0.9-0.3
	C1315.8,891.6,1315.7,891.4,1315.7,891.2z"/>
<path d="M1327,890.3c0-0.2,0.1-0.5,0.2-0.7c0.2-0.2,0.4-0.4,0.6-0.4c0.1,0,0.3,0.1,0.6,0.3c0.3,0.2,0.6,0.4,1,0.6
	c0.4,0.2,0.9,0.3,1.5,0.3c1.3,0,2-0.4,2-1.3c0-0.5-0.2-0.8-0.6-1.1c-0.4-0.3-0.9-0.5-1.4-0.6c-0.6-0.1-1.1-0.3-1.7-0.5
	c-0.5-0.2-1-0.5-1.4-1c-0.4-0.5-0.6-1-0.6-1.8c0-0.9,0.3-1.7,1-2.4c0.7-0.7,1.7-1,3-1c0.9,0,1.7,0.1,2.4,0.4c0.7,0.3,1.1,0.6,1.1,1
	c0,0.2-0.1,0.5-0.3,0.8c-0.2,0.3-0.4,0.4-0.7,0.4c-0.1,0-0.4-0.1-1-0.4c-0.5-0.2-1.1-0.4-1.6-0.4c-0.6,0-1.1,0.1-1.4,0.4
	c-0.3,0.3-0.5,0.6-0.5,0.9c0,0.4,0.2,0.7,0.6,0.9c0.4,0.2,0.9,0.4,1.4,0.5c0.6,0.1,1.1,0.3,1.7,0.5c0.5,0.2,1,0.6,1.4,1.1
	c0.4,0.5,0.6,1.1,0.6,1.9c0,1-0.4,1.8-1.1,2.4c-0.7,0.6-1.7,0.9-3,0.9c-1.1,0-2.1-0.2-2.8-0.6C1327.4,891.2,1327,890.8,1327,890.3z"
	/>
<path d="M1336.8,887.5v-2.2c0-1.2,0.5-2.3,1.4-3.2c1-0.9,2.1-1.3,3.4-1.3c1.3,0,2.4,0.4,3.3,1.2c0.9,0.8,1.4,1.8,1.4,3.1
	c0,0.5-0.1,0.9-0.2,1.2c-0.1,0.3-0.3,0.5-0.5,0.6c-0.2,0.1-0.5,0.2-0.7,0.2c-0.2,0-0.5,0-0.8,0h-4.9v0.5c0,0.8,0.3,1.4,0.8,1.9
	c0.6,0.5,1.3,0.7,2.2,0.7c0.6,0,1.2-0.1,1.8-0.4c0.6-0.3,0.9-0.4,1-0.4c0.3,0,0.5,0.1,0.7,0.4c0.2,0.3,0.3,0.5,0.3,0.7
	c0,0.4-0.4,0.8-1.1,1.2c-0.8,0.4-1.7,0.6-2.8,0.6c-1.6,0-2.9-0.4-3.9-1.3C1337.3,890,1336.8,888.9,1336.8,887.5z"/>
<path d="M1339.2,885.5h3.9c0.3,0,0.6,0,0.7-0.1c0.1-0.1,0.2-0.3,0.2-0.6c0-0.6-0.2-1.1-0.7-1.6s-1-0.6-1.7-0.6
	c-0.7,0-1.2,0.2-1.7,0.6c-0.5,0.4-0.7,0.9-0.7,1.6V885.5z"/>
<path d="M1052.2,922.2c0-1.1,0.6-2,1.8-2.5c-0.7-0.3-1-0.8-1-1.6c0-0.7,0.4-1.3,1.1-1.8c-0.9-0.7-1.4-1.7-1.4-3v-0.7
	c0-1.1,0.4-2,1.2-2.8c0.8-0.7,1.9-1.1,3.2-1.1c1.1,0,2,0.3,2.7,0.8c0.5-1,1-1.6,1.5-1.6c0.3,0,0.5,0.1,0.7,0.3
	c0.2,0.2,0.3,0.4,0.3,0.6c0,0.3-0.1,0.4-0.4,0.6c-0.5,0.2-0.9,0.5-1.2,0.9c0.5,0.6,0.7,1.4,0.7,2.2v0.7c0,1.1-0.4,2.1-1.2,2.8
	c-0.8,0.7-1.9,1.1-3.2,1.1c-0.6,0-1.1-0.1-1.6-0.3c-0.3,0.2-0.4,0.4-0.4,0.7c0,0.3,0.2,0.5,0.7,0.7s1.1,0.3,1.8,0.3
	c0.7,0.1,1.4,0.2,2.1,0.3c0.7,0.1,1.3,0.5,1.8,1c0.5,0.5,0.7,1.1,0.7,1.9c0,1.2-0.5,2-1.4,2.6c-0.9,0.6-2.1,0.9-3.5,0.9
	c-1.4,0-2.6-0.3-3.6-0.9S1052.2,923.2,1052.2,922.2z"/>
<path d="M1054.5,921.9c0,0.6,0.2,1,0.7,1.4s1.1,0.5,1.9,0.5c0.8,0,1.4-0.2,1.9-0.5c0.5-0.3,0.7-0.8,0.7-1.4c0-0.4-0.1-0.7-0.3-0.9
	c-0.2-0.2-0.5-0.4-1-0.5c-0.4-0.1-0.8-0.2-1.1-0.2c-0.3,0-0.7-0.1-1.2-0.1C1055,920.6,1054.5,921.2,1054.5,921.9z"/>
<path d="M1055.1,913.3c0,0.7,0.2,1.3,0.5,1.7c0.4,0.4,0.9,0.7,1.5,0.7c0.6,0,1.1-0.2,1.5-0.6c0.4-0.4,0.5-1,0.5-1.7v-0.7
	c0-0.7-0.2-1.2-0.5-1.6c-0.4-0.4-0.9-0.6-1.5-0.6c-0.6,0-1.1,0.2-1.5,0.6c-0.4,0.4-0.5,1-0.5,1.6V913.3z"/>
<path d="M1063.7,904.9c0-0.4,0.1-0.7,0.4-0.9c0.3-0.2,0.6-0.4,1-0.4c0.4,0,0.7,0.1,1,0.4c0.3,0.3,0.4,0.6,0.4,0.9
	c0,0.3-0.1,0.6-0.4,0.9c-0.3,0.3-0.6,0.4-1,0.4c-0.4,0-0.7-0.1-1-0.4C1063.8,905.6,1063.7,905.3,1063.7,904.9z"/>
<path d="M1063.9,919.3v-9.5c0-0.2,0.1-0.4,0.3-0.6c0.2-0.1,0.5-0.2,0.9-0.2c0.4,0,0.7,0.1,0.9,0.2c0.2,0.1,0.4,0.3,0.4,0.6v9.5
	c0,0.2-0.1,0.4-0.4,0.6c-0.2,0.2-0.5,0.3-0.9,0.3c-0.3,0-0.6-0.1-0.9-0.3C1064,919.7,1063.9,919.5,1063.9,919.3z"/>
<path d="M1068.9,916.5v-11.7c0-0.2,0.1-0.4,0.4-0.6c0.2-0.2,0.5-0.2,0.8-0.2c0.3,0,0.6,0.1,0.9,0.2c0.3,0.2,0.4,0.3,0.4,0.6v4.3h2.9
	c0.2,0,0.4,0.1,0.5,0.3c0.1,0.2,0.2,0.4,0.2,0.6c0,0.3-0.1,0.5-0.2,0.6c-0.1,0.2-0.3,0.3-0.5,0.3h-2.9v5.6c0,0.6,0.1,1,0.4,1.2
	c0.2,0.2,0.7,0.4,1.3,0.4h0.8c0.3,0,0.6,0.1,0.8,0.3s0.3,0.5,0.3,0.7c0,0.3-0.1,0.5-0.3,0.8s-0.4,0.3-0.8,0.3h-0.8
	C1070.2,920.1,1068.9,918.9,1068.9,916.5z"/>
<path d="M1076.6,919.3v-16.1c0-0.2,0.1-0.4,0.3-0.6c0.2-0.1,0.5-0.2,0.9-0.2c0.3,0,0.6,0.1,0.9,0.2c0.2,0.1,0.4,0.3,0.4,0.6v7.4
	c0.2-0.5,0.6-0.9,1.2-1.3c0.5-0.3,1.1-0.5,1.8-0.5c1.1,0,2.1,0.5,2.9,1.4s1.2,2,1.2,3.3v5.8c0,0.2-0.1,0.4-0.4,0.6
	c-0.2,0.1-0.5,0.2-0.9,0.2c-0.3,0-0.6-0.1-0.8-0.2c-0.2-0.1-0.4-0.3-0.4-0.6v-5.8c0-0.6-0.2-1.2-0.7-1.7c-0.5-0.5-1-0.7-1.7-0.7
	c-0.6,0-1.1,0.2-1.6,0.7c-0.5,0.4-0.7,1-0.7,1.8v5.8c0,0.2-0.1,0.4-0.4,0.6c-0.3,0.2-0.5,0.3-0.9,0.3c-0.3,0-0.6-0.1-0.9-0.3
	C1076.8,919.7,1076.6,919.5,1076.6,919.3z"/>
<path d="M1088.6,915.7v-5.9c0-0.2,0.1-0.4,0.4-0.6c0.2-0.2,0.5-0.2,0.9-0.2s0.6,0.1,0.9,0.2c0.2,0.2,0.4,0.4,0.4,0.6v5.8
	c0,0.6,0.2,1.2,0.7,1.7c0.5,0.5,1,0.7,1.7,0.7c0.7,0,1.2-0.2,1.7-0.7c0.5-0.5,0.7-1.1,0.7-1.7v-5.9c0-0.2,0.1-0.4,0.4-0.6
	c0.2-0.2,0.5-0.2,0.9-0.2c0.3,0,0.6,0.1,0.9,0.2c0.2,0.2,0.3,0.3,0.3,0.6v5.9c0,1.2-0.5,2.3-1.4,3.2c-1,0.9-2.1,1.4-3.4,1.4
	c-1.3,0-2.4-0.5-3.4-1.4C1089,918,1088.6,916.9,1088.6,915.7z"/>
<path d="M1100.8,919.3v-16.1c0-0.2,0.1-0.4,0.3-0.6c0.2-0.1,0.5-0.2,0.9-0.2c0.4,0,0.7,0.1,0.9,0.2c0.2,0.1,0.4,0.3,0.4,0.6v7.4
	c0.3-0.5,0.7-0.9,1.2-1.3c0.5-0.3,1.1-0.5,1.8-0.5c1.2,0,2.1,0.5,3,1.4c0.8,0.9,1.2,2,1.2,3.3v2.2c0,1.2-0.4,2.3-1.2,3.2
	c-0.8,0.9-1.8,1.4-2.9,1.4c-0.7,0-1.4-0.2-1.9-0.5c-0.6-0.4-1-0.8-1.3-1.3v0.8c0,0.2-0.1,0.4-0.3,0.6c-0.2,0.2-0.5,0.3-0.8,0.3
	c-0.3,0-0.6-0.1-0.9-0.3C1100.9,919.7,1100.8,919.5,1100.8,919.3z"/>
<path d="M1103.2,916.2c0,0.3,0.2,0.7,0.7,1.2c0.5,0.5,1,0.7,1.7,0.7c0.6,0,1.2-0.3,1.7-0.8c0.5-0.5,0.7-1.1,0.7-1.7v-2.1
	c0-0.6-0.2-1.2-0.7-1.7s-1-0.7-1.7-0.7c-0.6,0-1.2,0.2-1.6,0.7c-0.5,0.5-0.7,1-0.7,1.7V916.2z"/>
<path d="M1112.5,919.9c-0.3-0.2-0.4-0.6-0.4-0.9c0-0.4,0.1-0.7,0.4-0.9c0.3-0.2,0.6-0.4,1-0.4c0.4,0,0.7,0.1,1,0.4
	c0.3,0.3,0.4,0.6,0.4,0.9c0,0.3-0.1,0.6-0.4,0.9c-0.3,0.3-0.6,0.4-1,0.4C1113.1,920.3,1112.8,920.1,1112.5,919.9z"/>
<path d="M1116.5,915.6v-2.1c0-1.4,0.4-2.5,1.2-3.4s2-1.3,3.6-1.3c1,0,1.9,0.2,2.6,0.5c0.7,0.4,1,0.7,1,1.2c0,0.3-0.1,0.5-0.3,0.8
	c-0.2,0.3-0.4,0.4-0.7,0.4c-0.1,0-0.4-0.1-0.8-0.4c-0.5-0.2-1-0.4-1.6-0.4c-1.7,0-2.6,0.8-2.6,2.5v2.1c0,1.6,0.9,2.5,2.6,2.5
	c0.6,0,1.1-0.1,1.6-0.4c0.5-0.2,0.8-0.4,0.9-0.4c0.3,0,0.6,0.1,0.8,0.4c0.2,0.3,0.3,0.5,0.3,0.8c0,0.4-0.4,0.8-1.1,1.2
	c-0.7,0.4-1.6,0.6-2.6,0.6c-1.6,0-2.8-0.4-3.7-1.3C1116.9,918.2,1116.5,917,1116.5,915.6z"/>
<path d="M1126.3,915.6v-2.2c0-1.2,0.5-2.3,1.4-3.2c1-0.9,2.1-1.4,3.4-1.4c1.3,0,2.4,0.5,3.4,1.4c1,0.9,1.5,2,1.5,3.2v2.2
	c0,1.2-0.5,2.3-1.5,3.2c-1,0.9-2.1,1.4-3.4,1.4c-1.3,0-2.4-0.5-3.4-1.4C1126.8,918,1126.3,916.9,1126.3,915.6z"/>
<path d="M1128.8,915.6c0,0.6,0.2,1.2,0.7,1.7c0.5,0.5,1,0.8,1.7,0.8c0.6,0,1.2-0.3,1.7-0.8c0.5-0.5,0.7-1.1,0.7-1.7v-2.1
	c0-0.6-0.2-1.2-0.7-1.7s-1-0.7-1.7-0.7c-0.7,0-1.2,0.2-1.7,0.7c-0.5,0.5-0.7,1.1-0.7,1.7V915.6z"/>
<path d="M1138.2,919.3v-9.5c0-0.2,0.1-0.4,0.3-0.6c0.2-0.1,0.5-0.2,0.9-0.2c0.3,0,0.6,0.1,0.8,0.2c0.2,0.2,0.3,0.3,0.3,0.6v0.9
	c0.7-1.2,1.7-1.8,3.1-1.8c0.7,0,1.3,0.2,1.8,0.7c0.5,0.4,0.9,1,1.2,1.7c0.4-0.8,0.9-1.4,1.5-1.8c0.6-0.4,1.3-0.6,2-0.6
	c1.1,0,2.1,0.4,2.9,1.3c0.8,0.8,1.2,2,1.2,3.4v5.8c0,0.2-0.1,0.4-0.4,0.6c-0.3,0.2-0.5,0.3-0.9,0.3c-0.3,0-0.6-0.1-0.8-0.3
	c-0.3-0.2-0.4-0.4-0.4-0.6v-5.8c0-0.8-0.2-1.4-0.7-1.8c-0.4-0.4-0.9-0.7-1.5-0.7s-1.1,0.2-1.5,0.7c-0.4,0.4-0.7,1-0.7,1.8v5.9
	c0,0.3-0.1,0.5-0.4,0.6s-0.5,0.2-0.9,0.2c-0.3,0-0.6-0.1-0.8-0.2c-0.3-0.1-0.4-0.3-0.4-0.6v-5.8c0-0.7-0.2-1.3-0.6-1.7
	c-0.4-0.5-0.9-0.7-1.5-0.7c-0.6,0-1.1,0.2-1.5,0.7c-0.4,0.4-0.6,1-0.6,1.8v5.8c0,0.2-0.1,0.4-0.4,0.6c-0.2,0.2-0.5,0.3-0.9,0.3
	c-0.3,0-0.6-0.1-0.9-0.3C1138.3,919.7,1138.2,919.5,1138.2,919.3z"/>
<path d="M1155.9,920.1c0-0.1,0-0.2,0.1-0.4l8.6-17.2c0.1-0.3,0.4-0.4,0.7-0.4c0.2,0,0.5,0.1,0.7,0.3c0.2,0.2,0.3,0.4,0.3,0.6
	c0,0.1,0,0.3-0.1,0.4l-8.6,17.2c-0.1,0.3-0.4,0.4-0.8,0.4c-0.3,0-0.5-0.1-0.7-0.3C1156,920.5,1155.9,920.3,1155.9,920.1z"/>
<path d="M1168.1,919.3v-9.5c0-0.2,0.1-0.4,0.3-0.6c0.2-0.1,0.5-0.2,0.9-0.2c0.3,0,0.6,0.1,0.8,0.2c0.2,0.2,0.3,0.3,0.3,0.6v0.9
	c0.7-1.2,1.7-1.8,3.1-1.8c0.7,0,1.3,0.2,1.8,0.7c0.5,0.4,0.9,1,1.2,1.7c0.4-0.8,0.9-1.4,1.5-1.8c0.6-0.4,1.3-0.6,2-0.6
	c1.1,0,2.1,0.4,2.9,1.3c0.8,0.8,1.2,2,1.2,3.4v5.8c0,0.2-0.1,0.4-0.4,0.6c-0.3,0.2-0.5,0.3-0.9,0.3c-0.3,0-0.6-0.1-0.8-0.3
	c-0.3-0.2-0.4-0.4-0.4-0.6v-5.8c0-0.8-0.2-1.4-0.7-1.8c-0.4-0.4-0.9-0.7-1.5-0.7c-0.6,0-1.1,0.2-1.5,0.7c-0.4,0.4-0.7,1-0.7,1.8v5.9
	c0,0.3-0.1,0.5-0.4,0.6s-0.5,0.2-0.9,0.2c-0.3,0-0.6-0.1-0.8-0.2c-0.3-0.1-0.4-0.3-0.4-0.6v-5.8c0-0.7-0.2-1.3-0.6-1.7
	c-0.4-0.5-0.9-0.7-1.5-0.7c-0.6,0-1.1,0.2-1.5,0.7c-0.4,0.4-0.6,1-0.6,1.8v5.8c0,0.2-0.1,0.4-0.4,0.6c-0.2,0.2-0.5,0.3-0.9,0.3
	c-0.3,0-0.6-0.1-0.9-0.3C1168.2,919.7,1168.1,919.5,1168.1,919.3z"/>
<path d="M1186.7,919.3v-16.1c0-0.2,0.1-0.4,0.3-0.6c0.2-0.1,0.5-0.2,0.9-0.2c0.4,0,0.7,0.1,0.9,0.2c0.2,0.1,0.4,0.3,0.4,0.6v10.4
	l4.9-4.5c0.1-0.1,0.3-0.2,0.5-0.2c0.3,0,0.5,0.1,0.8,0.4c0.3,0.2,0.4,0.5,0.4,0.8c0,0.2-0.1,0.4-0.2,0.5l-3,2.7l3.7,5.3
	c0.1,0.1,0.1,0.3,0.1,0.4c0,0.3-0.2,0.6-0.5,0.8c-0.3,0.3-0.6,0.4-0.9,0.4c-0.3,0-0.5-0.1-0.7-0.4l-3.4-5.1l-1.7,1.5v2.9
	c0,0.2-0.1,0.4-0.4,0.6c-0.3,0.2-0.5,0.3-0.9,0.3c-0.3,0-0.6-0.1-0.9-0.3C1186.8,919.7,1186.7,919.5,1186.7,919.3z"/>
<path d="M1197.9,919.3v-12c0-1.3,0.5-2.5,1.5-3.5c1-1,2.3-1.4,4-1.4c1,0,1.9,0.2,2.6,0.5c0.8,0.3,1.2,0.7,1.2,1.1
	c0,0.2-0.1,0.5-0.3,0.9c-0.2,0.4-0.4,0.5-0.6,0.5c-0.1,0-0.3-0.1-0.5-0.2c-0.2-0.1-0.6-0.3-1-0.4c-0.4-0.1-0.9-0.2-1.4-0.2
	c-1,0-1.7,0.3-2.2,0.8c-0.5,0.5-0.8,1.1-0.8,1.9v1.8h2.6c0.2,0,0.4,0.1,0.5,0.3c0.1,0.2,0.2,0.4,0.2,0.6c0,0.3-0.1,0.5-0.2,0.6
	c-0.1,0.2-0.3,0.3-0.5,0.3h-2.6v8.5c0,0.2-0.1,0.4-0.4,0.6c-0.3,0.1-0.5,0.2-0.9,0.2c-0.3,0-0.6-0.1-0.9-0.2
	C1198.1,919.7,1197.9,919.6,1197.9,919.3z"/>
<path d="M1205.7,919.3v-9.5c0-0.2,0.1-0.4,0.3-0.6c0.2-0.1,0.5-0.2,0.9-0.2c0.4,0,0.7,0.1,0.9,0.2c0.2,0.1,0.4,0.3,0.4,0.6v9.5
	c0,0.2-0.1,0.4-0.4,0.6c-0.2,0.2-0.5,0.3-0.9,0.3c-0.3,0-0.6-0.1-0.8-0.3C1205.8,919.7,1205.7,919.5,1205.7,919.3z"/>
<path d="M1210.7,919.3v-9.5c0-0.2,0.1-0.4,0.3-0.6c0.2-0.1,0.5-0.2,0.9-0.2c0.3,0,0.6,0.1,0.8,0.2c0.2,0.2,0.3,0.3,0.3,0.6v0.9
	c0.2-0.5,0.7-0.9,1.2-1.3c0.6-0.3,1.2-0.5,1.9-0.5c1.1,0,2.1,0.5,2.9,1.4s1.2,2,1.2,3.3v5.8c0,0.2-0.1,0.4-0.4,0.6
	c-0.2,0.1-0.5,0.2-0.9,0.2c-0.3,0-0.6-0.1-0.8-0.2c-0.2-0.1-0.4-0.3-0.4-0.6v-5.8c0-0.6-0.2-1.2-0.7-1.7c-0.5-0.5-1-0.7-1.7-0.7
	c-0.6,0-1.1,0.2-1.6,0.7c-0.5,0.4-0.7,1-0.7,1.8v5.8c0,0.2-0.1,0.4-0.4,0.6c-0.2,0.2-0.5,0.3-0.9,0.3c-0.3,0-0.6-0.1-0.9-0.3
	C1210.8,919.7,1210.7,919.5,1210.7,919.3z"/>
<path d="M1222.7,919.3v-16.1c0-0.2,0.1-0.4,0.3-0.6c0.2-0.1,0.5-0.2,0.9-0.2c0.4,0,0.7,0.1,0.9,0.2c0.2,0.1,0.4,0.3,0.4,0.6v10.4
	l4.9-4.5c0.1-0.1,0.3-0.2,0.5-0.2c0.3,0,0.5,0.1,0.8,0.4c0.3,0.2,0.4,0.5,0.4,0.8c0,0.2-0.1,0.4-0.2,0.5l-3,2.7l3.7,5.3
	c0.1,0.1,0.1,0.3,0.1,0.4c0,0.3-0.2,0.6-0.5,0.8c-0.3,0.3-0.6,0.4-0.9,0.4c-0.3,0-0.5-0.1-0.7-0.4l-3.4-5.1l-1.7,1.5v2.9
	c0,0.2-0.1,0.4-0.4,0.6c-0.3,0.2-0.5,0.3-0.9,0.3c-0.3,0-0.6-0.1-0.9-0.3C1222.8,919.7,1222.7,919.5,1222.7,919.3z"/>
<path d="M1233.1,920.1c0-0.1,0-0.2,0.1-0.4l8.6-17.2c0.1-0.3,0.4-0.4,0.7-0.4c0.2,0,0.5,0.1,0.7,0.3c0.2,0.2,0.3,0.4,0.3,0.6
	c0,0.1,0,0.3-0.1,0.4l-8.6,17.2c-0.1,0.3-0.4,0.4-0.8,0.4c-0.3,0-0.5-0.1-0.7-0.3C1233.2,920.5,1233.1,920.3,1233.1,920.1z"/>
<path d="M1244.8,915.6v-2.2c0-1.2,0.5-2.3,1.4-3.2c1-0.9,2.1-1.3,3.4-1.3c1.3,0,2.4,0.4,3.3,1.2c0.9,0.8,1.4,1.8,1.4,3.1
	c0,0.5-0.1,0.9-0.2,1.2c-0.1,0.3-0.3,0.5-0.5,0.6c-0.2,0.1-0.5,0.2-0.7,0.2c-0.2,0-0.5,0-0.8,0h-4.9v0.5c0,0.8,0.3,1.4,0.8,1.9
	c0.6,0.5,1.3,0.7,2.2,0.7c0.6,0,1.2-0.1,1.8-0.4s0.9-0.4,1-0.4c0.3,0,0.5,0.1,0.7,0.4c0.2,0.3,0.3,0.5,0.3,0.7
	c0,0.4-0.4,0.8-1.1,1.2c-0.8,0.4-1.7,0.6-2.8,0.6c-1.6,0-2.9-0.4-3.9-1.3S1244.8,917,1244.8,915.6z"/>
<path d="M1247.2,913.6h3.9c0.3,0,0.6,0,0.7-0.1c0.1-0.1,0.2-0.3,0.2-0.6c0-0.6-0.2-1.1-0.7-1.6c-0.5-0.4-1-0.6-1.7-0.6
	c-0.7,0-1.2,0.2-1.7,0.6c-0.5,0.4-0.7,0.9-0.7,1.6V913.6z"/>
<path d="M1255.6,918.4c0-0.2,0.1-0.5,0.2-0.7c0.2-0.2,0.4-0.4,0.6-0.4c0.1,0,0.3,0.1,0.6,0.3c0.3,0.2,0.6,0.4,1,0.6
	c0.4,0.2,0.9,0.3,1.5,0.3c1.3,0,2-0.4,2-1.3c0-0.5-0.2-0.8-0.6-1.1c-0.4-0.3-0.9-0.5-1.4-0.6c-0.6-0.1-1.1-0.3-1.7-0.5
	c-0.5-0.2-1-0.5-1.4-1c-0.4-0.5-0.6-1-0.6-1.8c0-0.9,0.3-1.7,1-2.4c0.7-0.7,1.7-1,3-1c0.9,0,1.7,0.1,2.4,0.4c0.7,0.3,1.1,0.6,1.1,1
	c0,0.2-0.1,0.5-0.3,0.8c-0.2,0.3-0.4,0.4-0.7,0.4c-0.1,0-0.4-0.1-1-0.4c-0.5-0.2-1.1-0.4-1.6-0.4c-0.6,0-1.1,0.1-1.4,0.4
	c-0.3,0.3-0.5,0.6-0.5,0.9c0,0.4,0.2,0.7,0.6,0.9c0.4,0.2,0.9,0.4,1.4,0.5c0.6,0.1,1.1,0.3,1.7,0.5c0.5,0.2,1,0.6,1.4,1.1
	c0.4,0.5,0.6,1.1,0.6,1.9c0,1-0.4,1.8-1.1,2.4c-0.7,0.6-1.7,0.9-3,0.9c-1.1,0-2.1-0.2-2.8-0.6C1256,919.3,1255.6,918.9,1255.6,918.4
	z"/>
<path d="M1265.8,924.6v-14.8c0-0.2,0.1-0.4,0.3-0.6c0.2-0.1,0.5-0.2,0.8-0.2c0.3,0,0.6,0.1,0.8,0.2c0.2,0.2,0.3,0.3,0.3,0.6v0.9
	c0.3-0.5,0.7-0.9,1.3-1.3c0.6-0.3,1.2-0.5,1.9-0.5c1.2,0,2.2,0.5,3,1.4c0.8,0.9,1.2,2,1.2,3.3v2.2c0,1.2-0.4,2.3-1.2,3.2
	c-0.8,0.9-1.8,1.4-2.9,1.4c-0.7,0-1.3-0.2-1.9-0.5s-1-0.8-1.2-1.3v6.1c0,0.2-0.1,0.4-0.4,0.6c-0.3,0.2-0.5,0.2-0.9,0.2
	c-0.3,0-0.6-0.1-0.9-0.2C1265.9,925,1265.8,924.8,1265.8,924.6z"/>
<path d="M1268.3,916.2c0,0.3,0.2,0.7,0.7,1.2c0.5,0.5,1,0.7,1.7,0.7c0.6,0,1.2-0.3,1.7-0.8c0.5-0.5,0.7-1.1,0.7-1.7v-2.1
	c0-0.6-0.2-1.2-0.7-1.7c-0.5-0.5-1.1-0.7-1.7-0.7c-0.6,0-1.1,0.2-1.6,0.7c-0.5,0.4-0.7,1-0.7,1.8V916.2z"/>
<path d="M1276.9,916.1c0-0.4,0.1-0.7,0.3-0.8c0.2-0.1,0.5-0.2,0.9-0.2c0.5,0,0.8,0.1,1,0.2s0.3,0.4,0.3,0.7c0,0.6,0.2,1,0.7,1.4
	c0.5,0.4,1.2,0.6,2.1,0.6c1,0,1.7-0.2,2.1-0.7c0.5-0.5,0.7-1.2,0.7-2.2v-0.4c0-1.7-1-2.6-2.9-2.6c-0.5,0-0.8-0.3-0.8-1
	c0-0.7,0.3-1,0.8-1c0.8,0,1.4-0.2,1.8-0.5c0.4-0.4,0.6-1,0.6-2c0-1.6-0.8-2.4-2.3-2.4c-0.9,0-1.5,0.2-1.9,0.5
	c-0.4,0.4-0.6,0.8-0.6,1.4c0,0.7-0.4,1-1.2,1c-0.5,0-0.9-0.1-1-0.2c-0.2-0.2-0.2-0.5-0.2-0.9c0-0.4,0.1-0.8,0.2-1.3
	c0.2-0.4,0.4-0.8,0.8-1.3c0.4-0.4,0.9-0.8,1.5-1c0.7-0.3,1.5-0.4,2.4-0.4c3.1,0,4.7,1.4,4.7,4.2c0,1-0.2,1.8-0.5,2.5
	c-0.3,0.7-0.8,1.2-1.4,1.4c1.6,0.6,2.4,1.8,2.4,3.6v0.4c0,1.8-0.5,3.1-1.5,3.9s-2.3,1.2-3.9,1.2c-1.7,0-3-0.4-3.9-1.3
	C1277.4,918.1,1276.9,917.2,1276.9,916.1z"/>
<path d="M1289.1,919.3V917c0-0.7,0.3-1.4,0.8-2.1c0.5-0.7,1.1-1.3,1.9-1.8l2.2-1.6c0.8-0.5,1.4-1.1,1.9-1.8c0.5-0.7,0.8-1.3,0.8-2
	s-0.2-1.2-0.6-1.7c-0.4-0.5-1.1-0.7-1.9-0.7c-0.7,0-1.3,0.2-1.7,0.6c-0.4,0.4-0.7,1-0.7,1.7c0,0.2-0.1,0.5-0.4,0.7
	c-0.2,0.2-0.6,0.3-0.9,0.3c-0.7,0-1.1-0.5-1.1-1.4c0-1.2,0.5-2.2,1.4-3c0.9-0.8,2.1-1.2,3.4-1.2c1.4,0,2.6,0.4,3.6,1.3
	c1,0.9,1.5,2,1.5,3.4c0,0.9-0.3,1.8-0.8,2.6c-0.5,0.8-1.2,1.5-1.9,2.1c-0.7,0.6-1.5,1.1-2.2,1.6c-0.7,0.5-1.4,1-1.9,1.5
	c-0.5,0.5-0.8,1-0.8,1.5v0.9h6.9c0.2,0,0.4,0.1,0.6,0.3c0.2,0.2,0.2,0.5,0.2,0.8c0,0.3-0.1,0.6-0.2,0.8c-0.2,0.2-0.4,0.3-0.6,0.3
	h-8.3c-0.2,0-0.5-0.1-0.7-0.2C1289.2,919.7,1289.1,919.5,1289.1,919.3z"/>
<path d="M1301.1,915.2c-0.1-0.2-0.2-0.4-0.2-0.7c0-0.3,0.1-0.6,0.2-0.8c0.1-0.2,0.3-0.3,0.6-0.3h6.1c0.2,0,0.4,0.1,0.6,0.3
	c0.2,0.2,0.3,0.5,0.3,0.7c0,0.3-0.1,0.5-0.3,0.7c-0.2,0.2-0.4,0.3-0.6,0.3h-6.1C1301.4,915.5,1301.2,915.4,1301.1,915.2z"/>
<path d="M1309.7,906.5c0-0.4,0.2-0.7,0.5-1l2.4-2.3c0.2-0.2,0.4-0.3,0.6-0.3c0.3,0,0.5,0.1,0.8,0.2c0.2,0.1,0.3,0.3,0.3,0.6v15.5
	c0,0.2-0.1,0.4-0.4,0.6c-0.2,0.1-0.5,0.2-0.9,0.2c-0.3,0-0.6-0.1-0.9-0.2c-0.2-0.1-0.4-0.3-0.4-0.6v-13l-0.8,1
	c-0.2,0.2-0.3,0.2-0.5,0.2c-0.2,0-0.4-0.1-0.6-0.3C1309.8,907,1309.7,906.8,1309.7,906.5z"/>
<path d="M1317,915v-6.8c0-1.8,0.5-3.1,1.4-4c1-0.8,2.2-1.3,3.9-1.3c1.6,0,2.9,0.4,3.9,1.3c1,0.8,1.4,2.2,1.4,4v6.8
	c0,1.8-0.5,3.1-1.4,4c-1,0.8-2.2,1.3-3.9,1.3c-1.6,0-2.9-0.4-3.9-1.3C1317.5,918.1,1317,916.8,1317,915z"/>
<path d="M1319.5,915c0,2,0.9,3,2.8,3c0.9,0,1.6-0.2,2.1-0.7s0.7-1.3,0.7-2.3v-6.8c0-1-0.2-1.8-0.7-2.3c-0.5-0.5-1.2-0.8-2.1-0.8
	c-1.9,0-2.8,1-2.8,3V915z"/>
<path d="M1321.6,912.3c-0.2-0.2-0.3-0.4-0.3-0.7c0-0.3,0.1-0.5,0.3-0.7c0.2-0.2,0.4-0.3,0.8-0.3s0.6,0.1,0.7,0.3s0.3,0.4,0.3,0.7
	c0,0.3-0.1,0.5-0.3,0.7c-0.2,0.2-0.4,0.3-0.7,0.3S1321.8,912.5,1321.6,912.3z"/>
<path d="M1329.9,915.2c-0.1-0.2-0.2-0.4-0.2-0.7c0-0.3,0.1-0.6,0.2-0.8c0.1-0.2,0.3-0.3,0.6-0.3h6.1c0.2,0,0.4,0.1,0.6,0.3
	c0.2,0.2,0.3,0.5,0.3,0.7c0,0.3-0.1,0.5-0.3,0.7c-0.2,0.2-0.4,0.3-0.6,0.3h-6.1C1330.2,915.5,1330,915.4,1329.9,915.2z"/>
<path d="M1339.3,915.6v-2.1c0-1.4,0.4-2.5,1.2-3.4s2-1.3,3.6-1.3c1,0,1.9,0.2,2.6,0.5c0.7,0.4,1,0.7,1,1.2c0,0.3-0.1,0.5-0.3,0.8
	c-0.2,0.3-0.4,0.4-0.7,0.4c-0.1,0-0.4-0.1-0.8-0.4c-0.5-0.2-1-0.4-1.6-0.4c-1.7,0-2.6,0.8-2.6,2.5v2.1c0,1.6,0.9,2.5,2.6,2.5
	c0.6,0,1.1-0.1,1.6-0.4c0.5-0.2,0.8-0.4,0.9-0.4c0.3,0,0.6,0.1,0.8,0.4c0.2,0.3,0.3,0.5,0.3,0.8c0,0.4-0.4,0.8-1.1,1.2
	c-0.7,0.4-1.6,0.6-2.6,0.6c-1.6,0-2.8-0.4-3.7-1.3C1339.7,918.2,1339.3,917,1339.3,915.6z"/>
<path d="M1349.7,919.3v-16.1c0-0.2,0.1-0.4,0.3-0.6c0.2-0.1,0.5-0.2,0.9-0.2c0.3,0,0.6,0.1,0.9,0.2c0.2,0.1,0.4,0.3,0.4,0.6v7.4
	c0.2-0.5,0.6-0.9,1.2-1.3c0.5-0.3,1.1-0.5,1.8-0.5c1.1,0,2.1,0.5,2.9,1.4c0.8,0.9,1.2,2,1.2,3.3v5.8c0,0.2-0.1,0.4-0.4,0.6
	c-0.2,0.1-0.5,0.2-0.9,0.2c-0.3,0-0.6-0.1-0.8-0.2c-0.2-0.1-0.4-0.3-0.4-0.6v-5.8c0-0.6-0.2-1.2-0.7-1.7c-0.5-0.5-1-0.7-1.7-0.7
	c-0.6,0-1.1,0.2-1.6,0.7c-0.5,0.4-0.7,1-0.7,1.8v5.8c0,0.2-0.1,0.4-0.4,0.6c-0.3,0.2-0.5,0.3-0.9,0.3c-0.3,0-0.6-0.1-0.9-0.3
	C1349.8,919.7,1349.7,919.5,1349.7,919.3z"/>
<path d="M1361,917.2c0-1.3,0.5-2.1,1.4-2.6s2.3-0.7,4.1-0.7h1v-0.4c0-0.7-0.2-1.3-0.6-1.8c-0.4-0.5-1-0.8-1.7-0.8
	c-0.7,0-1.3,0.1-1.8,0.4c-0.5,0.3-0.8,0.4-0.8,0.4c-0.3,0-0.5-0.1-0.6-0.4c-0.2-0.3-0.2-0.5-0.2-0.9c0-0.4,0.4-0.8,1.1-1.1
	c0.8-0.3,1.6-0.4,2.4-0.4c1.6,0,2.8,0.4,3.6,1.3c0.8,0.9,1.2,2,1.2,3.2v5.9c0,0.2-0.1,0.4-0.3,0.6c-0.2,0.2-0.5,0.2-0.9,0.2
	c-0.3,0-0.6-0.1-0.8-0.2c-0.2-0.2-0.3-0.4-0.3-0.6v-0.8c-1,1.2-2.2,1.8-3.5,1.8c-0.9,0-1.7-0.3-2.2-0.8S1361,918.2,1361,917.2z"/>
<path d="M1363.5,916.9c0,0.5,0.1,0.9,0.4,1.1c0.3,0.3,0.6,0.4,1.1,0.4c0.6,0,1.2-0.2,1.7-0.8c0.5-0.5,0.8-1,0.8-1.6v-0.9h-0.6
	c-0.7,0-1.3,0-1.7,0.1c-0.4,0.1-0.8,0.2-1.2,0.5C1363.6,916.1,1363.5,916.4,1363.5,916.9z"/>
<path d="M1372.5,919.3v-9.5c0-0.2,0.1-0.4,0.3-0.6c0.2-0.1,0.5-0.2,0.9-0.2c0.3,0,0.6,0.1,0.8,0.2c0.2,0.2,0.3,0.3,0.3,0.6v0.9
	c0.2-0.5,0.7-0.9,1.2-1.3c0.6-0.3,1.2-0.5,1.9-0.5c1.1,0,2.1,0.5,2.9,1.4c0.8,0.9,1.2,2,1.2,3.3v5.8c0,0.2-0.1,0.4-0.4,0.6
	c-0.2,0.1-0.5,0.2-0.9,0.2c-0.3,0-0.6-0.1-0.8-0.2c-0.2-0.1-0.4-0.3-0.4-0.6v-5.8c0-0.6-0.2-1.2-0.7-1.7c-0.5-0.5-1-0.7-1.7-0.7
	c-0.6,0-1.1,0.2-1.6,0.7c-0.5,0.4-0.7,1-0.7,1.8v5.8c0,0.2-0.1,0.4-0.4,0.6c-0.2,0.2-0.5,0.3-0.9,0.3c-0.3,0-0.6-0.1-0.9-0.3
	C1372.6,919.7,1372.5,919.5,1372.5,919.3z"/>
<path d="M1384.5,919.3v-9.5c0-0.2,0.1-0.4,0.3-0.6c0.2-0.1,0.5-0.2,0.9-0.2c0.3,0,0.6,0.1,0.8,0.2c0.2,0.2,0.3,0.3,0.3,0.6v0.9
	c0.2-0.5,0.7-0.9,1.2-1.3c0.6-0.3,1.2-0.5,1.9-0.5c1.1,0,2.1,0.5,2.9,1.4s1.2,2,1.2,3.3v5.8c0,0.2-0.1,0.4-0.4,0.6
	c-0.2,0.1-0.5,0.2-0.9,0.2c-0.3,0-0.6-0.1-0.8-0.2c-0.2-0.1-0.4-0.3-0.4-0.6v-5.8c0-0.6-0.2-1.2-0.7-1.7c-0.5-0.5-1-0.7-1.7-0.7
	c-0.6,0-1.1,0.2-1.6,0.7c-0.5,0.4-0.7,1-0.7,1.8v5.8c0,0.2-0.1,0.4-0.4,0.6c-0.2,0.2-0.5,0.3-0.9,0.3c-0.3,0-0.6-0.1-0.9-0.3
	C1384.6,919.7,1384.5,919.5,1384.5,919.3z"/>
<path d="M1396.1,915.6v-2.2c0-1.2,0.5-2.3,1.4-3.2c1-0.9,2.1-1.3,3.4-1.3c1.3,0,2.4,0.4,3.3,1.2c0.9,0.8,1.4,1.8,1.4,3.1
	c0,0.5-0.1,0.9-0.2,1.2c-0.1,0.3-0.3,0.5-0.5,0.6c-0.2,0.1-0.5,0.2-0.7,0.2c-0.2,0-0.5,0-0.8,0h-4.9v0.5c0,0.8,0.3,1.4,0.8,1.9
	c0.6,0.5,1.3,0.7,2.2,0.7c0.6,0,1.2-0.1,1.8-0.4c0.6-0.3,0.9-0.4,1-0.4c0.3,0,0.5,0.1,0.7,0.4c0.2,0.3,0.3,0.5,0.3,0.7
	c0,0.4-0.4,0.8-1.1,1.2c-0.8,0.4-1.7,0.6-2.8,0.6c-1.6,0-2.9-0.4-3.9-1.3C1396.6,918.2,1396.1,917,1396.1,915.6z"/>
<path d="M1398.6,913.6h3.9c0.3,0,0.6,0,0.7-0.1c0.1-0.1,0.2-0.3,0.2-0.6c0-0.6-0.2-1.1-0.7-1.6s-1-0.6-1.7-0.6
	c-0.7,0-1.2,0.2-1.7,0.6c-0.5,0.4-0.7,0.9-0.7,1.6V913.6z"/>
<path d="M1407.8,919.3v-16.1c0-0.2,0.1-0.4,0.3-0.6c0.2-0.1,0.5-0.2,0.9-0.2c0.3,0,0.6,0.1,0.9,0.2c0.2,0.1,0.4,0.3,0.4,0.6v16.1
	c0,0.2-0.1,0.4-0.4,0.6c-0.2,0.2-0.5,0.3-0.9,0.3c-0.3,0-0.6-0.1-0.9-0.3C1407.9,919.7,1407.8,919.5,1407.8,919.3z"/>
<path d="M1413,915.2c-0.1-0.2-0.2-0.4-0.2-0.7c0-0.3,0.1-0.6,0.2-0.8c0.1-0.2,0.3-0.3,0.6-0.3h6.1c0.2,0,0.4,0.1,0.6,0.3
	c0.2,0.2,0.3,0.5,0.3,0.7c0,0.3-0.1,0.5-0.3,0.7c-0.2,0.2-0.4,0.3-0.6,0.3h-6.1C1413.3,915.5,1413.1,915.4,1413,915.2z"/>
<path d="M1422.9,919.3v-16.1c0-0.2,0.1-0.4,0.3-0.6c0.2-0.1,0.5-0.2,0.9-0.2c0.3,0,0.6,0.1,0.9,0.2c0.2,0.1,0.4,0.3,0.4,0.6v16.1
	c0,0.2-0.1,0.4-0.4,0.6c-0.2,0.2-0.5,0.3-0.9,0.3c-0.3,0-0.6-0.1-0.9-0.3C1423.1,919.7,1422.9,919.5,1422.9,919.3z"/>
<path d="M1427.8,915.6v-2.2c0-1.2,0.5-2.3,1.4-3.2c1-0.9,2.1-1.3,3.4-1.3c1.3,0,2.4,0.4,3.3,1.2c0.9,0.8,1.4,1.8,1.4,3.1
	c0,0.5-0.1,0.9-0.2,1.2c-0.1,0.3-0.3,0.5-0.5,0.6c-0.2,0.1-0.5,0.2-0.7,0.2c-0.2,0-0.5,0-0.8,0h-4.9v0.5c0,0.8,0.3,1.4,0.8,1.9
	c0.6,0.5,1.3,0.7,2.2,0.7c0.6,0,1.2-0.1,1.8-0.4s0.9-0.4,1-0.4c0.3,0,0.5,0.1,0.7,0.4c0.2,0.3,0.3,0.5,0.3,0.7
	c0,0.4-0.4,0.8-1.1,1.2c-0.8,0.4-1.7,0.6-2.8,0.6c-1.6,0-2.9-0.4-3.9-1.3S1427.8,917,1427.8,915.6z"/>
<path d="M1430.2,913.6h3.9c0.3,0,0.6,0,0.7-0.1c0.1-0.1,0.2-0.3,0.2-0.6c0-0.6-0.2-1.1-0.7-1.6s-1-0.6-1.7-0.6
	c-0.7,0-1.2,0.2-1.7,0.6c-0.5,0.4-0.7,0.9-0.7,1.6V913.6z"/>
<path d="M1438.9,915.6v-2.2c0-1.3,0.4-2.4,1.2-3.3c0.8-0.9,1.8-1.4,3-1.4c0.7,0,1.3,0.2,1.8,0.5c0.5,0.3,0.9,0.8,1.2,1.3v-7.4
	c0-0.2,0.1-0.4,0.4-0.6c0.2-0.1,0.5-0.2,0.9-0.2s0.7,0.1,0.9,0.2c0.2,0.1,0.3,0.3,0.3,0.6v16.1c0,0.2-0.1,0.4-0.4,0.6
	c-0.2,0.2-0.5,0.3-0.9,0.3c-0.3,0-0.6-0.1-0.8-0.3c-0.2-0.2-0.3-0.4-0.3-0.6v-0.8c-0.2,0.5-0.7,0.9-1.3,1.3c-0.6,0.4-1.3,0.5-2,0.5
	c-1.1,0-2.1-0.5-2.9-1.4C1439.3,917.9,1438.9,916.9,1438.9,915.6z"/>
<path d="M1441.3,915.6c0,0.6,0.2,1.2,0.7,1.7c0.5,0.5,1,0.8,1.7,0.8c0.6,0,1.2-0.2,1.7-0.7c0.5-0.5,0.7-0.9,0.7-1.2v-2.7
	c0-0.7-0.2-1.3-0.7-1.7c-0.5-0.5-1-0.7-1.7-0.7c-0.6,0-1.2,0.2-1.7,0.7s-0.7,1.1-0.7,1.7V915.6z"/>
<path d="M1451.1,919.9c-0.3-0.2-0.4-0.6-0.4-0.9c0-0.4,0.1-0.7,0.4-0.9c0.3-0.2,0.6-0.4,1-0.4c0.4,0,0.7,0.1,1,0.4
	c0.3,0.3,0.4,0.6,0.4,0.9c0,0.3-0.1,0.6-0.4,0.9c-0.3,0.3-0.6,0.4-1,0.4C1451.7,920.3,1451.4,920.1,1451.1,919.9z"/>
<path d="M1454.7,922.2c0-1.1,0.6-2,1.8-2.5c-0.7-0.3-1-0.8-1-1.6c0-0.7,0.4-1.3,1.1-1.8c-0.9-0.7-1.4-1.7-1.4-3v-0.7
	c0-1.1,0.4-2,1.2-2.8c0.8-0.7,1.9-1.1,3.2-1.1c1.1,0,2,0.3,2.7,0.8c0.5-1,1-1.6,1.5-1.6c0.3,0,0.5,0.1,0.7,0.3
	c0.2,0.2,0.3,0.4,0.3,0.6c0,0.3-0.1,0.4-0.4,0.6c-0.5,0.2-0.9,0.5-1.2,0.9c0.5,0.6,0.7,1.4,0.7,2.2v0.7c0,1.1-0.4,2.1-1.2,2.8
	c-0.8,0.7-1.9,1.1-3.2,1.1c-0.6,0-1.1-0.1-1.6-0.3c-0.3,0.2-0.4,0.4-0.4,0.7c0,0.3,0.2,0.5,0.7,0.7s1.1,0.3,1.8,0.3
	c0.7,0.1,1.4,0.2,2.1,0.3c0.7,0.1,1.3,0.5,1.8,1c0.5,0.5,0.7,1.1,0.7,1.9c0,1.2-0.5,2-1.4,2.6c-0.9,0.6-2.1,0.9-3.5,0.9
	c-1.4,0-2.6-0.3-3.6-0.9S1454.7,923.2,1454.7,922.2z"/>
<path d="M1457,921.9c0,0.6,0.2,1,0.7,1.4s1.1,0.5,1.9,0.5c0.8,0,1.4-0.2,1.9-0.5c0.5-0.3,0.7-0.8,0.7-1.4c0-0.4-0.1-0.7-0.3-0.9
	c-0.2-0.2-0.5-0.4-1-0.5c-0.4-0.1-0.8-0.2-1.1-0.2c-0.3,0-0.7-0.1-1.2-0.1C1457.5,920.6,1457,921.2,1457,921.9z"/>
<path d="M1457.5,913.3c0,0.7,0.2,1.3,0.5,1.7c0.4,0.4,0.9,0.7,1.5,0.7c0.6,0,1.1-0.2,1.5-0.6c0.4-0.4,0.5-1,0.5-1.7v-0.7
	c0-0.7-0.2-1.2-0.5-1.6c-0.4-0.4-0.9-0.6-1.5-0.6c-0.6,0-1.1,0.2-1.5,0.6c-0.4,0.4-0.5,1-0.5,1.6V913.3z"/>
<path d="M1466.1,904.9c0-0.4,0.1-0.7,0.4-0.9c0.3-0.2,0.6-0.4,1-0.4c0.4,0,0.7,0.1,1,0.4c0.3,0.3,0.4,0.6,0.4,0.9
	c0,0.3-0.1,0.6-0.4,0.9c-0.3,0.3-0.6,0.4-1,0.4c-0.4,0-0.7-0.1-1-0.4C1466.3,905.6,1466.1,905.3,1466.1,904.9z"/>
<path d="M1466.4,919.3v-9.5c0-0.2,0.1-0.4,0.3-0.6c0.2-0.1,0.5-0.2,0.9-0.2c0.4,0,0.7,0.1,0.9,0.2c0.2,0.1,0.4,0.3,0.4,0.6v9.5
	c0,0.2-0.1,0.4-0.4,0.6c-0.2,0.2-0.5,0.3-0.9,0.3c-0.3,0-0.6-0.1-0.9-0.3C1466.5,919.7,1466.4,919.5,1466.4,919.3z"/>
<path d="M1471.4,916.5v-11.7c0-0.2,0.1-0.4,0.4-0.6c0.2-0.2,0.5-0.2,0.8-0.2c0.3,0,0.6,0.1,0.9,0.2c0.3,0.2,0.4,0.3,0.4,0.6v4.3h2.9
	c0.2,0,0.4,0.1,0.5,0.3c0.1,0.2,0.2,0.4,0.2,0.6c0,0.3-0.1,0.5-0.2,0.6c-0.1,0.2-0.3,0.3-0.5,0.3h-2.9v5.6c0,0.6,0.1,1,0.4,1.2
	c0.2,0.2,0.7,0.4,1.3,0.4h0.8c0.3,0,0.6,0.1,0.8,0.3s0.3,0.5,0.3,0.7c0,0.3-0.1,0.5-0.3,0.8s-0.4,0.3-0.8,0.3h-0.8
	C1472.7,920.1,1471.4,918.9,1471.4,916.5z"/>
</svg>
