%TF.GenerationSoftware,KiCad,Pcbnew,(6.0.6)*%
%TF.CreationDate,2022-12-02T03:24:18-05:00*%
%TF.ProjectId,esp32-wled,65737033-322d-4776-9c65-642e6b696361,rev?*%
%TF.SameCoordinates,Original*%
%TF.FileFunction,Legend,Top*%
%TF.FilePolarity,Positive*%
%FSLAX46Y46*%
G04 Gerber Fmt 4.6, Leading zero omitted, Abs format (unit mm)*
G04 Created by KiCad (PCBNEW (6.0.6)) date 2022-12-02 03:24:18*
%MOMM*%
%LPD*%
G01*
G04 APERTURE LIST*
G04 Aperture macros list*
%AMRoundRect*
0 Rectangle with rounded corners*
0 $1 Rounding radius*
0 $2 $3 $4 $5 $6 $7 $8 $9 X,Y pos of 4 corners*
0 Add a 4 corners polygon primitive as box body*
4,1,4,$2,$3,$4,$5,$6,$7,$8,$9,$2,$3,0*
0 Add four circle primitives for the rounded corners*
1,1,$1+$1,$2,$3*
1,1,$1+$1,$4,$5*
1,1,$1+$1,$6,$7*
1,1,$1+$1,$8,$9*
0 Add four rect primitives between the rounded corners*
20,1,$1+$1,$2,$3,$4,$5,0*
20,1,$1+$1,$4,$5,$6,$7,0*
20,1,$1+$1,$6,$7,$8,$9,0*
20,1,$1+$1,$8,$9,$2,$3,0*%
G04 Aperture macros list end*
%ADD10C,0.150000*%
%ADD11C,0.300000*%
%ADD12C,0.120000*%
%ADD13C,0.100000*%
%ADD14RoundRect,0.550000X-0.550000X-0.550000X0.550000X-0.550000X0.550000X0.550000X-0.550000X0.550000X0*%
%ADD15C,2.200000*%
%ADD16R,5.000000X5.000000*%
%ADD17R,2.000000X0.900000*%
%ADD18R,0.900000X2.000000*%
%ADD19RoundRect,0.250000X0.725000X-0.600000X0.725000X0.600000X-0.725000X0.600000X-0.725000X-0.600000X0*%
%ADD20O,1.950000X1.700000*%
%ADD21C,3.800000*%
%ADD22RoundRect,0.250000X-0.725000X0.600000X-0.725000X-0.600000X0.725000X-0.600000X0.725000X0.600000X0*%
%ADD23R,1.700000X1.700000*%
%ADD24O,1.700000X1.700000*%
%ADD25R,2.540000X2.540000*%
%ADD26C,2.540000*%
G04 APERTURE END LIST*
D10*
X126190523Y-95159580D02*
X126809571Y-95159580D01*
X126476238Y-95540533D01*
X126619095Y-95540533D01*
X126714333Y-95588152D01*
X126761952Y-95635771D01*
X126809571Y-95731009D01*
X126809571Y-95969104D01*
X126761952Y-96064342D01*
X126714333Y-96111961D01*
X126619095Y-96159580D01*
X126333380Y-96159580D01*
X126238142Y-96111961D01*
X126190523Y-96064342D01*
X127142904Y-95492914D02*
X127381000Y-96159580D01*
X127619095Y-95492914D01*
X127904809Y-95159580D02*
X128523857Y-95159580D01*
X128190523Y-95540533D01*
X128333380Y-95540533D01*
X128428619Y-95588152D01*
X128476238Y-95635771D01*
X128523857Y-95731009D01*
X128523857Y-95969104D01*
X128476238Y-96064342D01*
X128428619Y-96111961D01*
X128333380Y-96159580D01*
X128047666Y-96159580D01*
X127952428Y-96111961D01*
X127904809Y-96064342D01*
X126517495Y-77351000D02*
X126422257Y-77303380D01*
X126279400Y-77303380D01*
X126136542Y-77351000D01*
X126041304Y-77446238D01*
X125993685Y-77541476D01*
X125946066Y-77731952D01*
X125946066Y-77874809D01*
X125993685Y-78065285D01*
X126041304Y-78160523D01*
X126136542Y-78255761D01*
X126279400Y-78303380D01*
X126374638Y-78303380D01*
X126517495Y-78255761D01*
X126565114Y-78208142D01*
X126565114Y-77874809D01*
X126374638Y-77874809D01*
X126993685Y-78303380D02*
X126993685Y-77303380D01*
X127565114Y-78303380D01*
X127565114Y-77303380D01*
X128041304Y-78303380D02*
X128041304Y-77303380D01*
X128279400Y-77303380D01*
X128422257Y-77351000D01*
X128517495Y-77446238D01*
X128565114Y-77541476D01*
X128612733Y-77731952D01*
X128612733Y-77874809D01*
X128565114Y-78065285D01*
X128517495Y-78160523D01*
X128422257Y-78255761D01*
X128279400Y-78303380D01*
X128041304Y-78303380D01*
X174777495Y-77325600D02*
X174682257Y-77277980D01*
X174539400Y-77277980D01*
X174396542Y-77325600D01*
X174301304Y-77420838D01*
X174253685Y-77516076D01*
X174206066Y-77706552D01*
X174206066Y-77849409D01*
X174253685Y-78039885D01*
X174301304Y-78135123D01*
X174396542Y-78230361D01*
X174539400Y-78277980D01*
X174634638Y-78277980D01*
X174777495Y-78230361D01*
X174825114Y-78182742D01*
X174825114Y-77849409D01*
X174634638Y-77849409D01*
X175253685Y-78277980D02*
X175253685Y-77277980D01*
X175825114Y-78277980D01*
X175825114Y-77277980D01*
X176301304Y-78277980D02*
X176301304Y-77277980D01*
X176539400Y-77277980D01*
X176682257Y-77325600D01*
X176777495Y-77420838D01*
X176825114Y-77516076D01*
X176872733Y-77706552D01*
X176872733Y-77849409D01*
X176825114Y-78039885D01*
X176777495Y-78135123D01*
X176682257Y-78230361D01*
X176539400Y-78277980D01*
X176301304Y-78277980D01*
X174640952Y-96057980D02*
X174069523Y-96057980D01*
X174355238Y-96057980D02*
X174355238Y-95057980D01*
X174260000Y-95200838D01*
X174164761Y-95296076D01*
X174069523Y-95343695D01*
X175021904Y-95153219D02*
X175069523Y-95105600D01*
X175164761Y-95057980D01*
X175402857Y-95057980D01*
X175498095Y-95105600D01*
X175545714Y-95153219D01*
X175593333Y-95248457D01*
X175593333Y-95343695D01*
X175545714Y-95486552D01*
X174974285Y-96057980D01*
X175593333Y-96057980D01*
X175879047Y-95057980D02*
X176212380Y-96057980D01*
X176545714Y-95057980D01*
X140647896Y-106344980D02*
X140647896Y-105344980D01*
X141314562Y-105344980D02*
X141505038Y-105344980D01*
X141600276Y-105392600D01*
X141695515Y-105487838D01*
X141743134Y-105678314D01*
X141743134Y-106011647D01*
X141695515Y-106202123D01*
X141600276Y-106297361D01*
X141505038Y-106344980D01*
X141314562Y-106344980D01*
X141219324Y-106297361D01*
X141124086Y-106202123D01*
X141076467Y-106011647D01*
X141076467Y-105678314D01*
X141124086Y-105487838D01*
X141219324Y-105392600D01*
X141314562Y-105344980D01*
X142362181Y-105344980D02*
X142457419Y-105344980D01*
X142552657Y-105392600D01*
X142600276Y-105440219D01*
X142647896Y-105535457D01*
X142695515Y-105725933D01*
X142695515Y-105964028D01*
X142647896Y-106154504D01*
X142600276Y-106249742D01*
X142552657Y-106297361D01*
X142457419Y-106344980D01*
X142362181Y-106344980D01*
X142266943Y-106297361D01*
X142219324Y-106249742D01*
X142171705Y-106154504D01*
X142124086Y-105964028D01*
X142124086Y-105725933D01*
X142171705Y-105535457D01*
X142219324Y-105440219D01*
X142266943Y-105392600D01*
X142362181Y-105344980D01*
X140600276Y-107932600D02*
X140505038Y-107884980D01*
X140362181Y-107884980D01*
X140219323Y-107932600D01*
X140124085Y-108027838D01*
X140076466Y-108123076D01*
X140028847Y-108313552D01*
X140028847Y-108456409D01*
X140076466Y-108646885D01*
X140124085Y-108742123D01*
X140219323Y-108837361D01*
X140362181Y-108884980D01*
X140457419Y-108884980D01*
X140600276Y-108837361D01*
X140647895Y-108789742D01*
X140647895Y-108456409D01*
X140457419Y-108456409D01*
X141076466Y-108884980D02*
X141076466Y-107884980D01*
X141647895Y-108884980D01*
X141647895Y-107884980D01*
X142124085Y-108884980D02*
X142124085Y-107884980D01*
X142362181Y-107884980D01*
X142505038Y-107932600D01*
X142600276Y-108027838D01*
X142647895Y-108123076D01*
X142695514Y-108313552D01*
X142695514Y-108456409D01*
X142647895Y-108646885D01*
X142600276Y-108742123D01*
X142505038Y-108837361D01*
X142362181Y-108884980D01*
X142124085Y-108884980D01*
X149482323Y-107884980D02*
X150101371Y-107884980D01*
X149768038Y-108265933D01*
X149910895Y-108265933D01*
X150006133Y-108313552D01*
X150053752Y-108361171D01*
X150101371Y-108456409D01*
X150101371Y-108694504D01*
X150053752Y-108789742D01*
X150006133Y-108837361D01*
X149910895Y-108884980D01*
X149625180Y-108884980D01*
X149529942Y-108837361D01*
X149482323Y-108789742D01*
X150434704Y-108218314D02*
X150672800Y-108884980D01*
X150910895Y-108218314D01*
X151196609Y-107884980D02*
X151815657Y-107884980D01*
X151482323Y-108265933D01*
X151625180Y-108265933D01*
X151720419Y-108313552D01*
X151768038Y-108361171D01*
X151815657Y-108456409D01*
X151815657Y-108694504D01*
X151768038Y-108789742D01*
X151720419Y-108837361D01*
X151625180Y-108884980D01*
X151339466Y-108884980D01*
X151244228Y-108837361D01*
X151196609Y-108789742D01*
X149577561Y-105821171D02*
X149910895Y-105821171D01*
X150053752Y-106344980D02*
X149577561Y-106344980D01*
X149577561Y-105344980D01*
X150053752Y-105344980D01*
X150482323Y-106344980D02*
X150482323Y-105344980D01*
X151053752Y-106344980D01*
X151053752Y-105344980D01*
X141743133Y-103804980D02*
X141409800Y-103328790D01*
X141171704Y-103804980D02*
X141171704Y-102804980D01*
X141552657Y-102804980D01*
X141647895Y-102852600D01*
X141695514Y-102900219D01*
X141743133Y-102995457D01*
X141743133Y-103138314D01*
X141695514Y-103233552D01*
X141647895Y-103281171D01*
X141552657Y-103328790D01*
X141171704Y-103328790D01*
X142076466Y-102804980D02*
X142743133Y-103804980D01*
X142743133Y-102804980D02*
X142076466Y-103804980D01*
X149434705Y-102804980D02*
X150006133Y-102804980D01*
X149720419Y-103804980D02*
X149720419Y-102804980D01*
X150244229Y-102804980D02*
X150910895Y-103804980D01*
X150910895Y-102804980D02*
X150244229Y-103804980D01*
D11*
X140379714Y-64216428D02*
X140451142Y-64145000D01*
X140594000Y-64073571D01*
X140951142Y-64073571D01*
X141094000Y-64145000D01*
X141165428Y-64216428D01*
X141236857Y-64359285D01*
X141236857Y-64502142D01*
X141165428Y-64716428D01*
X140308285Y-65573571D01*
X141236857Y-65573571D01*
X142165428Y-64073571D02*
X142308285Y-64073571D01*
X142451142Y-64145000D01*
X142522571Y-64216428D01*
X142594000Y-64359285D01*
X142665428Y-64645000D01*
X142665428Y-65002142D01*
X142594000Y-65287857D01*
X142522571Y-65430714D01*
X142451142Y-65502142D01*
X142308285Y-65573571D01*
X142165428Y-65573571D01*
X142022571Y-65502142D01*
X141951142Y-65430714D01*
X141879714Y-65287857D01*
X141808285Y-65002142D01*
X141808285Y-64645000D01*
X141879714Y-64359285D01*
X141951142Y-64216428D01*
X142022571Y-64145000D01*
X142165428Y-64073571D01*
X143236857Y-64216428D02*
X143308285Y-64145000D01*
X143451142Y-64073571D01*
X143808285Y-64073571D01*
X143951142Y-64145000D01*
X144022571Y-64216428D01*
X144094000Y-64359285D01*
X144094000Y-64502142D01*
X144022571Y-64716428D01*
X143165428Y-65573571D01*
X144094000Y-65573571D01*
X144665428Y-64216428D02*
X144736857Y-64145000D01*
X144879714Y-64073571D01*
X145236857Y-64073571D01*
X145379714Y-64145000D01*
X145451142Y-64216428D01*
X145522571Y-64359285D01*
X145522571Y-64502142D01*
X145451142Y-64716428D01*
X144594000Y-65573571D01*
X145522571Y-65573571D01*
X147308285Y-65573571D02*
X147308285Y-64073571D01*
X147808285Y-65145000D01*
X148308285Y-64073571D01*
X148308285Y-65573571D01*
X149022571Y-65573571D02*
X149022571Y-64573571D01*
X149022571Y-64073571D02*
X148951142Y-64145000D01*
X149022571Y-64216428D01*
X149094000Y-64145000D01*
X149022571Y-64073571D01*
X149022571Y-64216428D01*
X149736857Y-65573571D02*
X149736857Y-64073571D01*
X149879714Y-65002142D02*
X150308285Y-65573571D01*
X150308285Y-64573571D02*
X149736857Y-65145000D01*
X151522571Y-65502142D02*
X151379714Y-65573571D01*
X151094000Y-65573571D01*
X150951142Y-65502142D01*
X150879714Y-65359285D01*
X150879714Y-64787857D01*
X150951142Y-64645000D01*
X151094000Y-64573571D01*
X151379714Y-64573571D01*
X151522571Y-64645000D01*
X151594000Y-64787857D01*
X151594000Y-64930714D01*
X150879714Y-65073571D01*
X153879714Y-64787857D02*
X153379714Y-64787857D01*
X153379714Y-65573571D02*
X153379714Y-64073571D01*
X154094000Y-64073571D01*
X154665428Y-65573571D02*
X154665428Y-64573571D01*
X154665428Y-64073571D02*
X154594000Y-64145000D01*
X154665428Y-64216428D01*
X154736857Y-64145000D01*
X154665428Y-64073571D01*
X154665428Y-64216428D01*
X155379714Y-64573571D02*
X155379714Y-65573571D01*
X155379714Y-64716428D02*
X155451142Y-64645000D01*
X155594000Y-64573571D01*
X155808285Y-64573571D01*
X155951142Y-64645000D01*
X156022571Y-64787857D01*
X156022571Y-65573571D01*
X156736857Y-65573571D02*
X156736857Y-64073571D01*
X156879714Y-65002142D02*
X157308285Y-65573571D01*
X157308285Y-64573571D02*
X156736857Y-65145000D01*
X140129714Y-67988571D02*
X140129714Y-66488571D01*
X140486857Y-66488571D01*
X140701142Y-66560000D01*
X140844000Y-66702857D01*
X140915428Y-66845714D01*
X140986857Y-67131428D01*
X140986857Y-67345714D01*
X140915428Y-67631428D01*
X140844000Y-67774285D01*
X140701142Y-67917142D01*
X140486857Y-67988571D01*
X140129714Y-67988571D01*
X141486857Y-66488571D02*
X141844000Y-67988571D01*
X142129714Y-66917142D01*
X142415428Y-67988571D01*
X142772571Y-66488571D01*
X143129714Y-66488571D02*
X143986857Y-66488571D01*
X143558285Y-67988571D02*
X143558285Y-66488571D01*
X144986857Y-67202857D02*
X144486857Y-67202857D01*
X144486857Y-67988571D02*
X144486857Y-66488571D01*
X145201142Y-66488571D01*
X146058285Y-67274285D02*
X146058285Y-67988571D01*
X145558285Y-66488571D02*
X146058285Y-67274285D01*
X146558285Y-66488571D01*
X146915428Y-66488571D02*
X147272571Y-67988571D01*
X147558285Y-66917142D01*
X147844000Y-67988571D01*
X148201142Y-66488571D01*
X150629714Y-67988571D02*
X149915428Y-67988571D01*
X149915428Y-66488571D01*
X151129714Y-67988571D02*
X151129714Y-66988571D01*
X151129714Y-66488571D02*
X151058285Y-66560000D01*
X151129714Y-66631428D01*
X151201142Y-66560000D01*
X151129714Y-66488571D01*
X151129714Y-66631428D01*
X152486857Y-67917142D02*
X152344000Y-67988571D01*
X152058285Y-67988571D01*
X151915428Y-67917142D01*
X151844000Y-67845714D01*
X151772571Y-67702857D01*
X151772571Y-67274285D01*
X151844000Y-67131428D01*
X151915428Y-67060000D01*
X152058285Y-66988571D01*
X152344000Y-66988571D01*
X152486857Y-67060000D01*
X153701142Y-67917142D02*
X153558285Y-67988571D01*
X153272571Y-67988571D01*
X153129714Y-67917142D01*
X153058285Y-67774285D01*
X153058285Y-67202857D01*
X153129714Y-67060000D01*
X153272571Y-66988571D01*
X153558285Y-66988571D01*
X153701142Y-67060000D01*
X153772571Y-67202857D01*
X153772571Y-67345714D01*
X153058285Y-67488571D01*
X154415428Y-66988571D02*
X154415428Y-67988571D01*
X154415428Y-67131428D02*
X154486857Y-67060000D01*
X154629714Y-66988571D01*
X154844000Y-66988571D01*
X154986857Y-67060000D01*
X155058285Y-67202857D01*
X155058285Y-67988571D01*
X155701142Y-67917142D02*
X155844000Y-67988571D01*
X156129714Y-67988571D01*
X156272571Y-67917142D01*
X156344000Y-67774285D01*
X156344000Y-67702857D01*
X156272571Y-67560000D01*
X156129714Y-67488571D01*
X155915428Y-67488571D01*
X155772571Y-67417142D01*
X155701142Y-67274285D01*
X155701142Y-67202857D01*
X155772571Y-67060000D01*
X155915428Y-66988571D01*
X156129714Y-66988571D01*
X156272571Y-67060000D01*
X157558285Y-67917142D02*
X157415428Y-67988571D01*
X157129714Y-67988571D01*
X156986857Y-67917142D01*
X156915428Y-67774285D01*
X156915428Y-67202857D01*
X156986857Y-67060000D01*
X157129714Y-66988571D01*
X157415428Y-66988571D01*
X157558285Y-67060000D01*
X157629714Y-67202857D01*
X157629714Y-67345714D01*
X156915428Y-67488571D01*
X124736857Y-69403571D02*
X124736857Y-70617857D01*
X124665428Y-70760714D01*
X124594000Y-70832142D01*
X124451142Y-70903571D01*
X124236857Y-70903571D01*
X124094000Y-70832142D01*
X124736857Y-70332142D02*
X124594000Y-70403571D01*
X124308285Y-70403571D01*
X124165428Y-70332142D01*
X124094000Y-70260714D01*
X124022571Y-70117857D01*
X124022571Y-69689285D01*
X124094000Y-69546428D01*
X124165428Y-69475000D01*
X124308285Y-69403571D01*
X124594000Y-69403571D01*
X124736857Y-69475000D01*
X125451142Y-70403571D02*
X125451142Y-69403571D01*
X125451142Y-68903571D02*
X125379714Y-68975000D01*
X125451142Y-69046428D01*
X125522571Y-68975000D01*
X125451142Y-68903571D01*
X125451142Y-69046428D01*
X125951142Y-69403571D02*
X126522571Y-69403571D01*
X126165428Y-68903571D02*
X126165428Y-70189285D01*
X126236857Y-70332142D01*
X126379714Y-70403571D01*
X126522571Y-70403571D01*
X127022571Y-70403571D02*
X127022571Y-68903571D01*
X127665428Y-70403571D02*
X127665428Y-69617857D01*
X127594000Y-69475000D01*
X127451142Y-69403571D01*
X127236857Y-69403571D01*
X127094000Y-69475000D01*
X127022571Y-69546428D01*
X129022571Y-69403571D02*
X129022571Y-70403571D01*
X128379714Y-69403571D02*
X128379714Y-70189285D01*
X128451142Y-70332142D01*
X128594000Y-70403571D01*
X128808285Y-70403571D01*
X128951142Y-70332142D01*
X129022571Y-70260714D01*
X129736857Y-70403571D02*
X129736857Y-68903571D01*
X129736857Y-69475000D02*
X129879714Y-69403571D01*
X130165428Y-69403571D01*
X130308285Y-69475000D01*
X130379714Y-69546428D01*
X130451142Y-69689285D01*
X130451142Y-70117857D01*
X130379714Y-70260714D01*
X130308285Y-70332142D01*
X130165428Y-70403571D01*
X129879714Y-70403571D01*
X129736857Y-70332142D01*
X131094000Y-70260714D02*
X131165428Y-70332142D01*
X131094000Y-70403571D01*
X131022571Y-70332142D01*
X131094000Y-70260714D01*
X131094000Y-70403571D01*
X132451142Y-70332142D02*
X132308285Y-70403571D01*
X132022571Y-70403571D01*
X131879714Y-70332142D01*
X131808285Y-70260714D01*
X131736857Y-70117857D01*
X131736857Y-69689285D01*
X131808285Y-69546428D01*
X131879714Y-69475000D01*
X132022571Y-69403571D01*
X132308285Y-69403571D01*
X132451142Y-69475000D01*
X133308285Y-70403571D02*
X133165428Y-70332142D01*
X133094000Y-70260714D01*
X133022571Y-70117857D01*
X133022571Y-69689285D01*
X133094000Y-69546428D01*
X133165428Y-69475000D01*
X133308285Y-69403571D01*
X133522571Y-69403571D01*
X133665428Y-69475000D01*
X133736857Y-69546428D01*
X133808285Y-69689285D01*
X133808285Y-70117857D01*
X133736857Y-70260714D01*
X133665428Y-70332142D01*
X133522571Y-70403571D01*
X133308285Y-70403571D01*
X134451142Y-70403571D02*
X134451142Y-69403571D01*
X134451142Y-69546428D02*
X134522571Y-69475000D01*
X134665428Y-69403571D01*
X134879714Y-69403571D01*
X135022571Y-69475000D01*
X135094000Y-69617857D01*
X135094000Y-70403571D01*
X135094000Y-69617857D02*
X135165428Y-69475000D01*
X135308285Y-69403571D01*
X135522571Y-69403571D01*
X135665428Y-69475000D01*
X135736857Y-69617857D01*
X135736857Y-70403571D01*
X137522571Y-68832142D02*
X136236857Y-70760714D01*
X138022571Y-70403571D02*
X138022571Y-69403571D01*
X138022571Y-69546428D02*
X138094000Y-69475000D01*
X138236857Y-69403571D01*
X138451142Y-69403571D01*
X138594000Y-69475000D01*
X138665428Y-69617857D01*
X138665428Y-70403571D01*
X138665428Y-69617857D02*
X138736857Y-69475000D01*
X138879714Y-69403571D01*
X139094000Y-69403571D01*
X139236857Y-69475000D01*
X139308285Y-69617857D01*
X139308285Y-70403571D01*
X140022571Y-70403571D02*
X140022571Y-68903571D01*
X140165428Y-69832142D02*
X140594000Y-70403571D01*
X140594000Y-69403571D02*
X140022571Y-69975000D01*
X141022571Y-69403571D02*
X141594000Y-69403571D01*
X141236857Y-70403571D02*
X141236857Y-69117857D01*
X141308285Y-68975000D01*
X141451142Y-68903571D01*
X141594000Y-68903571D01*
X142094000Y-70403571D02*
X142094000Y-69403571D01*
X142094000Y-68903571D02*
X142022571Y-68975000D01*
X142094000Y-69046428D01*
X142165428Y-68975000D01*
X142094000Y-68903571D01*
X142094000Y-69046428D01*
X142808285Y-69403571D02*
X142808285Y-70403571D01*
X142808285Y-69546428D02*
X142879714Y-69475000D01*
X143022571Y-69403571D01*
X143236857Y-69403571D01*
X143379714Y-69475000D01*
X143451142Y-69617857D01*
X143451142Y-70403571D01*
X144165428Y-70403571D02*
X144165428Y-68903571D01*
X144308285Y-69832142D02*
X144736857Y-70403571D01*
X144736857Y-69403571D02*
X144165428Y-69975000D01*
X146451142Y-68832142D02*
X145165428Y-70760714D01*
X147522571Y-70332142D02*
X147379714Y-70403571D01*
X147094000Y-70403571D01*
X146951142Y-70332142D01*
X146879714Y-70189285D01*
X146879714Y-69617857D01*
X146951142Y-69475000D01*
X147094000Y-69403571D01*
X147379714Y-69403571D01*
X147522571Y-69475000D01*
X147594000Y-69617857D01*
X147594000Y-69760714D01*
X146879714Y-69903571D01*
X148165428Y-70332142D02*
X148308285Y-70403571D01*
X148594000Y-70403571D01*
X148736857Y-70332142D01*
X148808285Y-70189285D01*
X148808285Y-70117857D01*
X148736857Y-69975000D01*
X148594000Y-69903571D01*
X148379714Y-69903571D01*
X148236857Y-69832142D01*
X148165428Y-69689285D01*
X148165428Y-69617857D01*
X148236857Y-69475000D01*
X148379714Y-69403571D01*
X148594000Y-69403571D01*
X148736857Y-69475000D01*
X149451142Y-69403571D02*
X149451142Y-70903571D01*
X149451142Y-69475000D02*
X149594000Y-69403571D01*
X149879714Y-69403571D01*
X150022571Y-69475000D01*
X150094000Y-69546428D01*
X150165428Y-69689285D01*
X150165428Y-70117857D01*
X150094000Y-70260714D01*
X150022571Y-70332142D01*
X149879714Y-70403571D01*
X149594000Y-70403571D01*
X149451142Y-70332142D01*
X150665428Y-68903571D02*
X151594000Y-68903571D01*
X151094000Y-69475000D01*
X151308285Y-69475000D01*
X151451142Y-69546428D01*
X151522571Y-69617857D01*
X151594000Y-69760714D01*
X151594000Y-70117857D01*
X151522571Y-70260714D01*
X151451142Y-70332142D01*
X151308285Y-70403571D01*
X150879714Y-70403571D01*
X150736857Y-70332142D01*
X150665428Y-70260714D01*
X152165428Y-69046428D02*
X152236857Y-68975000D01*
X152379714Y-68903571D01*
X152736857Y-68903571D01*
X152879714Y-68975000D01*
X152951142Y-69046428D01*
X153022571Y-69189285D01*
X153022571Y-69332142D01*
X152951142Y-69546428D01*
X152094000Y-70403571D01*
X153022571Y-70403571D01*
X153665428Y-69832142D02*
X154808285Y-69832142D01*
X156308285Y-70403571D02*
X155451142Y-70403571D01*
X155879714Y-70403571D02*
X155879714Y-68903571D01*
X155736857Y-69117857D01*
X155594000Y-69260714D01*
X155451142Y-69332142D01*
X157236857Y-68903571D02*
X157379714Y-68903571D01*
X157522571Y-68975000D01*
X157594000Y-69046428D01*
X157665428Y-69189285D01*
X157736857Y-69475000D01*
X157736857Y-69832142D01*
X157665428Y-70117857D01*
X157594000Y-70260714D01*
X157522571Y-70332142D01*
X157379714Y-70403571D01*
X157236857Y-70403571D01*
X157094000Y-70332142D01*
X157022571Y-70260714D01*
X156951142Y-70117857D01*
X156879714Y-69832142D01*
X156879714Y-69475000D01*
X156951142Y-69189285D01*
X157022571Y-69046428D01*
X157094000Y-68975000D01*
X157236857Y-68903571D01*
X158379714Y-69832142D02*
X159522571Y-69832142D01*
X160879714Y-70332142D02*
X160736857Y-70403571D01*
X160451142Y-70403571D01*
X160308285Y-70332142D01*
X160236857Y-70260714D01*
X160165428Y-70117857D01*
X160165428Y-69689285D01*
X160236857Y-69546428D01*
X160308285Y-69475000D01*
X160451142Y-69403571D01*
X160736857Y-69403571D01*
X160879714Y-69475000D01*
X161522571Y-70403571D02*
X161522571Y-68903571D01*
X162165428Y-70403571D02*
X162165428Y-69617857D01*
X162094000Y-69475000D01*
X161951142Y-69403571D01*
X161736857Y-69403571D01*
X161594000Y-69475000D01*
X161522571Y-69546428D01*
X163522571Y-70403571D02*
X163522571Y-69617857D01*
X163451142Y-69475000D01*
X163308285Y-69403571D01*
X163022571Y-69403571D01*
X162879714Y-69475000D01*
X163522571Y-70332142D02*
X163379714Y-70403571D01*
X163022571Y-70403571D01*
X162879714Y-70332142D01*
X162808285Y-70189285D01*
X162808285Y-70046428D01*
X162879714Y-69903571D01*
X163022571Y-69832142D01*
X163379714Y-69832142D01*
X163522571Y-69760714D01*
X164236857Y-69403571D02*
X164236857Y-70403571D01*
X164236857Y-69546428D02*
X164308285Y-69475000D01*
X164451142Y-69403571D01*
X164665428Y-69403571D01*
X164808285Y-69475000D01*
X164879714Y-69617857D01*
X164879714Y-70403571D01*
X165594000Y-69403571D02*
X165594000Y-70403571D01*
X165594000Y-69546428D02*
X165665428Y-69475000D01*
X165808285Y-69403571D01*
X166022571Y-69403571D01*
X166165428Y-69475000D01*
X166236857Y-69617857D01*
X166236857Y-70403571D01*
X167522571Y-70332142D02*
X167379714Y-70403571D01*
X167094000Y-70403571D01*
X166951142Y-70332142D01*
X166879714Y-70189285D01*
X166879714Y-69617857D01*
X166951142Y-69475000D01*
X167094000Y-69403571D01*
X167379714Y-69403571D01*
X167522571Y-69475000D01*
X167594000Y-69617857D01*
X167594000Y-69760714D01*
X166879714Y-69903571D01*
X168451142Y-70403571D02*
X168308285Y-70332142D01*
X168236857Y-70189285D01*
X168236857Y-68903571D01*
X169022571Y-69832142D02*
X170165428Y-69832142D01*
X171094000Y-70403571D02*
X170951142Y-70332142D01*
X170879714Y-70189285D01*
X170879714Y-68903571D01*
X172236857Y-70332142D02*
X172094000Y-70403571D01*
X171808285Y-70403571D01*
X171665428Y-70332142D01*
X171594000Y-70189285D01*
X171594000Y-69617857D01*
X171665428Y-69475000D01*
X171808285Y-69403571D01*
X172094000Y-69403571D01*
X172236857Y-69475000D01*
X172308285Y-69617857D01*
X172308285Y-69760714D01*
X171594000Y-69903571D01*
X173594000Y-70403571D02*
X173594000Y-68903571D01*
X173594000Y-70332142D02*
X173451142Y-70403571D01*
X173165428Y-70403571D01*
X173022571Y-70332142D01*
X172951142Y-70260714D01*
X172879714Y-70117857D01*
X172879714Y-69689285D01*
X172951142Y-69546428D01*
X173022571Y-69475000D01*
X173165428Y-69403571D01*
X173451142Y-69403571D01*
X173594000Y-69475000D01*
D10*
%TO.C,U1*%
X127919171Y-129342209D02*
X127919171Y-129008876D01*
X128442980Y-128866019D02*
X128442980Y-129342209D01*
X127442980Y-129342209D01*
X127442980Y-128866019D01*
X128395361Y-128485066D02*
X128442980Y-128342209D01*
X128442980Y-128104114D01*
X128395361Y-128008876D01*
X128347742Y-127961257D01*
X128252504Y-127913638D01*
X128157266Y-127913638D01*
X128062028Y-127961257D01*
X128014409Y-128008876D01*
X127966790Y-128104114D01*
X127919171Y-128294590D01*
X127871552Y-128389828D01*
X127823933Y-128437447D01*
X127728695Y-128485066D01*
X127633457Y-128485066D01*
X127538219Y-128437447D01*
X127490600Y-128389828D01*
X127442980Y-128294590D01*
X127442980Y-128056495D01*
X127490600Y-127913638D01*
X128442980Y-127485066D02*
X127442980Y-127485066D01*
X127442980Y-127104114D01*
X127490600Y-127008876D01*
X127538219Y-126961257D01*
X127633457Y-126913638D01*
X127776314Y-126913638D01*
X127871552Y-126961257D01*
X127919171Y-127008876D01*
X127966790Y-127104114D01*
X127966790Y-127485066D01*
X127442980Y-126580304D02*
X127442980Y-125961257D01*
X127823933Y-126294590D01*
X127823933Y-126151733D01*
X127871552Y-126056495D01*
X127919171Y-126008876D01*
X128014409Y-125961257D01*
X128252504Y-125961257D01*
X128347742Y-126008876D01*
X128395361Y-126056495D01*
X128442980Y-126151733D01*
X128442980Y-126437447D01*
X128395361Y-126532685D01*
X128347742Y-126580304D01*
X127538219Y-125580304D02*
X127490600Y-125532685D01*
X127442980Y-125437447D01*
X127442980Y-125199352D01*
X127490600Y-125104114D01*
X127538219Y-125056495D01*
X127633457Y-125008876D01*
X127728695Y-125008876D01*
X127871552Y-125056495D01*
X128442980Y-125627923D01*
X128442980Y-125008876D01*
X128062028Y-124580304D02*
X128062028Y-123818400D01*
X127442980Y-123437447D02*
X128442980Y-123199352D01*
X127728695Y-123008876D01*
X128442980Y-122818400D01*
X127442980Y-122580304D01*
X128442980Y-121627923D02*
X127966790Y-121961257D01*
X128442980Y-122199352D02*
X127442980Y-122199352D01*
X127442980Y-121818400D01*
X127490600Y-121723161D01*
X127538219Y-121675542D01*
X127633457Y-121627923D01*
X127776314Y-121627923D01*
X127871552Y-121675542D01*
X127919171Y-121723161D01*
X127966790Y-121818400D01*
X127966790Y-122199352D01*
X127442980Y-121008876D02*
X127442980Y-120818400D01*
X127490600Y-120723161D01*
X127585838Y-120627923D01*
X127776314Y-120580304D01*
X128109647Y-120580304D01*
X128300123Y-120627923D01*
X128395361Y-120723161D01*
X128442980Y-120818400D01*
X128442980Y-121008876D01*
X128395361Y-121104114D01*
X128300123Y-121199352D01*
X128109647Y-121246971D01*
X127776314Y-121246971D01*
X127585838Y-121199352D01*
X127490600Y-121104114D01*
X127442980Y-121008876D01*
X127442980Y-119961257D02*
X127442980Y-119770780D01*
X127490600Y-119675542D01*
X127585838Y-119580304D01*
X127776314Y-119532685D01*
X128109647Y-119532685D01*
X128300123Y-119580304D01*
X128395361Y-119675542D01*
X128442980Y-119770780D01*
X128442980Y-119961257D01*
X128395361Y-120056495D01*
X128300123Y-120151733D01*
X128109647Y-120199352D01*
X127776314Y-120199352D01*
X127585838Y-120151733D01*
X127490600Y-120056495D01*
X127442980Y-119961257D01*
X128442980Y-119104114D02*
X127442980Y-119104114D01*
X128157266Y-118770780D01*
X127442980Y-118437447D01*
X128442980Y-118437447D01*
X128062028Y-117961257D02*
X128062028Y-117199352D01*
X127442980Y-116818400D02*
X127442980Y-116199352D01*
X127823933Y-116532685D01*
X127823933Y-116389828D01*
X127871552Y-116294590D01*
X127919171Y-116246971D01*
X128014409Y-116199352D01*
X128252504Y-116199352D01*
X128347742Y-116246971D01*
X128395361Y-116294590D01*
X128442980Y-116389828D01*
X128442980Y-116675542D01*
X128395361Y-116770780D01*
X128347742Y-116818400D01*
X127538219Y-115818400D02*
X127490600Y-115770780D01*
X127442980Y-115675542D01*
X127442980Y-115437447D01*
X127490600Y-115342209D01*
X127538219Y-115294590D01*
X127633457Y-115246971D01*
X127728695Y-115246971D01*
X127871552Y-115294590D01*
X128442980Y-115866019D01*
X128442980Y-115246971D01*
X128442980Y-114818400D02*
X127442980Y-114818400D01*
X127442980Y-114580304D01*
X127490600Y-114437447D01*
X127585838Y-114342209D01*
X127681076Y-114294590D01*
X127871552Y-114246971D01*
X128014409Y-114246971D01*
X128204885Y-114294590D01*
X128300123Y-114342209D01*
X128395361Y-114437447D01*
X128442980Y-114580304D01*
X128442980Y-114818400D01*
%TO.C,12V*%
X161890152Y-103012780D02*
X161318723Y-103012780D01*
X161604438Y-103012780D02*
X161604438Y-102012780D01*
X161509200Y-102155638D01*
X161413961Y-102250876D01*
X161318723Y-102298495D01*
X162271104Y-102108019D02*
X162318723Y-102060400D01*
X162413961Y-102012780D01*
X162652057Y-102012780D01*
X162747295Y-102060400D01*
X162794914Y-102108019D01*
X162842533Y-102203257D01*
X162842533Y-102298495D01*
X162794914Y-102441352D01*
X162223485Y-103012780D01*
X162842533Y-103012780D01*
X163128247Y-102012780D02*
X163461580Y-103012780D01*
X163794914Y-102012780D01*
%TO.C,LED10-GPIO27*%
X180090780Y-75743771D02*
X180090780Y-76219961D01*
X179090780Y-76219961D01*
X179566971Y-75410438D02*
X179566971Y-75077104D01*
X180090780Y-74934247D02*
X180090780Y-75410438D01*
X179090780Y-75410438D01*
X179090780Y-74934247D01*
X180090780Y-74505676D02*
X179090780Y-74505676D01*
X179090780Y-74267580D01*
X179138400Y-74124723D01*
X179233638Y-74029485D01*
X179328876Y-73981866D01*
X179519352Y-73934247D01*
X179662209Y-73934247D01*
X179852685Y-73981866D01*
X179947923Y-74029485D01*
X180043161Y-74124723D01*
X180090780Y-74267580D01*
X180090780Y-74505676D01*
X180090780Y-72981866D02*
X180090780Y-73553295D01*
X180090780Y-73267580D02*
X179090780Y-73267580D01*
X179233638Y-73362819D01*
X179328876Y-73458057D01*
X179376495Y-73553295D01*
X179090780Y-72362819D02*
X179090780Y-72267580D01*
X179138400Y-72172342D01*
X179186019Y-72124723D01*
X179281257Y-72077104D01*
X179471733Y-72029485D01*
X179709828Y-72029485D01*
X179900304Y-72077104D01*
X179995542Y-72124723D01*
X180043161Y-72172342D01*
X180090780Y-72267580D01*
X180090780Y-72362819D01*
X180043161Y-72458057D01*
X179995542Y-72505676D01*
X179900304Y-72553295D01*
X179709828Y-72600914D01*
X179471733Y-72600914D01*
X179281257Y-72553295D01*
X179186019Y-72505676D01*
X179138400Y-72458057D01*
X179090780Y-72362819D01*
X179709828Y-71600914D02*
X179709828Y-70839009D01*
X179138400Y-69839009D02*
X179090780Y-69934247D01*
X179090780Y-70077104D01*
X179138400Y-70219961D01*
X179233638Y-70315200D01*
X179328876Y-70362819D01*
X179519352Y-70410438D01*
X179662209Y-70410438D01*
X179852685Y-70362819D01*
X179947923Y-70315200D01*
X180043161Y-70219961D01*
X180090780Y-70077104D01*
X180090780Y-69981866D01*
X180043161Y-69839009D01*
X179995542Y-69791390D01*
X179662209Y-69791390D01*
X179662209Y-69981866D01*
X180090780Y-69362819D02*
X179090780Y-69362819D01*
X179090780Y-68981866D01*
X179138400Y-68886628D01*
X179186019Y-68839009D01*
X179281257Y-68791390D01*
X179424114Y-68791390D01*
X179519352Y-68839009D01*
X179566971Y-68886628D01*
X179614590Y-68981866D01*
X179614590Y-69362819D01*
X180090780Y-68362819D02*
X179090780Y-68362819D01*
X179090780Y-67696152D02*
X179090780Y-67505676D01*
X179138400Y-67410438D01*
X179233638Y-67315200D01*
X179424114Y-67267580D01*
X179757447Y-67267580D01*
X179947923Y-67315200D01*
X180043161Y-67410438D01*
X180090780Y-67505676D01*
X180090780Y-67696152D01*
X180043161Y-67791390D01*
X179947923Y-67886628D01*
X179757447Y-67934247D01*
X179424114Y-67934247D01*
X179233638Y-67886628D01*
X179138400Y-67791390D01*
X179090780Y-67696152D01*
X179186019Y-66886628D02*
X179138400Y-66839009D01*
X179090780Y-66743771D01*
X179090780Y-66505676D01*
X179138400Y-66410438D01*
X179186019Y-66362819D01*
X179281257Y-66315200D01*
X179376495Y-66315200D01*
X179519352Y-66362819D01*
X180090780Y-66934247D01*
X180090780Y-66315200D01*
X179090780Y-65981866D02*
X179090780Y-65315200D01*
X180090780Y-65743771D01*
%TO.C, *%
%TO.C,LED1-GPIO4*%
X117693580Y-74477390D02*
X117693580Y-74953580D01*
X116693580Y-74953580D01*
X117169771Y-74144057D02*
X117169771Y-73810723D01*
X117693580Y-73667866D02*
X117693580Y-74144057D01*
X116693580Y-74144057D01*
X116693580Y-73667866D01*
X117693580Y-73239295D02*
X116693580Y-73239295D01*
X116693580Y-73001200D01*
X116741200Y-72858342D01*
X116836438Y-72763104D01*
X116931676Y-72715485D01*
X117122152Y-72667866D01*
X117265009Y-72667866D01*
X117455485Y-72715485D01*
X117550723Y-72763104D01*
X117645961Y-72858342D01*
X117693580Y-73001200D01*
X117693580Y-73239295D01*
X117693580Y-71715485D02*
X117693580Y-72286914D01*
X117693580Y-72001200D02*
X116693580Y-72001200D01*
X116836438Y-72096438D01*
X116931676Y-72191676D01*
X116979295Y-72286914D01*
X117312628Y-71286914D02*
X117312628Y-70525009D01*
X116741200Y-69525009D02*
X116693580Y-69620247D01*
X116693580Y-69763104D01*
X116741200Y-69905961D01*
X116836438Y-70001200D01*
X116931676Y-70048819D01*
X117122152Y-70096438D01*
X117265009Y-70096438D01*
X117455485Y-70048819D01*
X117550723Y-70001200D01*
X117645961Y-69905961D01*
X117693580Y-69763104D01*
X117693580Y-69667866D01*
X117645961Y-69525009D01*
X117598342Y-69477390D01*
X117265009Y-69477390D01*
X117265009Y-69667866D01*
X117693580Y-69048819D02*
X116693580Y-69048819D01*
X116693580Y-68667866D01*
X116741200Y-68572628D01*
X116788819Y-68525009D01*
X116884057Y-68477390D01*
X117026914Y-68477390D01*
X117122152Y-68525009D01*
X117169771Y-68572628D01*
X117217390Y-68667866D01*
X117217390Y-69048819D01*
X117693580Y-68048819D02*
X116693580Y-68048819D01*
X116693580Y-67382152D02*
X116693580Y-67191676D01*
X116741200Y-67096438D01*
X116836438Y-67001200D01*
X117026914Y-66953580D01*
X117360247Y-66953580D01*
X117550723Y-67001200D01*
X117645961Y-67096438D01*
X117693580Y-67191676D01*
X117693580Y-67382152D01*
X117645961Y-67477390D01*
X117550723Y-67572628D01*
X117360247Y-67620247D01*
X117026914Y-67620247D01*
X116836438Y-67572628D01*
X116741200Y-67477390D01*
X116693580Y-67382152D01*
X117026914Y-66096438D02*
X117693580Y-66096438D01*
X116645961Y-66334533D02*
X117360247Y-66572628D01*
X117360247Y-65953580D01*
%TO.C,LED3-GPIO17*%
X117693580Y-106728980D02*
X117693580Y-107205171D01*
X116693580Y-107205171D01*
X117169771Y-106395647D02*
X117169771Y-106062314D01*
X117693580Y-105919457D02*
X117693580Y-106395647D01*
X116693580Y-106395647D01*
X116693580Y-105919457D01*
X117693580Y-105490885D02*
X116693580Y-105490885D01*
X116693580Y-105252790D01*
X116741200Y-105109933D01*
X116836438Y-105014695D01*
X116931676Y-104967076D01*
X117122152Y-104919457D01*
X117265009Y-104919457D01*
X117455485Y-104967076D01*
X117550723Y-105014695D01*
X117645961Y-105109933D01*
X117693580Y-105252790D01*
X117693580Y-105490885D01*
X116693580Y-104586123D02*
X116693580Y-103967076D01*
X117074533Y-104300409D01*
X117074533Y-104157552D01*
X117122152Y-104062314D01*
X117169771Y-104014695D01*
X117265009Y-103967076D01*
X117503104Y-103967076D01*
X117598342Y-104014695D01*
X117645961Y-104062314D01*
X117693580Y-104157552D01*
X117693580Y-104443266D01*
X117645961Y-104538504D01*
X117598342Y-104586123D01*
X117312628Y-103538504D02*
X117312628Y-102776600D01*
X116741200Y-101776600D02*
X116693580Y-101871838D01*
X116693580Y-102014695D01*
X116741200Y-102157552D01*
X116836438Y-102252790D01*
X116931676Y-102300409D01*
X117122152Y-102348028D01*
X117265009Y-102348028D01*
X117455485Y-102300409D01*
X117550723Y-102252790D01*
X117645961Y-102157552D01*
X117693580Y-102014695D01*
X117693580Y-101919457D01*
X117645961Y-101776600D01*
X117598342Y-101728980D01*
X117265009Y-101728980D01*
X117265009Y-101919457D01*
X117693580Y-101300409D02*
X116693580Y-101300409D01*
X116693580Y-100919457D01*
X116741200Y-100824219D01*
X116788819Y-100776600D01*
X116884057Y-100728980D01*
X117026914Y-100728980D01*
X117122152Y-100776600D01*
X117169771Y-100824219D01*
X117217390Y-100919457D01*
X117217390Y-101300409D01*
X117693580Y-100300409D02*
X116693580Y-100300409D01*
X116693580Y-99633742D02*
X116693580Y-99443266D01*
X116741200Y-99348028D01*
X116836438Y-99252790D01*
X117026914Y-99205171D01*
X117360247Y-99205171D01*
X117550723Y-99252790D01*
X117645961Y-99348028D01*
X117693580Y-99443266D01*
X117693580Y-99633742D01*
X117645961Y-99728980D01*
X117550723Y-99824219D01*
X117360247Y-99871838D01*
X117026914Y-99871838D01*
X116836438Y-99824219D01*
X116741200Y-99728980D01*
X116693580Y-99633742D01*
X117693580Y-98252790D02*
X117693580Y-98824219D01*
X117693580Y-98538504D02*
X116693580Y-98538504D01*
X116836438Y-98633742D01*
X116931676Y-98728980D01*
X116979295Y-98824219D01*
X116693580Y-97919457D02*
X116693580Y-97252790D01*
X117693580Y-97681361D01*
%TO.C,U2*%
X149352095Y-98867980D02*
X149352095Y-99677504D01*
X149399714Y-99772742D01*
X149447333Y-99820361D01*
X149542571Y-99867980D01*
X149733047Y-99867980D01*
X149828285Y-99820361D01*
X149875904Y-99772742D01*
X149923523Y-99677504D01*
X149923523Y-98867980D01*
X150352095Y-98963219D02*
X150399714Y-98915600D01*
X150494952Y-98867980D01*
X150733047Y-98867980D01*
X150828285Y-98915600D01*
X150875904Y-98963219D01*
X150923523Y-99058457D01*
X150923523Y-99153695D01*
X150875904Y-99296552D01*
X150304476Y-99867980D01*
X150923523Y-99867980D01*
%TO.C,LED6-GPIO32*%
X180090780Y-138818380D02*
X180090780Y-139294571D01*
X179090780Y-139294571D01*
X179566971Y-138485047D02*
X179566971Y-138151714D01*
X180090780Y-138008857D02*
X180090780Y-138485047D01*
X179090780Y-138485047D01*
X179090780Y-138008857D01*
X180090780Y-137580285D02*
X179090780Y-137580285D01*
X179090780Y-137342190D01*
X179138400Y-137199333D01*
X179233638Y-137104095D01*
X179328876Y-137056476D01*
X179519352Y-137008857D01*
X179662209Y-137008857D01*
X179852685Y-137056476D01*
X179947923Y-137104095D01*
X180043161Y-137199333D01*
X180090780Y-137342190D01*
X180090780Y-137580285D01*
X179090780Y-136151714D02*
X179090780Y-136342190D01*
X179138400Y-136437428D01*
X179186019Y-136485047D01*
X179328876Y-136580285D01*
X179519352Y-136627904D01*
X179900304Y-136627904D01*
X179995542Y-136580285D01*
X180043161Y-136532666D01*
X180090780Y-136437428D01*
X180090780Y-136246952D01*
X180043161Y-136151714D01*
X179995542Y-136104095D01*
X179900304Y-136056476D01*
X179662209Y-136056476D01*
X179566971Y-136104095D01*
X179519352Y-136151714D01*
X179471733Y-136246952D01*
X179471733Y-136437428D01*
X179519352Y-136532666D01*
X179566971Y-136580285D01*
X179662209Y-136627904D01*
X179709828Y-135627904D02*
X179709828Y-134866000D01*
X179138400Y-133866000D02*
X179090780Y-133961238D01*
X179090780Y-134104095D01*
X179138400Y-134246952D01*
X179233638Y-134342190D01*
X179328876Y-134389809D01*
X179519352Y-134437428D01*
X179662209Y-134437428D01*
X179852685Y-134389809D01*
X179947923Y-134342190D01*
X180043161Y-134246952D01*
X180090780Y-134104095D01*
X180090780Y-134008857D01*
X180043161Y-133866000D01*
X179995542Y-133818380D01*
X179662209Y-133818380D01*
X179662209Y-134008857D01*
X180090780Y-133389809D02*
X179090780Y-133389809D01*
X179090780Y-133008857D01*
X179138400Y-132913619D01*
X179186019Y-132866000D01*
X179281257Y-132818380D01*
X179424114Y-132818380D01*
X179519352Y-132866000D01*
X179566971Y-132913619D01*
X179614590Y-133008857D01*
X179614590Y-133389809D01*
X180090780Y-132389809D02*
X179090780Y-132389809D01*
X179090780Y-131723142D02*
X179090780Y-131532666D01*
X179138400Y-131437428D01*
X179233638Y-131342190D01*
X179424114Y-131294571D01*
X179757447Y-131294571D01*
X179947923Y-131342190D01*
X180043161Y-131437428D01*
X180090780Y-131532666D01*
X180090780Y-131723142D01*
X180043161Y-131818380D01*
X179947923Y-131913619D01*
X179757447Y-131961238D01*
X179424114Y-131961238D01*
X179233638Y-131913619D01*
X179138400Y-131818380D01*
X179090780Y-131723142D01*
X179090780Y-130961238D02*
X179090780Y-130342190D01*
X179471733Y-130675523D01*
X179471733Y-130532666D01*
X179519352Y-130437428D01*
X179566971Y-130389809D01*
X179662209Y-130342190D01*
X179900304Y-130342190D01*
X179995542Y-130389809D01*
X180043161Y-130437428D01*
X180090780Y-130532666D01*
X180090780Y-130818380D01*
X180043161Y-130913619D01*
X179995542Y-130961238D01*
X179186019Y-129961238D02*
X179138400Y-129913619D01*
X179090780Y-129818380D01*
X179090780Y-129580285D01*
X179138400Y-129485047D01*
X179186019Y-129437428D01*
X179281257Y-129389809D01*
X179376495Y-129389809D01*
X179519352Y-129437428D01*
X180090780Y-130008857D01*
X180090780Y-129389809D01*
%TO.C, *%
%TO.C,LED2-GPIO16*%
X117693580Y-90841280D02*
X117693580Y-91317471D01*
X116693580Y-91317471D01*
X117169771Y-90507947D02*
X117169771Y-90174614D01*
X117693580Y-90031757D02*
X117693580Y-90507947D01*
X116693580Y-90507947D01*
X116693580Y-90031757D01*
X117693580Y-89603185D02*
X116693580Y-89603185D01*
X116693580Y-89365090D01*
X116741200Y-89222233D01*
X116836438Y-89126995D01*
X116931676Y-89079376D01*
X117122152Y-89031757D01*
X117265009Y-89031757D01*
X117455485Y-89079376D01*
X117550723Y-89126995D01*
X117645961Y-89222233D01*
X117693580Y-89365090D01*
X117693580Y-89603185D01*
X116788819Y-88650804D02*
X116741200Y-88603185D01*
X116693580Y-88507947D01*
X116693580Y-88269852D01*
X116741200Y-88174614D01*
X116788819Y-88126995D01*
X116884057Y-88079376D01*
X116979295Y-88079376D01*
X117122152Y-88126995D01*
X117693580Y-88698423D01*
X117693580Y-88079376D01*
X117312628Y-87650804D02*
X117312628Y-86888900D01*
X116741200Y-85888900D02*
X116693580Y-85984138D01*
X116693580Y-86126995D01*
X116741200Y-86269852D01*
X116836438Y-86365090D01*
X116931676Y-86412709D01*
X117122152Y-86460328D01*
X117265009Y-86460328D01*
X117455485Y-86412709D01*
X117550723Y-86365090D01*
X117645961Y-86269852D01*
X117693580Y-86126995D01*
X117693580Y-86031757D01*
X117645961Y-85888900D01*
X117598342Y-85841280D01*
X117265009Y-85841280D01*
X117265009Y-86031757D01*
X117693580Y-85412709D02*
X116693580Y-85412709D01*
X116693580Y-85031757D01*
X116741200Y-84936519D01*
X116788819Y-84888900D01*
X116884057Y-84841280D01*
X117026914Y-84841280D01*
X117122152Y-84888900D01*
X117169771Y-84936519D01*
X117217390Y-85031757D01*
X117217390Y-85412709D01*
X117693580Y-84412709D02*
X116693580Y-84412709D01*
X116693580Y-83746042D02*
X116693580Y-83555566D01*
X116741200Y-83460328D01*
X116836438Y-83365090D01*
X117026914Y-83317471D01*
X117360247Y-83317471D01*
X117550723Y-83365090D01*
X117645961Y-83460328D01*
X117693580Y-83555566D01*
X117693580Y-83746042D01*
X117645961Y-83841280D01*
X117550723Y-83936519D01*
X117360247Y-83984138D01*
X117026914Y-83984138D01*
X116836438Y-83936519D01*
X116741200Y-83841280D01*
X116693580Y-83746042D01*
X117693580Y-82365090D02*
X117693580Y-82936519D01*
X117693580Y-82650804D02*
X116693580Y-82650804D01*
X116836438Y-82746042D01*
X116931676Y-82841280D01*
X116979295Y-82936519D01*
X116693580Y-81507947D02*
X116693580Y-81698423D01*
X116741200Y-81793661D01*
X116788819Y-81841280D01*
X116931676Y-81936519D01*
X117122152Y-81984138D01*
X117503104Y-81984138D01*
X117598342Y-81936519D01*
X117645961Y-81888900D01*
X117693580Y-81793661D01*
X117693580Y-81603185D01*
X117645961Y-81507947D01*
X117598342Y-81460328D01*
X117503104Y-81412709D01*
X117265009Y-81412709D01*
X117169771Y-81460328D01*
X117122152Y-81507947D01*
X117074533Y-81603185D01*
X117074533Y-81793661D01*
X117122152Y-81888900D01*
X117169771Y-81936519D01*
X117265009Y-81984138D01*
%TO.C,GND*%
X170253295Y-102060400D02*
X170158057Y-102012780D01*
X170015200Y-102012780D01*
X169872342Y-102060400D01*
X169777104Y-102155638D01*
X169729485Y-102250876D01*
X169681866Y-102441352D01*
X169681866Y-102584209D01*
X169729485Y-102774685D01*
X169777104Y-102869923D01*
X169872342Y-102965161D01*
X170015200Y-103012780D01*
X170110438Y-103012780D01*
X170253295Y-102965161D01*
X170300914Y-102917542D01*
X170300914Y-102584209D01*
X170110438Y-102584209D01*
X170729485Y-103012780D02*
X170729485Y-102012780D01*
X171300914Y-103012780D01*
X171300914Y-102012780D01*
X171777104Y-103012780D02*
X171777104Y-102012780D01*
X172015200Y-102012780D01*
X172158057Y-102060400D01*
X172253295Y-102155638D01*
X172300914Y-102250876D01*
X172348533Y-102441352D01*
X172348533Y-102584209D01*
X172300914Y-102774685D01*
X172253295Y-102869923D01*
X172158057Y-102965161D01*
X172015200Y-103012780D01*
X171777104Y-103012780D01*
%TO.C,LED9-GPIO26*%
X180090780Y-91155280D02*
X180090780Y-91631471D01*
X179090780Y-91631471D01*
X179566971Y-90821947D02*
X179566971Y-90488614D01*
X180090780Y-90345757D02*
X180090780Y-90821947D01*
X179090780Y-90821947D01*
X179090780Y-90345757D01*
X180090780Y-89917185D02*
X179090780Y-89917185D01*
X179090780Y-89679090D01*
X179138400Y-89536233D01*
X179233638Y-89440995D01*
X179328876Y-89393376D01*
X179519352Y-89345757D01*
X179662209Y-89345757D01*
X179852685Y-89393376D01*
X179947923Y-89440995D01*
X180043161Y-89536233D01*
X180090780Y-89679090D01*
X180090780Y-89917185D01*
X180090780Y-88869566D02*
X180090780Y-88679090D01*
X180043161Y-88583852D01*
X179995542Y-88536233D01*
X179852685Y-88440995D01*
X179662209Y-88393376D01*
X179281257Y-88393376D01*
X179186019Y-88440995D01*
X179138400Y-88488614D01*
X179090780Y-88583852D01*
X179090780Y-88774328D01*
X179138400Y-88869566D01*
X179186019Y-88917185D01*
X179281257Y-88964804D01*
X179519352Y-88964804D01*
X179614590Y-88917185D01*
X179662209Y-88869566D01*
X179709828Y-88774328D01*
X179709828Y-88583852D01*
X179662209Y-88488614D01*
X179614590Y-88440995D01*
X179519352Y-88393376D01*
X179709828Y-87964804D02*
X179709828Y-87202900D01*
X179138400Y-86202900D02*
X179090780Y-86298138D01*
X179090780Y-86440995D01*
X179138400Y-86583852D01*
X179233638Y-86679090D01*
X179328876Y-86726709D01*
X179519352Y-86774328D01*
X179662209Y-86774328D01*
X179852685Y-86726709D01*
X179947923Y-86679090D01*
X180043161Y-86583852D01*
X180090780Y-86440995D01*
X180090780Y-86345757D01*
X180043161Y-86202900D01*
X179995542Y-86155280D01*
X179662209Y-86155280D01*
X179662209Y-86345757D01*
X180090780Y-85726709D02*
X179090780Y-85726709D01*
X179090780Y-85345757D01*
X179138400Y-85250519D01*
X179186019Y-85202900D01*
X179281257Y-85155280D01*
X179424114Y-85155280D01*
X179519352Y-85202900D01*
X179566971Y-85250519D01*
X179614590Y-85345757D01*
X179614590Y-85726709D01*
X180090780Y-84726709D02*
X179090780Y-84726709D01*
X179090780Y-84060042D02*
X179090780Y-83869566D01*
X179138400Y-83774328D01*
X179233638Y-83679090D01*
X179424114Y-83631471D01*
X179757447Y-83631471D01*
X179947923Y-83679090D01*
X180043161Y-83774328D01*
X180090780Y-83869566D01*
X180090780Y-84060042D01*
X180043161Y-84155280D01*
X179947923Y-84250519D01*
X179757447Y-84298138D01*
X179424114Y-84298138D01*
X179233638Y-84250519D01*
X179138400Y-84155280D01*
X179090780Y-84060042D01*
X179186019Y-83250519D02*
X179138400Y-83202900D01*
X179090780Y-83107661D01*
X179090780Y-82869566D01*
X179138400Y-82774328D01*
X179186019Y-82726709D01*
X179281257Y-82679090D01*
X179376495Y-82679090D01*
X179519352Y-82726709D01*
X180090780Y-83298138D01*
X180090780Y-82679090D01*
X179090780Y-81821947D02*
X179090780Y-82012423D01*
X179138400Y-82107661D01*
X179186019Y-82155280D01*
X179328876Y-82250519D01*
X179519352Y-82298138D01*
X179900304Y-82298138D01*
X179995542Y-82250519D01*
X180043161Y-82202900D01*
X180090780Y-82107661D01*
X180090780Y-81917185D01*
X180043161Y-81821947D01*
X179995542Y-81774328D01*
X179900304Y-81726709D01*
X179662209Y-81726709D01*
X179566971Y-81774328D01*
X179519352Y-81821947D01*
X179471733Y-81917185D01*
X179471733Y-82107661D01*
X179519352Y-82202900D01*
X179566971Y-82250519D01*
X179662209Y-82298138D01*
%TO.C, *%
%TO.C,LED5-GPIO23*%
X117693580Y-138504380D02*
X117693580Y-138980571D01*
X116693580Y-138980571D01*
X117169771Y-138171047D02*
X117169771Y-137837714D01*
X117693580Y-137694857D02*
X117693580Y-138171047D01*
X116693580Y-138171047D01*
X116693580Y-137694857D01*
X117693580Y-137266285D02*
X116693580Y-137266285D01*
X116693580Y-137028190D01*
X116741200Y-136885333D01*
X116836438Y-136790095D01*
X116931676Y-136742476D01*
X117122152Y-136694857D01*
X117265009Y-136694857D01*
X117455485Y-136742476D01*
X117550723Y-136790095D01*
X117645961Y-136885333D01*
X117693580Y-137028190D01*
X117693580Y-137266285D01*
X116693580Y-135790095D02*
X116693580Y-136266285D01*
X117169771Y-136313904D01*
X117122152Y-136266285D01*
X117074533Y-136171047D01*
X117074533Y-135932952D01*
X117122152Y-135837714D01*
X117169771Y-135790095D01*
X117265009Y-135742476D01*
X117503104Y-135742476D01*
X117598342Y-135790095D01*
X117645961Y-135837714D01*
X117693580Y-135932952D01*
X117693580Y-136171047D01*
X117645961Y-136266285D01*
X117598342Y-136313904D01*
X117312628Y-135313904D02*
X117312628Y-134552000D01*
X116741200Y-133552000D02*
X116693580Y-133647238D01*
X116693580Y-133790095D01*
X116741200Y-133932952D01*
X116836438Y-134028190D01*
X116931676Y-134075809D01*
X117122152Y-134123428D01*
X117265009Y-134123428D01*
X117455485Y-134075809D01*
X117550723Y-134028190D01*
X117645961Y-133932952D01*
X117693580Y-133790095D01*
X117693580Y-133694857D01*
X117645961Y-133552000D01*
X117598342Y-133504380D01*
X117265009Y-133504380D01*
X117265009Y-133694857D01*
X117693580Y-133075809D02*
X116693580Y-133075809D01*
X116693580Y-132694857D01*
X116741200Y-132599619D01*
X116788819Y-132552000D01*
X116884057Y-132504380D01*
X117026914Y-132504380D01*
X117122152Y-132552000D01*
X117169771Y-132599619D01*
X117217390Y-132694857D01*
X117217390Y-133075809D01*
X117693580Y-132075809D02*
X116693580Y-132075809D01*
X116693580Y-131409142D02*
X116693580Y-131218666D01*
X116741200Y-131123428D01*
X116836438Y-131028190D01*
X117026914Y-130980571D01*
X117360247Y-130980571D01*
X117550723Y-131028190D01*
X117645961Y-131123428D01*
X117693580Y-131218666D01*
X117693580Y-131409142D01*
X117645961Y-131504380D01*
X117550723Y-131599619D01*
X117360247Y-131647238D01*
X117026914Y-131647238D01*
X116836438Y-131599619D01*
X116741200Y-131504380D01*
X116693580Y-131409142D01*
X116788819Y-130599619D02*
X116741200Y-130552000D01*
X116693580Y-130456761D01*
X116693580Y-130218666D01*
X116741200Y-130123428D01*
X116788819Y-130075809D01*
X116884057Y-130028190D01*
X116979295Y-130028190D01*
X117122152Y-130075809D01*
X117693580Y-130647238D01*
X117693580Y-130028190D01*
X116693580Y-129694857D02*
X116693580Y-129075809D01*
X117074533Y-129409142D01*
X117074533Y-129266285D01*
X117122152Y-129171047D01*
X117169771Y-129123428D01*
X117265009Y-129075809D01*
X117503104Y-129075809D01*
X117598342Y-129123428D01*
X117645961Y-129171047D01*
X117693580Y-129266285D01*
X117693580Y-129552000D01*
X117645961Y-129647238D01*
X117598342Y-129694857D01*
%TO.C, *%
%TO.C,LED7-GPIO33*%
X180090780Y-122930680D02*
X180090780Y-123406871D01*
X179090780Y-123406871D01*
X179566971Y-122597347D02*
X179566971Y-122264014D01*
X180090780Y-122121157D02*
X180090780Y-122597347D01*
X179090780Y-122597347D01*
X179090780Y-122121157D01*
X180090780Y-121692585D02*
X179090780Y-121692585D01*
X179090780Y-121454490D01*
X179138400Y-121311633D01*
X179233638Y-121216395D01*
X179328876Y-121168776D01*
X179519352Y-121121157D01*
X179662209Y-121121157D01*
X179852685Y-121168776D01*
X179947923Y-121216395D01*
X180043161Y-121311633D01*
X180090780Y-121454490D01*
X180090780Y-121692585D01*
X179090780Y-120787823D02*
X179090780Y-120121157D01*
X180090780Y-120549728D01*
X179709828Y-119740204D02*
X179709828Y-118978300D01*
X179138400Y-117978300D02*
X179090780Y-118073538D01*
X179090780Y-118216395D01*
X179138400Y-118359252D01*
X179233638Y-118454490D01*
X179328876Y-118502109D01*
X179519352Y-118549728D01*
X179662209Y-118549728D01*
X179852685Y-118502109D01*
X179947923Y-118454490D01*
X180043161Y-118359252D01*
X180090780Y-118216395D01*
X180090780Y-118121157D01*
X180043161Y-117978300D01*
X179995542Y-117930680D01*
X179662209Y-117930680D01*
X179662209Y-118121157D01*
X180090780Y-117502109D02*
X179090780Y-117502109D01*
X179090780Y-117121157D01*
X179138400Y-117025919D01*
X179186019Y-116978300D01*
X179281257Y-116930680D01*
X179424114Y-116930680D01*
X179519352Y-116978300D01*
X179566971Y-117025919D01*
X179614590Y-117121157D01*
X179614590Y-117502109D01*
X180090780Y-116502109D02*
X179090780Y-116502109D01*
X179090780Y-115835442D02*
X179090780Y-115644966D01*
X179138400Y-115549728D01*
X179233638Y-115454490D01*
X179424114Y-115406871D01*
X179757447Y-115406871D01*
X179947923Y-115454490D01*
X180043161Y-115549728D01*
X180090780Y-115644966D01*
X180090780Y-115835442D01*
X180043161Y-115930680D01*
X179947923Y-116025919D01*
X179757447Y-116073538D01*
X179424114Y-116073538D01*
X179233638Y-116025919D01*
X179138400Y-115930680D01*
X179090780Y-115835442D01*
X179090780Y-115073538D02*
X179090780Y-114454490D01*
X179471733Y-114787823D01*
X179471733Y-114644966D01*
X179519352Y-114549728D01*
X179566971Y-114502109D01*
X179662209Y-114454490D01*
X179900304Y-114454490D01*
X179995542Y-114502109D01*
X180043161Y-114549728D01*
X180090780Y-114644966D01*
X180090780Y-114930680D01*
X180043161Y-115025919D01*
X179995542Y-115073538D01*
X179090780Y-114121157D02*
X179090780Y-113502109D01*
X179471733Y-113835442D01*
X179471733Y-113692585D01*
X179519352Y-113597347D01*
X179566971Y-113549728D01*
X179662209Y-113502109D01*
X179900304Y-113502109D01*
X179995542Y-113549728D01*
X180043161Y-113597347D01*
X180090780Y-113692585D01*
X180090780Y-113978300D01*
X180043161Y-114073538D01*
X179995542Y-114121157D01*
%TO.C,LED8-GPIO25*%
X180090780Y-107042980D02*
X180090780Y-107519171D01*
X179090780Y-107519171D01*
X179566971Y-106709647D02*
X179566971Y-106376314D01*
X180090780Y-106233457D02*
X180090780Y-106709647D01*
X179090780Y-106709647D01*
X179090780Y-106233457D01*
X180090780Y-105804885D02*
X179090780Y-105804885D01*
X179090780Y-105566790D01*
X179138400Y-105423933D01*
X179233638Y-105328695D01*
X179328876Y-105281076D01*
X179519352Y-105233457D01*
X179662209Y-105233457D01*
X179852685Y-105281076D01*
X179947923Y-105328695D01*
X180043161Y-105423933D01*
X180090780Y-105566790D01*
X180090780Y-105804885D01*
X179519352Y-104662028D02*
X179471733Y-104757266D01*
X179424114Y-104804885D01*
X179328876Y-104852504D01*
X179281257Y-104852504D01*
X179186019Y-104804885D01*
X179138400Y-104757266D01*
X179090780Y-104662028D01*
X179090780Y-104471552D01*
X179138400Y-104376314D01*
X179186019Y-104328695D01*
X179281257Y-104281076D01*
X179328876Y-104281076D01*
X179424114Y-104328695D01*
X179471733Y-104376314D01*
X179519352Y-104471552D01*
X179519352Y-104662028D01*
X179566971Y-104757266D01*
X179614590Y-104804885D01*
X179709828Y-104852504D01*
X179900304Y-104852504D01*
X179995542Y-104804885D01*
X180043161Y-104757266D01*
X180090780Y-104662028D01*
X180090780Y-104471552D01*
X180043161Y-104376314D01*
X179995542Y-104328695D01*
X179900304Y-104281076D01*
X179709828Y-104281076D01*
X179614590Y-104328695D01*
X179566971Y-104376314D01*
X179519352Y-104471552D01*
X179709828Y-103852504D02*
X179709828Y-103090600D01*
X179138400Y-102090600D02*
X179090780Y-102185838D01*
X179090780Y-102328695D01*
X179138400Y-102471552D01*
X179233638Y-102566790D01*
X179328876Y-102614409D01*
X179519352Y-102662028D01*
X179662209Y-102662028D01*
X179852685Y-102614409D01*
X179947923Y-102566790D01*
X180043161Y-102471552D01*
X180090780Y-102328695D01*
X180090780Y-102233457D01*
X180043161Y-102090600D01*
X179995542Y-102042980D01*
X179662209Y-102042980D01*
X179662209Y-102233457D01*
X180090780Y-101614409D02*
X179090780Y-101614409D01*
X179090780Y-101233457D01*
X179138400Y-101138219D01*
X179186019Y-101090600D01*
X179281257Y-101042980D01*
X179424114Y-101042980D01*
X179519352Y-101090600D01*
X179566971Y-101138219D01*
X179614590Y-101233457D01*
X179614590Y-101614409D01*
X180090780Y-100614409D02*
X179090780Y-100614409D01*
X179090780Y-99947742D02*
X179090780Y-99757266D01*
X179138400Y-99662028D01*
X179233638Y-99566790D01*
X179424114Y-99519171D01*
X179757447Y-99519171D01*
X179947923Y-99566790D01*
X180043161Y-99662028D01*
X180090780Y-99757266D01*
X180090780Y-99947742D01*
X180043161Y-100042980D01*
X179947923Y-100138219D01*
X179757447Y-100185838D01*
X179424114Y-100185838D01*
X179233638Y-100138219D01*
X179138400Y-100042980D01*
X179090780Y-99947742D01*
X179186019Y-99138219D02*
X179138400Y-99090600D01*
X179090780Y-98995361D01*
X179090780Y-98757266D01*
X179138400Y-98662028D01*
X179186019Y-98614409D01*
X179281257Y-98566790D01*
X179376495Y-98566790D01*
X179519352Y-98614409D01*
X180090780Y-99185838D01*
X180090780Y-98566790D01*
X179090780Y-97662028D02*
X179090780Y-98138219D01*
X179566971Y-98185838D01*
X179519352Y-98138219D01*
X179471733Y-98042980D01*
X179471733Y-97804885D01*
X179519352Y-97709647D01*
X179566971Y-97662028D01*
X179662209Y-97614409D01*
X179900304Y-97614409D01*
X179995542Y-97662028D01*
X180043161Y-97709647D01*
X180090780Y-97804885D01*
X180090780Y-98042980D01*
X180043161Y-98138219D01*
X179995542Y-98185838D01*
%TO.C, *%
%TO.C,LED4-GPIO22*%
X117693580Y-122616680D02*
X117693580Y-123092871D01*
X116693580Y-123092871D01*
X117169771Y-122283347D02*
X117169771Y-121950014D01*
X117693580Y-121807157D02*
X117693580Y-122283347D01*
X116693580Y-122283347D01*
X116693580Y-121807157D01*
X117693580Y-121378585D02*
X116693580Y-121378585D01*
X116693580Y-121140490D01*
X116741200Y-120997633D01*
X116836438Y-120902395D01*
X116931676Y-120854776D01*
X117122152Y-120807157D01*
X117265009Y-120807157D01*
X117455485Y-120854776D01*
X117550723Y-120902395D01*
X117645961Y-120997633D01*
X117693580Y-121140490D01*
X117693580Y-121378585D01*
X117026914Y-119950014D02*
X117693580Y-119950014D01*
X116645961Y-120188109D02*
X117360247Y-120426204D01*
X117360247Y-119807157D01*
X117312628Y-119426204D02*
X117312628Y-118664300D01*
X116741200Y-117664300D02*
X116693580Y-117759538D01*
X116693580Y-117902395D01*
X116741200Y-118045252D01*
X116836438Y-118140490D01*
X116931676Y-118188109D01*
X117122152Y-118235728D01*
X117265009Y-118235728D01*
X117455485Y-118188109D01*
X117550723Y-118140490D01*
X117645961Y-118045252D01*
X117693580Y-117902395D01*
X117693580Y-117807157D01*
X117645961Y-117664300D01*
X117598342Y-117616680D01*
X117265009Y-117616680D01*
X117265009Y-117807157D01*
X117693580Y-117188109D02*
X116693580Y-117188109D01*
X116693580Y-116807157D01*
X116741200Y-116711919D01*
X116788819Y-116664300D01*
X116884057Y-116616680D01*
X117026914Y-116616680D01*
X117122152Y-116664300D01*
X117169771Y-116711919D01*
X117217390Y-116807157D01*
X117217390Y-117188109D01*
X117693580Y-116188109D02*
X116693580Y-116188109D01*
X116693580Y-115521442D02*
X116693580Y-115330966D01*
X116741200Y-115235728D01*
X116836438Y-115140490D01*
X117026914Y-115092871D01*
X117360247Y-115092871D01*
X117550723Y-115140490D01*
X117645961Y-115235728D01*
X117693580Y-115330966D01*
X117693580Y-115521442D01*
X117645961Y-115616680D01*
X117550723Y-115711919D01*
X117360247Y-115759538D01*
X117026914Y-115759538D01*
X116836438Y-115711919D01*
X116741200Y-115616680D01*
X116693580Y-115521442D01*
X116788819Y-114711919D02*
X116741200Y-114664300D01*
X116693580Y-114569061D01*
X116693580Y-114330966D01*
X116741200Y-114235728D01*
X116788819Y-114188109D01*
X116884057Y-114140490D01*
X116979295Y-114140490D01*
X117122152Y-114188109D01*
X117693580Y-114759538D01*
X117693580Y-114140490D01*
X116788819Y-113759538D02*
X116741200Y-113711919D01*
X116693580Y-113616680D01*
X116693580Y-113378585D01*
X116741200Y-113283347D01*
X116788819Y-113235728D01*
X116884057Y-113188109D01*
X116979295Y-113188109D01*
X117122152Y-113235728D01*
X117693580Y-113807157D01*
X117693580Y-113188109D01*
D12*
%TO.C,U1*%
X148108800Y-137835800D02*
X129868800Y-137835800D01*
X129868800Y-112090800D02*
X130868800Y-112090800D01*
X148108800Y-112090800D02*
X147108800Y-112090800D01*
X148108800Y-112870800D02*
X148108800Y-112090800D01*
X129868800Y-112870800D02*
X129868800Y-112090800D01*
X148108800Y-137835800D02*
X148108800Y-131415800D01*
X129868800Y-137835800D02*
X129868800Y-131415800D01*
X148108800Y-131415800D02*
X148488800Y-131415800D01*
D10*
%TO.C,12V*%
X158309200Y-119260400D02*
X166709200Y-119260400D01*
X166459200Y-143860400D02*
X158559200Y-143860400D01*
X158409200Y-132660400D02*
X158309200Y-119260400D01*
X166609200Y-132660400D02*
X166709200Y-119260400D01*
X158559200Y-143860400D02*
X158409200Y-135260400D01*
X166459200Y-143860400D02*
X166609200Y-135260400D01*
X166609200Y-132660400D02*
G75*
G03*
X165309200Y-133960400I0J-1300000D01*
G01*
X158409200Y-135260400D02*
G75*
G03*
X159709200Y-133960400I1J1299999D01*
G01*
X159709200Y-133960400D02*
G75*
G03*
X158409200Y-132660400I-1299999J1D01*
G01*
X165309200Y-133960400D02*
G75*
G03*
X166609200Y-135260400I1300000J0D01*
G01*
D12*
%TO.C,LED10-GPIO27*%
X192448400Y-70815200D02*
X192448400Y-77125200D01*
X192448400Y-70815200D02*
X192448400Y-64505200D01*
X191838400Y-69815200D02*
X191838400Y-69315200D01*
X186338400Y-69815200D02*
X191838400Y-69815200D01*
X186338400Y-69315200D02*
X186338400Y-69815200D01*
X186338400Y-74815200D02*
X191838400Y-74815200D01*
X180728400Y-64505200D02*
X180728400Y-65925200D01*
X191838400Y-74315200D02*
X186338400Y-74315200D01*
X191838400Y-69315200D02*
X186338400Y-69315200D01*
X191838400Y-66815200D02*
X186338400Y-66815200D01*
X180728400Y-77125200D02*
X180728400Y-75705200D01*
X186338400Y-71815200D02*
X186338400Y-72315200D01*
X191838400Y-72315200D02*
X191838400Y-71815200D01*
X191838400Y-74815200D02*
X191838400Y-74315200D01*
X186338400Y-66815200D02*
X186338400Y-67315200D01*
X192448400Y-77125200D02*
X180728400Y-77125200D01*
X191838400Y-67315200D02*
X191838400Y-66815200D01*
X181038400Y-74865200D02*
X181038400Y-74265200D01*
X191838400Y-71815200D02*
X186338400Y-71815200D01*
X186338400Y-72315200D02*
X191838400Y-72315200D01*
X192448400Y-64505200D02*
X180728400Y-64505200D01*
X186338400Y-74315200D02*
X186338400Y-74815200D01*
X185228400Y-75705200D02*
X185228400Y-70815200D01*
X180728400Y-65925200D02*
X185228400Y-65925200D01*
X186338400Y-67315200D02*
X191838400Y-67315200D01*
X181038400Y-74265200D02*
X181638400Y-74565200D01*
X185228400Y-65925200D02*
X185228400Y-70815200D01*
X181638400Y-74565200D02*
X181038400Y-74865200D01*
X180728400Y-75705200D02*
X185228400Y-75705200D01*
%TO.C,LED1-GPIO4*%
X116151200Y-65611200D02*
X111651200Y-65611200D01*
X115841200Y-67051200D02*
X115241200Y-66751200D01*
X116151200Y-75391200D02*
X111651200Y-75391200D01*
X105041200Y-72001200D02*
X110541200Y-72001200D01*
X104431200Y-70501200D02*
X104431200Y-76811200D01*
X115841200Y-66451200D02*
X115841200Y-67051200D01*
X110541200Y-69501200D02*
X110541200Y-69001200D01*
X110541200Y-74501200D02*
X110541200Y-74001200D01*
X110541200Y-69001200D02*
X105041200Y-69001200D01*
X116151200Y-64191200D02*
X116151200Y-65611200D01*
X111651200Y-65611200D02*
X111651200Y-70501200D01*
X110541200Y-72001200D02*
X110541200Y-71501200D01*
X111651200Y-75391200D02*
X111651200Y-70501200D01*
X105041200Y-66501200D02*
X105041200Y-67001200D01*
X110541200Y-74001200D02*
X105041200Y-74001200D01*
X105041200Y-69501200D02*
X110541200Y-69501200D01*
X115241200Y-66751200D02*
X115841200Y-66451200D01*
X105041200Y-67001200D02*
X110541200Y-67001200D01*
X105041200Y-74501200D02*
X110541200Y-74501200D01*
X104431200Y-70501200D02*
X104431200Y-64191200D01*
X104431200Y-64191200D02*
X116151200Y-64191200D01*
X116151200Y-76811200D02*
X116151200Y-75391200D01*
X105041200Y-69001200D02*
X105041200Y-69501200D01*
X110541200Y-66501200D02*
X105041200Y-66501200D01*
X104431200Y-76811200D02*
X116151200Y-76811200D01*
X105041200Y-71501200D02*
X105041200Y-72001200D01*
X110541200Y-67001200D02*
X110541200Y-66501200D01*
X105041200Y-74001200D02*
X105041200Y-74501200D01*
X110541200Y-71501200D02*
X105041200Y-71501200D01*
%TO.C,LED3-GPIO17*%
X115241200Y-98526600D02*
X115841200Y-98226600D01*
X110541200Y-106276600D02*
X110541200Y-105776600D01*
X111651200Y-107166600D02*
X111651200Y-102276600D01*
X110541200Y-98776600D02*
X110541200Y-98276600D01*
X105041200Y-103776600D02*
X110541200Y-103776600D01*
X105041200Y-101276600D02*
X110541200Y-101276600D01*
X110541200Y-98276600D02*
X105041200Y-98276600D01*
X105041200Y-105776600D02*
X105041200Y-106276600D01*
X110541200Y-101276600D02*
X110541200Y-100776600D01*
X110541200Y-105776600D02*
X105041200Y-105776600D01*
X104431200Y-102276600D02*
X104431200Y-108586600D01*
X105041200Y-98776600D02*
X110541200Y-98776600D01*
X105041200Y-103276600D02*
X105041200Y-103776600D01*
X105041200Y-100776600D02*
X105041200Y-101276600D01*
X104431200Y-102276600D02*
X104431200Y-95966600D01*
X104431200Y-95966600D02*
X116151200Y-95966600D01*
X105041200Y-106276600D02*
X110541200Y-106276600D01*
X116151200Y-107166600D02*
X111651200Y-107166600D01*
X116151200Y-97386600D02*
X111651200Y-97386600D01*
X116151200Y-108586600D02*
X116151200Y-107166600D01*
X104431200Y-108586600D02*
X116151200Y-108586600D01*
X116151200Y-95966600D02*
X116151200Y-97386600D01*
X111651200Y-97386600D02*
X111651200Y-102276600D01*
X110541200Y-103276600D02*
X105041200Y-103276600D01*
X110541200Y-100776600D02*
X105041200Y-100776600D01*
X115841200Y-98826600D02*
X115241200Y-98526600D01*
X115841200Y-98226600D02*
X115841200Y-98826600D01*
X110541200Y-103776600D02*
X110541200Y-103276600D01*
X105041200Y-98276600D02*
X105041200Y-98776600D01*
%TO.C,H1*%
X143770000Y-105332600D02*
X143770000Y-102432600D01*
X143770000Y-107532600D02*
X143770000Y-105332600D01*
X143770000Y-109582600D02*
X143770000Y-107532600D01*
G36*
X149070000Y-110182600D02*
G01*
X147320000Y-110182600D01*
X147320000Y-109382600D01*
X148320000Y-109382600D01*
X148320000Y-108182600D01*
X149070000Y-108182600D01*
X149070000Y-110182600D01*
G37*
D13*
X149070000Y-110182600D02*
X147320000Y-110182600D01*
X147320000Y-109382600D01*
X148320000Y-109382600D01*
X148320000Y-108182600D01*
X149070000Y-108182600D01*
X149070000Y-110182600D01*
D12*
%TO.C,U2*%
X170124000Y-79405600D02*
X170124000Y-76245600D01*
X159292642Y-79322383D02*
X159292642Y-77022383D01*
X161693767Y-81908930D02*
X160853767Y-81908930D01*
X158293767Y-81908930D02*
X157453767Y-81908930D01*
X173259000Y-97440600D02*
X173259000Y-75990600D01*
X162953767Y-86616494D02*
X162953767Y-95967990D01*
X132644000Y-94025600D02*
X129484000Y-94025600D01*
X157453767Y-81908930D02*
X157453767Y-86538930D01*
X173254000Y-76245600D02*
X170124000Y-76245600D01*
X135055319Y-94625305D02*
X135055319Y-96225304D01*
X147355406Y-95598306D02*
X147348236Y-95629525D01*
X162876203Y-86538930D02*
X152871330Y-86538930D01*
X157972364Y-79047383D02*
X157972364Y-77297383D01*
X158422364Y-79047383D02*
X157972364Y-79047383D01*
X147355406Y-95598306D02*
X147379853Y-95603538D01*
X158422364Y-79322383D02*
X158422364Y-77022383D01*
X134255319Y-94945305D02*
X135055319Y-94945305D01*
X138454217Y-91973306D02*
X148354217Y-91973306D01*
X159993767Y-81908930D02*
X159153767Y-81908930D01*
X152871330Y-86538930D02*
X152793767Y-86616494D01*
X132644000Y-76245600D02*
X132644000Y-79405600D01*
X156593767Y-81908930D02*
X156593767Y-86538930D01*
X154443767Y-96258929D02*
X152793767Y-95967990D01*
X145264986Y-95623305D02*
X147343447Y-95623305D01*
X161303767Y-96258929D02*
X154443767Y-96258929D01*
X152793767Y-86616494D02*
X152793767Y-95967990D01*
X132644000Y-94025600D02*
X132644000Y-97185600D01*
X147355406Y-95598306D02*
X147343447Y-95623305D01*
X162222364Y-77297383D02*
X162672364Y-77297383D01*
X162122364Y-79422383D02*
X158522364Y-79422383D01*
X135055319Y-95905304D02*
X134255319Y-95905304D01*
X154893767Y-81908930D02*
X154053767Y-81908930D01*
X152793767Y-95178930D02*
X162953767Y-95178930D01*
X158293767Y-81908930D02*
X158293767Y-86538930D01*
X173259000Y-75990600D02*
X129509000Y-75990600D01*
X170124000Y-94335600D02*
X170124000Y-94025600D01*
X154053767Y-81908930D02*
X154053767Y-86538930D01*
X159993767Y-81908930D02*
X159993767Y-86538930D01*
X156593767Y-81908930D02*
X155753767Y-81908930D01*
X138404217Y-96923305D02*
X138404217Y-92023306D01*
X134255319Y-96225304D02*
X135055319Y-96225304D01*
X149736603Y-76819804D02*
X140036603Y-76819804D01*
X129509000Y-75990600D02*
X129509000Y-97440600D01*
X140036603Y-89519804D02*
X149736603Y-89519804D01*
X158421364Y-78810904D02*
X158421364Y-78905456D01*
X139761688Y-96974305D02*
X139795643Y-96974305D01*
X157972364Y-77297383D02*
X158422364Y-77297383D01*
X158522364Y-76922383D02*
X162122364Y-76922383D01*
X148354217Y-96973305D02*
X138454217Y-96973305D01*
X138536603Y-78319804D02*
X138536603Y-88019804D01*
X132644000Y-79405600D02*
X129529000Y-79405600D01*
X162672364Y-79047383D02*
X162222364Y-79047383D01*
X134255319Y-96225304D02*
X134255319Y-94625305D01*
X162672364Y-77297383D02*
X162672364Y-79047383D01*
X162954767Y-94601451D02*
X162954767Y-94439913D01*
X173254000Y-94030600D02*
X170124000Y-94025600D01*
X160853767Y-81908930D02*
X160853767Y-86538930D01*
X159153767Y-81908930D02*
X159153767Y-86538930D01*
X155753767Y-81908930D02*
X155753767Y-86538930D01*
X173254000Y-79405600D02*
X170124000Y-79405600D01*
X162222364Y-77022383D02*
X162222364Y-79322383D01*
X162953767Y-95967990D02*
X161303767Y-96258929D01*
X139845022Y-96974305D02*
X139889894Y-96974305D01*
X132644000Y-76245600D02*
X129529000Y-76245600D01*
X129509000Y-97440600D02*
X173259000Y-97440600D01*
X148404217Y-92023306D02*
X148404217Y-96923305D01*
X161693767Y-81908930D02*
X161693767Y-86538930D01*
X147367615Y-95654700D02*
X147343447Y-95623305D01*
X134255319Y-94625305D02*
X135055319Y-94625305D01*
X173254000Y-97185600D02*
X171954000Y-97185600D01*
X151236603Y-88019804D02*
X151236603Y-78319804D01*
X154893767Y-81908930D02*
X154893767Y-86538930D01*
X162953767Y-86616494D02*
X162876203Y-86538930D01*
X132644000Y-97185600D02*
X129529000Y-97185600D01*
X147343447Y-95123306D02*
X145264986Y-95123306D01*
X147856388Y-88206070D02*
G75*
G03*
X147722217Y-88171983I-84888J-53030D01*
G01*
X140036603Y-76819803D02*
G75*
G03*
X138536603Y-78319804I-3J-1499997D01*
G01*
X162222317Y-77022383D02*
G75*
G03*
X162122364Y-76922383I-99917J83D01*
G01*
X151236596Y-78319804D02*
G75*
G03*
X149736603Y-76819804I-1499996J4D01*
G01*
X139850333Y-86139582D02*
G75*
G03*
X141916817Y-88206069I793667J-1272818D01*
G01*
X148354217Y-96973317D02*
G75*
G03*
X148404217Y-96923305I-17J50017D01*
G01*
X142050989Y-88171983D02*
G75*
G03*
X147722216Y-88171983I2835613J5002178D01*
G01*
X139884445Y-80334202D02*
G75*
G03*
X139850337Y-80200017I-87045J49302D01*
G01*
X147367615Y-95091910D02*
G75*
G03*
X147379852Y-95143073I-1063415J-281390D01*
G01*
X149922882Y-80200040D02*
G75*
G03*
X149888783Y-80334191I52918J-84860D01*
G01*
X149888722Y-86005383D02*
G75*
G03*
X149922869Y-86139590I86978J-49317D01*
G01*
X139850339Y-86139590D02*
G75*
G03*
X139884423Y-86005416I-53039J84890D01*
G01*
X142051002Y-88171959D02*
G75*
G03*
X141916817Y-88206069I-49302J-87041D01*
G01*
X162122364Y-79422364D02*
G75*
G03*
X162222364Y-79322383I36J99964D01*
G01*
X138536596Y-88019804D02*
G75*
G03*
X140036603Y-89519804I1500004J4D01*
G01*
X149736603Y-89519803D02*
G75*
G03*
X151236603Y-88019804I-3J1500003D01*
G01*
X147722184Y-78167682D02*
G75*
G03*
X147856389Y-78133538I49316J86982D01*
G01*
X139884421Y-80334188D02*
G75*
G03*
X139884424Y-86005417I5002179J-2835612D01*
G01*
X149888779Y-86005415D02*
G75*
G03*
X149888782Y-80334190I-5002179J2835615D01*
G01*
X138404195Y-96923305D02*
G75*
G03*
X138454217Y-96973305I50005J5D01*
G01*
X141916818Y-78133538D02*
G75*
G03*
X139850338Y-80200018I-1272858J-793622D01*
G01*
X138454217Y-91973317D02*
G75*
G03*
X138404217Y-92023306I-17J-49983D01*
G01*
X158522364Y-76922364D02*
G75*
G03*
X158422364Y-77022383I36J-100036D01*
G01*
X149922863Y-80200010D02*
G75*
G03*
X147856389Y-78133538I-793663J1272810D01*
G01*
X147722217Y-78167624D02*
G75*
G03*
X142050989Y-78167624I-2835614J-5002180D01*
G01*
X158422317Y-79322383D02*
G75*
G03*
X158522364Y-79422383I100083J83D01*
G01*
X147856390Y-88206069D02*
G75*
G03*
X149922868Y-86139589I1272850J793629D01*
G01*
X148404194Y-92023306D02*
G75*
G03*
X148354217Y-91973306I-49994J6D01*
G01*
X141916838Y-78133525D02*
G75*
G03*
X142050989Y-78167624I84862J52925D01*
G01*
X173057334Y-86648182D02*
G75*
G03*
X173057334Y-86648182I-4000000J0D01*
G01*
X137674693Y-86150394D02*
G75*
G03*
X137674693Y-86150394I-4000000J0D01*
G01*
X168222999Y-94970600D02*
G75*
G03*
X168222999Y-94970600I-1598999J0D01*
G01*
X137743000Y-78460600D02*
G75*
G03*
X137743000Y-78460600I-1599000J0D01*
G01*
X150136603Y-83169804D02*
G75*
G03*
X150136603Y-83169804I-5250000J0D01*
G01*
X162405821Y-87451006D02*
G75*
G03*
X162405821Y-87451006I-375000J0D01*
G01*
%TO.C,LED6-GPIO32*%
X181038400Y-138416000D02*
X181038400Y-137816000D01*
X191838400Y-137866000D02*
X186338400Y-137866000D01*
X186338400Y-133366000D02*
X191838400Y-133366000D01*
X191838400Y-133366000D02*
X191838400Y-132866000D01*
X186338400Y-138366000D02*
X191838400Y-138366000D01*
X186338400Y-130366000D02*
X186338400Y-130866000D01*
X180728400Y-139256000D02*
X185228400Y-139256000D01*
X186338400Y-132866000D02*
X186338400Y-133366000D01*
X180728400Y-128056000D02*
X180728400Y-129476000D01*
X186338400Y-135866000D02*
X191838400Y-135866000D01*
X192448400Y-128056000D02*
X180728400Y-128056000D01*
X185228400Y-139256000D02*
X185228400Y-134366000D01*
X181638400Y-138116000D02*
X181038400Y-138416000D01*
X191838400Y-130366000D02*
X186338400Y-130366000D01*
X186338400Y-135366000D02*
X186338400Y-135866000D01*
X186338400Y-130866000D02*
X191838400Y-130866000D01*
X180728400Y-129476000D02*
X185228400Y-129476000D01*
X191838400Y-135366000D02*
X186338400Y-135366000D01*
X192448400Y-134366000D02*
X192448400Y-128056000D01*
X192448400Y-140676000D02*
X180728400Y-140676000D01*
X191838400Y-138366000D02*
X191838400Y-137866000D01*
X186338400Y-137866000D02*
X186338400Y-138366000D01*
X191838400Y-135866000D02*
X191838400Y-135366000D01*
X191838400Y-130866000D02*
X191838400Y-130366000D01*
X181038400Y-137816000D02*
X181638400Y-138116000D01*
X185228400Y-129476000D02*
X185228400Y-134366000D01*
X192448400Y-134366000D02*
X192448400Y-140676000D01*
X180728400Y-140676000D02*
X180728400Y-139256000D01*
X191838400Y-132866000D02*
X186338400Y-132866000D01*
%TO.C,LED2-GPIO16*%
X116151200Y-81498900D02*
X111651200Y-81498900D01*
X110541200Y-87888900D02*
X110541200Y-87388900D01*
X110541200Y-82888900D02*
X110541200Y-82388900D01*
X111651200Y-91278900D02*
X111651200Y-86388900D01*
X105041200Y-82888900D02*
X110541200Y-82888900D01*
X116151200Y-91278900D02*
X111651200Y-91278900D01*
X110541200Y-87388900D02*
X105041200Y-87388900D01*
X115841200Y-82338900D02*
X115841200Y-82938900D01*
X105041200Y-82388900D02*
X105041200Y-82888900D01*
X105041200Y-87388900D02*
X105041200Y-87888900D01*
X105041200Y-89888900D02*
X105041200Y-90388900D01*
X110541200Y-90388900D02*
X110541200Y-89888900D01*
X105041200Y-84888900D02*
X105041200Y-85388900D01*
X110541200Y-85388900D02*
X110541200Y-84888900D01*
X115841200Y-82938900D02*
X115241200Y-82638900D01*
X104431200Y-92698900D02*
X116151200Y-92698900D01*
X104431200Y-80078900D02*
X116151200Y-80078900D01*
X105041200Y-85388900D02*
X110541200Y-85388900D01*
X105041200Y-90388900D02*
X110541200Y-90388900D01*
X116151200Y-80078900D02*
X116151200Y-81498900D01*
X105041200Y-87888900D02*
X110541200Y-87888900D01*
X110541200Y-84888900D02*
X105041200Y-84888900D01*
X115241200Y-82638900D02*
X115841200Y-82338900D01*
X104431200Y-86388900D02*
X104431200Y-92698900D01*
X104431200Y-86388900D02*
X104431200Y-80078900D01*
X116151200Y-92698900D02*
X116151200Y-91278900D01*
X111651200Y-81498900D02*
X111651200Y-86388900D01*
X110541200Y-82388900D02*
X105041200Y-82388900D01*
X110541200Y-89888900D02*
X105041200Y-89888900D01*
D10*
%TO.C,GND*%
X167065200Y-143860400D02*
X166915200Y-135260400D01*
X174965200Y-143860400D02*
X167065200Y-143860400D01*
X175115200Y-132660400D02*
X175215200Y-119260400D01*
X166915200Y-132660400D02*
X166815200Y-119260400D01*
X166815200Y-119260400D02*
X175215200Y-119260400D01*
X174965200Y-143860400D02*
X175115200Y-135260400D01*
X168215200Y-133960400D02*
G75*
G03*
X166915200Y-132660400I-1299999J1D01*
G01*
X173815200Y-133960400D02*
G75*
G03*
X175115200Y-135260400I1300000J0D01*
G01*
X175115200Y-132660400D02*
G75*
G03*
X173815200Y-133960400I0J-1300000D01*
G01*
X166915200Y-135260400D02*
G75*
G03*
X168215200Y-133960400I1J1299999D01*
G01*
D12*
%TO.C,LED9-GPIO26*%
X191838400Y-85702900D02*
X191838400Y-85202900D01*
X191838400Y-87702900D02*
X186338400Y-87702900D01*
X186338400Y-85202900D02*
X186338400Y-85702900D01*
X186338400Y-82702900D02*
X186338400Y-83202900D01*
X191838400Y-88202900D02*
X191838400Y-87702900D01*
X191838400Y-83202900D02*
X191838400Y-82702900D01*
X180728400Y-91592900D02*
X185228400Y-91592900D01*
X185228400Y-81812900D02*
X185228400Y-86702900D01*
X180728400Y-80392900D02*
X180728400Y-81812900D01*
X185228400Y-91592900D02*
X185228400Y-86702900D01*
X181038400Y-90152900D02*
X181638400Y-90452900D01*
X186338400Y-88202900D02*
X191838400Y-88202900D01*
X191838400Y-85202900D02*
X186338400Y-85202900D01*
X192448400Y-86702900D02*
X192448400Y-93012900D01*
X192448400Y-93012900D02*
X180728400Y-93012900D01*
X186338400Y-87702900D02*
X186338400Y-88202900D01*
X180728400Y-81812900D02*
X185228400Y-81812900D01*
X186338400Y-90202900D02*
X186338400Y-90702900D01*
X192448400Y-86702900D02*
X192448400Y-80392900D01*
X191838400Y-90202900D02*
X186338400Y-90202900D01*
X186338400Y-90702900D02*
X191838400Y-90702900D01*
X180728400Y-93012900D02*
X180728400Y-91592900D01*
X186338400Y-85702900D02*
X191838400Y-85702900D01*
X186338400Y-83202900D02*
X191838400Y-83202900D01*
X191838400Y-90702900D02*
X191838400Y-90202900D01*
X192448400Y-80392900D02*
X180728400Y-80392900D01*
X181038400Y-90752900D02*
X181038400Y-90152900D01*
X181638400Y-90452900D02*
X181038400Y-90752900D01*
X191838400Y-82702900D02*
X186338400Y-82702900D01*
%TO.C,LED5-GPIO23*%
X115841200Y-130602000D02*
X115241200Y-130302000D01*
X110541200Y-133052000D02*
X110541200Y-132552000D01*
X104431200Y-134052000D02*
X104431200Y-140362000D01*
X105041200Y-138052000D02*
X110541200Y-138052000D01*
X110541200Y-138052000D02*
X110541200Y-137552000D01*
X104431200Y-134052000D02*
X104431200Y-127742000D01*
X105041200Y-135552000D02*
X110541200Y-135552000D01*
X110541200Y-130052000D02*
X105041200Y-130052000D01*
X104431200Y-127742000D02*
X116151200Y-127742000D01*
X111651200Y-129162000D02*
X111651200Y-134052000D01*
X105041200Y-135052000D02*
X105041200Y-135552000D01*
X115841200Y-130002000D02*
X115841200Y-130602000D01*
X104431200Y-140362000D02*
X116151200Y-140362000D01*
X111651200Y-138942000D02*
X111651200Y-134052000D01*
X105041200Y-137552000D02*
X105041200Y-138052000D01*
X110541200Y-130552000D02*
X110541200Y-130052000D01*
X116151200Y-127742000D02*
X116151200Y-129162000D01*
X110541200Y-135052000D02*
X105041200Y-135052000D01*
X116151200Y-140362000D02*
X116151200Y-138942000D01*
X116151200Y-138942000D02*
X111651200Y-138942000D01*
X115241200Y-130302000D02*
X115841200Y-130002000D01*
X116151200Y-129162000D02*
X111651200Y-129162000D01*
X105041200Y-133052000D02*
X110541200Y-133052000D01*
X105041200Y-130552000D02*
X110541200Y-130552000D01*
X110541200Y-132552000D02*
X105041200Y-132552000D01*
X110541200Y-135552000D02*
X110541200Y-135052000D01*
X105041200Y-132552000D02*
X105041200Y-133052000D01*
X110541200Y-137552000D02*
X105041200Y-137552000D01*
X105041200Y-130052000D02*
X105041200Y-130552000D01*
%TO.C,LED7-GPIO33*%
X192448400Y-118478300D02*
X192448400Y-124788300D01*
X191838400Y-121978300D02*
X186338400Y-121978300D01*
X180728400Y-112168300D02*
X180728400Y-113588300D01*
X191838400Y-117478300D02*
X191838400Y-116978300D01*
X180728400Y-123368300D02*
X185228400Y-123368300D01*
X191838400Y-122478300D02*
X191838400Y-121978300D01*
X180728400Y-124788300D02*
X180728400Y-123368300D01*
X186338400Y-117478300D02*
X191838400Y-117478300D01*
X181638400Y-122228300D02*
X181038400Y-122528300D01*
X186338400Y-114978300D02*
X191838400Y-114978300D01*
X186338400Y-122478300D02*
X191838400Y-122478300D01*
X186338400Y-119478300D02*
X186338400Y-119978300D01*
X191838400Y-116978300D02*
X186338400Y-116978300D01*
X186338400Y-114478300D02*
X186338400Y-114978300D01*
X191838400Y-119978300D02*
X191838400Y-119478300D01*
X191838400Y-114478300D02*
X186338400Y-114478300D01*
X181038400Y-121928300D02*
X181638400Y-122228300D01*
X192448400Y-112168300D02*
X180728400Y-112168300D01*
X185228400Y-113588300D02*
X185228400Y-118478300D01*
X191838400Y-114978300D02*
X191838400Y-114478300D01*
X181038400Y-122528300D02*
X181038400Y-121928300D01*
X191838400Y-119478300D02*
X186338400Y-119478300D01*
X186338400Y-116978300D02*
X186338400Y-117478300D01*
X186338400Y-119978300D02*
X191838400Y-119978300D01*
X180728400Y-113588300D02*
X185228400Y-113588300D01*
X192448400Y-124788300D02*
X180728400Y-124788300D01*
X185228400Y-123368300D02*
X185228400Y-118478300D01*
X186338400Y-121978300D02*
X186338400Y-122478300D01*
X192448400Y-118478300D02*
X192448400Y-112168300D01*
%TO.C,LED8-GPIO25*%
X186338400Y-101590600D02*
X191838400Y-101590600D01*
X186338400Y-103590600D02*
X186338400Y-104090600D01*
X186338400Y-104090600D02*
X191838400Y-104090600D01*
X191838400Y-98590600D02*
X186338400Y-98590600D01*
X180728400Y-108900600D02*
X180728400Y-107480600D01*
X191838400Y-106590600D02*
X191838400Y-106090600D01*
X180728400Y-107480600D02*
X185228400Y-107480600D01*
X192448400Y-108900600D02*
X180728400Y-108900600D01*
X192448400Y-96280600D02*
X180728400Y-96280600D01*
X185228400Y-107480600D02*
X185228400Y-102590600D01*
X181638400Y-106340600D02*
X181038400Y-106640600D01*
X186338400Y-106590600D02*
X191838400Y-106590600D01*
X180728400Y-96280600D02*
X180728400Y-97700600D01*
X180728400Y-97700600D02*
X185228400Y-97700600D01*
X186338400Y-101090600D02*
X186338400Y-101590600D01*
X186338400Y-106090600D02*
X186338400Y-106590600D01*
X186338400Y-98590600D02*
X186338400Y-99090600D01*
X181038400Y-106040600D02*
X181638400Y-106340600D01*
X191838400Y-106090600D02*
X186338400Y-106090600D01*
X181038400Y-106640600D02*
X181038400Y-106040600D01*
X192448400Y-102590600D02*
X192448400Y-96280600D01*
X186338400Y-99090600D02*
X191838400Y-99090600D01*
X191838400Y-99090600D02*
X191838400Y-98590600D01*
X191838400Y-101090600D02*
X186338400Y-101090600D01*
X185228400Y-97700600D02*
X185228400Y-102590600D01*
X192448400Y-102590600D02*
X192448400Y-108900600D01*
X191838400Y-101590600D02*
X191838400Y-101090600D01*
X191838400Y-104090600D02*
X191838400Y-103590600D01*
X191838400Y-103590600D02*
X186338400Y-103590600D01*
%TO.C,LED4-GPIO22*%
X105041200Y-114664300D02*
X110541200Y-114664300D01*
X105041200Y-114164300D02*
X105041200Y-114664300D01*
X110541200Y-119164300D02*
X105041200Y-119164300D01*
X105041200Y-117164300D02*
X110541200Y-117164300D01*
X105041200Y-116664300D02*
X105041200Y-117164300D01*
X116151200Y-113274300D02*
X111651200Y-113274300D01*
X105041200Y-119664300D02*
X110541200Y-119664300D01*
X110541200Y-119664300D02*
X110541200Y-119164300D01*
X104431200Y-124474300D02*
X116151200Y-124474300D01*
X115241200Y-114414300D02*
X115841200Y-114114300D01*
X110541200Y-121664300D02*
X105041200Y-121664300D01*
X111651200Y-113274300D02*
X111651200Y-118164300D01*
X110541200Y-116664300D02*
X105041200Y-116664300D01*
X105041200Y-119164300D02*
X105041200Y-119664300D01*
X104431200Y-111854300D02*
X116151200Y-111854300D01*
X116151200Y-123054300D02*
X111651200Y-123054300D01*
X115841200Y-114114300D02*
X115841200Y-114714300D01*
X104431200Y-118164300D02*
X104431200Y-124474300D01*
X104431200Y-118164300D02*
X104431200Y-111854300D01*
X110541200Y-122164300D02*
X110541200Y-121664300D01*
X116151200Y-124474300D02*
X116151200Y-123054300D01*
X110541200Y-114664300D02*
X110541200Y-114164300D01*
X115841200Y-114714300D02*
X115241200Y-114414300D01*
X111651200Y-123054300D02*
X111651200Y-118164300D01*
X105041200Y-122164300D02*
X110541200Y-122164300D01*
X116151200Y-111854300D02*
X116151200Y-113274300D01*
X110541200Y-117164300D02*
X110541200Y-116664300D01*
X105041200Y-121664300D02*
X105041200Y-122164300D01*
X110541200Y-114164300D02*
X105041200Y-114164300D01*
%TD*%
D14*
%TO.C,12V*%
X162509200Y-105260400D03*
%TD*%
D15*
%TO.C,GND*%
X171015200Y-105260400D03*
%TD*%
%LPC*%
D16*
%TO.C,U1*%
X139988800Y-122725800D03*
D17*
X130488800Y-130225800D03*
X130488800Y-128955800D03*
X130488800Y-127685800D03*
X130488800Y-126415800D03*
X130488800Y-125145800D03*
X130488800Y-123875800D03*
X130488800Y-122605800D03*
X130488800Y-121335800D03*
X130488800Y-120065800D03*
X130488800Y-118795800D03*
X130488800Y-117525800D03*
X130488800Y-116255800D03*
X130488800Y-114985800D03*
X130488800Y-113715800D03*
D18*
X133273800Y-112715800D03*
X134543800Y-112715800D03*
X135813800Y-112715800D03*
X137083800Y-112715800D03*
X138353800Y-112715800D03*
X139623800Y-112715800D03*
X140893800Y-112715800D03*
X142163800Y-112715800D03*
X143433800Y-112715800D03*
X144703800Y-112715800D03*
D17*
X147488800Y-113715800D03*
X147488800Y-114985800D03*
X147488800Y-116255800D03*
X147488800Y-117525800D03*
X147488800Y-118795800D03*
X147488800Y-120065800D03*
X147488800Y-121335800D03*
X147488800Y-122605800D03*
X147488800Y-123875800D03*
X147488800Y-125145800D03*
X147488800Y-126415800D03*
X147488800Y-127685800D03*
X147488800Y-128955800D03*
X147488800Y-130225800D03*
%TD*%
D14*
%TO.C,12V*%
X162509200Y-105260400D03*
%TD*%
D19*
%TO.C,LED10-GPIO27*%
X183138400Y-74565200D03*
D20*
X183138400Y-72065200D03*
X183138400Y-69565200D03*
X183138400Y-67065200D03*
%TD*%
D21*
%TO.C, *%
X120038400Y-138766800D03*
%TD*%
D22*
%TO.C,LED1-GPIO4*%
X113741200Y-66751200D03*
D20*
X113741200Y-69251200D03*
X113741200Y-71751200D03*
X113741200Y-74251200D03*
%TD*%
D22*
%TO.C,LED3-GPIO17*%
X113741200Y-98526600D03*
D20*
X113741200Y-101026600D03*
X113741200Y-103526600D03*
X113741200Y-106026600D03*
%TD*%
D23*
%TO.C,H1*%
X147320000Y-108432600D03*
D24*
X144780000Y-108432600D03*
X147320000Y-105892600D03*
X144780000Y-105892600D03*
X147320000Y-103352600D03*
X144780000Y-103352600D03*
%TD*%
D25*
%TO.C,U2*%
X171704000Y-95605600D03*
D26*
X171704000Y-77825600D03*
X131064000Y-77825600D03*
X131064000Y-95605600D03*
%TD*%
D19*
%TO.C,LED6-GPIO32*%
X183138400Y-138116000D03*
D20*
X183138400Y-135616000D03*
X183138400Y-133116000D03*
X183138400Y-130616000D03*
%TD*%
D21*
%TO.C, *%
X166776400Y-133946400D03*
%TD*%
D22*
%TO.C,LED2-GPIO16*%
X113741200Y-82638900D03*
D20*
X113741200Y-85138900D03*
X113741200Y-87638900D03*
X113741200Y-90138900D03*
%TD*%
D15*
%TO.C,GND*%
X171015200Y-105260400D03*
%TD*%
D19*
%TO.C,LED9-GPIO26*%
X183138400Y-90452900D03*
D20*
X183138400Y-87952900D03*
X183138400Y-85452900D03*
X183138400Y-82952900D03*
%TD*%
D21*
%TO.C, *%
X176836800Y-138766800D03*
%TD*%
D22*
%TO.C,LED5-GPIO23*%
X113741200Y-130302000D03*
D20*
X113741200Y-132802000D03*
X113741200Y-135302000D03*
X113741200Y-137802000D03*
%TD*%
D21*
%TO.C, *%
X120038400Y-66804800D03*
%TD*%
D19*
%TO.C,LED7-GPIO33*%
X183138400Y-122228300D03*
D20*
X183138400Y-119728300D03*
X183138400Y-117228300D03*
X183138400Y-114728300D03*
%TD*%
D19*
%TO.C,LED8-GPIO25*%
X183138400Y-106340600D03*
D20*
X183138400Y-103840600D03*
X183138400Y-101340600D03*
X183138400Y-98840600D03*
%TD*%
D21*
%TO.C, *%
X176836800Y-66804800D03*
%TD*%
D22*
%TO.C,LED4-GPIO22*%
X113741200Y-114414300D03*
D20*
X113741200Y-116914300D03*
X113741200Y-119414300D03*
X113741200Y-121914300D03*
%TD*%
M02*
