M48
; DRILL file {KiCad (6.0.6)} date Mon Jan 23 13:40:43 2023
; FORMAT={-:-/ absolute / inch / decimal}
; #@! TF.CreationDate,2023-01-23T13:40:43-05:00
; #@! TF.GenerationSoftware,Kicad,Pcbnew,(6.0.6)
; #@! TF.FileFunction,Plated,1,2,PTH
FMAT,2
INCH
; #@! TA.AperFunction,Plated,PTH,ViaDrill
T1C0.0157
; #@! TA.AperFunction,Plated,PTH,ViaDrill
T2C0.0394
; #@! TA.AperFunction,Plated,PTH,ComponentDrill
T3C0.0394
; #@! TA.AperFunction,Plated,PTH,ComponentDrill
T4C0.0630
; #@! TA.AperFunction,Plated,PTH,ComponentDrill
T5C0.0709
; #@! TA.AperFunction,Plated,PTH,ComponentDrill
T6C0.0866
%
G90
G05
T1
X4.3272Y-2.3608
X4.3272Y-3.0808
X4.3272Y-3.8008
X4.3272Y-4.5208
X4.3272Y-5.2408
X4.8161Y-5.0664
X4.8161Y-5.1164
X4.9736Y-4.5664
X4.9736Y-4.6164
X4.9736Y-4.6664
X5.1375Y-4.5565
X5.219Y-4.626
X5.2377Y-3.8083
X5.303Y-4.697
X5.3283Y-3.8083
X5.402Y-4.193
X5.402Y-4.779
X5.5066Y-4.6164
X5.5066Y-4.6664
X5.5066Y-4.7164
X5.5066Y-4.7664
X5.5066Y-4.8164
X6.1428Y-2.4592
X6.1428Y-3.1792
X6.1428Y-3.8992
X6.1428Y-4.6192
X6.1428Y-5.3392
T2
X4.2144Y-2.2624
X4.2144Y-2.9824
X4.2144Y-3.7024
X4.2144Y-4.4224
X4.2144Y-5.1424
X6.2434Y-2.5576
X6.2434Y-3.2776
X6.2434Y-3.9976
X6.2434Y-4.7176
X6.2434Y-5.4376
T3
X5.1375Y-4.1416
X5.1375Y-4.2416
X5.2375Y-4.1416
X5.2375Y-4.2416
X5.3375Y-4.1416
X5.3375Y-4.2416
T4
X4.884Y-2.4459
X5.069Y-2.3278
X5.069Y-2.564
T5
X5.0709Y-3.5418
X5.4057Y-3.5418
T6
X4.7259Y-2.2349
X4.7259Y-5.542
X5.2377Y-2.4124
X5.7495Y-2.2349
X5.7495Y-5.542
T0
M30
