%TF.GenerationSoftware,KiCad,Pcbnew,(6.0.6)*%
%TF.CreationDate,2022-12-02T03:24:18-05:00*%
%TF.ProjectId,esp32-wled,65737033-322d-4776-9c65-642e6b696361,rev?*%
%TF.SameCoordinates,Original*%
%TF.FileFunction,Legend,Bot*%
%TF.FilePolarity,Positive*%
%FSLAX46Y46*%
G04 Gerber Fmt 4.6, Leading zero omitted, Abs format (unit mm)*
G04 Created by KiCad (PCBNEW (6.0.6)) date 2022-12-02 03:24:18*
%MOMM*%
%LPD*%
G01*
G04 APERTURE LIST*
G04 Aperture macros list*
%AMRoundRect*
0 Rectangle with rounded corners*
0 $1 Rounding radius*
0 $2 $3 $4 $5 $6 $7 $8 $9 X,Y pos of 4 corners*
0 Add a 4 corners polygon primitive as box body*
4,1,4,$2,$3,$4,$5,$6,$7,$8,$9,$2,$3,0*
0 Add four circle primitives for the rounded corners*
1,1,$1+$1,$2,$3*
1,1,$1+$1,$4,$5*
1,1,$1+$1,$6,$7*
1,1,$1+$1,$8,$9*
0 Add four rect primitives between the rounded corners*
20,1,$1+$1,$2,$3,$4,$5,0*
20,1,$1+$1,$4,$5,$6,$7,0*
20,1,$1+$1,$6,$7,$8,$9,0*
20,1,$1+$1,$8,$9,$2,$3,0*%
G04 Aperture macros list end*
%ADD10C,0.150000*%
%ADD11RoundRect,0.550000X-0.550000X-0.550000X0.550000X-0.550000X0.550000X0.550000X-0.550000X0.550000X0*%
%ADD12RoundRect,0.250000X0.725000X-0.600000X0.725000X0.600000X-0.725000X0.600000X-0.725000X-0.600000X0*%
%ADD13O,1.950000X1.700000*%
%ADD14C,3.800000*%
%ADD15RoundRect,0.250000X-0.725000X0.600000X-0.725000X-0.600000X0.725000X-0.600000X0.725000X0.600000X0*%
%ADD16R,1.700000X1.700000*%
%ADD17O,1.700000X1.700000*%
%ADD18R,2.540000X2.540000*%
%ADD19C,2.540000*%
%ADD20C,2.200000*%
G04 APERTURE END LIST*
D10*
X143861847Y-140955780D02*
X143861847Y-141670066D01*
X143909466Y-141812923D01*
X144004704Y-141908161D01*
X144147561Y-141955780D01*
X144242800Y-141955780D01*
X142909466Y-141955780D02*
X143385657Y-141955780D01*
X143385657Y-140955780D01*
X142004704Y-141860542D02*
X142052323Y-141908161D01*
X142195180Y-141955780D01*
X142290419Y-141955780D01*
X142433276Y-141908161D01*
X142528514Y-141812923D01*
X142576133Y-141717685D01*
X142623752Y-141527209D01*
X142623752Y-141384352D01*
X142576133Y-141193876D01*
X142528514Y-141098638D01*
X142433276Y-141003400D01*
X142290419Y-140955780D01*
X142195180Y-140955780D01*
X142052323Y-141003400D01*
X142004704Y-141051019D01*
X141290419Y-140955780D02*
X141290419Y-141670066D01*
X141338038Y-141812923D01*
X141433276Y-141908161D01*
X141576133Y-141955780D01*
X141671371Y-141955780D01*
X140338038Y-141955780D02*
X140814228Y-141955780D01*
X140814228Y-140955780D01*
X139433276Y-141860542D02*
X139480895Y-141908161D01*
X139623752Y-141955780D01*
X139718990Y-141955780D01*
X139861847Y-141908161D01*
X139957085Y-141812923D01*
X140004704Y-141717685D01*
X140052323Y-141527209D01*
X140052323Y-141384352D01*
X140004704Y-141193876D01*
X139957085Y-141098638D01*
X139861847Y-141003400D01*
X139718990Y-140955780D01*
X139623752Y-140955780D01*
X139480895Y-141003400D01*
X139433276Y-141051019D01*
X138718990Y-140955780D02*
X138718990Y-141670066D01*
X138766609Y-141812923D01*
X138861847Y-141908161D01*
X139004704Y-141955780D01*
X139099942Y-141955780D01*
X137766609Y-141955780D02*
X138242800Y-141955780D01*
X138242800Y-140955780D01*
X136861847Y-141860542D02*
X136909466Y-141908161D01*
X137052323Y-141955780D01*
X137147561Y-141955780D01*
X137290419Y-141908161D01*
X137385657Y-141812923D01*
X137433276Y-141717685D01*
X137480895Y-141527209D01*
X137480895Y-141384352D01*
X137433276Y-141193876D01*
X137385657Y-141098638D01*
X137290419Y-141003400D01*
X137147561Y-140955780D01*
X137052323Y-140955780D01*
X136909466Y-141003400D01*
X136861847Y-141051019D01*
X136147561Y-140955780D02*
X136147561Y-141670066D01*
X136195180Y-141812923D01*
X136290419Y-141908161D01*
X136433276Y-141955780D01*
X136528514Y-141955780D01*
X135195180Y-141955780D02*
X135671371Y-141955780D01*
X135671371Y-140955780D01*
X134290419Y-141860542D02*
X134338038Y-141908161D01*
X134480895Y-141955780D01*
X134576133Y-141955780D01*
X134718990Y-141908161D01*
X134814228Y-141812923D01*
X134861847Y-141717685D01*
X134909466Y-141527209D01*
X134909466Y-141384352D01*
X134861847Y-141193876D01*
X134814228Y-141098638D01*
X134718990Y-141003400D01*
X134576133Y-140955780D01*
X134480895Y-140955780D01*
X134338038Y-141003400D01*
X134290419Y-141051019D01*
%LPC*%
D11*
%TO.C,12V*%
X162509200Y-105260400D03*
%TD*%
D12*
%TO.C,LED10-GPIO27*%
X183138400Y-74565200D03*
D13*
X183138400Y-72065200D03*
X183138400Y-69565200D03*
X183138400Y-67065200D03*
%TD*%
D14*
%TO.C, *%
X120038400Y-138766800D03*
%TD*%
D15*
%TO.C,LED1-GPIO4*%
X113741200Y-66751200D03*
D13*
X113741200Y-69251200D03*
X113741200Y-71751200D03*
X113741200Y-74251200D03*
%TD*%
D15*
%TO.C,LED3-GPIO17*%
X113741200Y-98526600D03*
D13*
X113741200Y-101026600D03*
X113741200Y-103526600D03*
X113741200Y-106026600D03*
%TD*%
D16*
%TO.C,H1*%
X147320000Y-108432600D03*
D17*
X144780000Y-108432600D03*
X147320000Y-105892600D03*
X144780000Y-105892600D03*
X147320000Y-103352600D03*
X144780000Y-103352600D03*
%TD*%
D18*
%TO.C,U2*%
X171704000Y-95605600D03*
D19*
X171704000Y-77825600D03*
X131064000Y-77825600D03*
X131064000Y-95605600D03*
%TD*%
D12*
%TO.C,LED6-GPIO32*%
X183138400Y-138116000D03*
D13*
X183138400Y-135616000D03*
X183138400Y-133116000D03*
X183138400Y-130616000D03*
%TD*%
D14*
%TO.C, *%
X166776400Y-133946400D03*
%TD*%
D15*
%TO.C,LED2-GPIO16*%
X113741200Y-82638900D03*
D13*
X113741200Y-85138900D03*
X113741200Y-87638900D03*
X113741200Y-90138900D03*
%TD*%
D20*
%TO.C,GND*%
X171015200Y-105260400D03*
%TD*%
D12*
%TO.C,LED9-GPIO26*%
X183138400Y-90452900D03*
D13*
X183138400Y-87952900D03*
X183138400Y-85452900D03*
X183138400Y-82952900D03*
%TD*%
D14*
%TO.C, *%
X176836800Y-138766800D03*
%TD*%
D15*
%TO.C,LED5-GPIO23*%
X113741200Y-130302000D03*
D13*
X113741200Y-132802000D03*
X113741200Y-135302000D03*
X113741200Y-137802000D03*
%TD*%
D14*
%TO.C, *%
X120038400Y-66804800D03*
%TD*%
D12*
%TO.C,LED7-GPIO33*%
X183138400Y-122228300D03*
D13*
X183138400Y-119728300D03*
X183138400Y-117228300D03*
X183138400Y-114728300D03*
%TD*%
D12*
%TO.C,LED8-GPIO25*%
X183138400Y-106340600D03*
D13*
X183138400Y-103840600D03*
X183138400Y-101340600D03*
X183138400Y-98840600D03*
%TD*%
D14*
%TO.C, *%
X176836800Y-66804800D03*
%TD*%
D15*
%TO.C,LED4-GPIO22*%
X113741200Y-114414300D03*
D13*
X113741200Y-116914300D03*
X113741200Y-119414300D03*
X113741200Y-121914300D03*
%TD*%
M02*
