%TF.GenerationSoftware,KiCad,Pcbnew,(6.0.6)*%
%TF.CreationDate,2022-12-02T03:24:18-05:00*%
%TF.ProjectId,esp32-wled,65737033-322d-4776-9c65-642e6b696361,rev?*%
%TF.SameCoordinates,Original*%
%TF.FileFunction,Soldermask,Bot*%
%TF.FilePolarity,Negative*%
%FSLAX46Y46*%
G04 Gerber Fmt 4.6, Leading zero omitted, Abs format (unit mm)*
G04 Created by KiCad (PCBNEW (6.0.6)) date 2022-12-02 03:24:18*
%MOMM*%
%LPD*%
G01*
G04 APERTURE LIST*
G04 Aperture macros list*
%AMRoundRect*
0 Rectangle with rounded corners*
0 $1 Rounding radius*
0 $2 $3 $4 $5 $6 $7 $8 $9 X,Y pos of 4 corners*
0 Add a 4 corners polygon primitive as box body*
4,1,4,$2,$3,$4,$5,$6,$7,$8,$9,$2,$3,0*
0 Add four circle primitives for the rounded corners*
1,1,$1+$1,$2,$3*
1,1,$1+$1,$4,$5*
1,1,$1+$1,$6,$7*
1,1,$1+$1,$8,$9*
0 Add four rect primitives between the rounded corners*
20,1,$1+$1,$2,$3,$4,$5,0*
20,1,$1+$1,$4,$5,$6,$7,0*
20,1,$1+$1,$6,$7,$8,$9,0*
20,1,$1+$1,$8,$9,$2,$3,0*%
G04 Aperture macros list end*
%ADD10RoundRect,0.550000X-0.550000X-0.550000X0.550000X-0.550000X0.550000X0.550000X-0.550000X0.550000X0*%
%ADD11RoundRect,0.250000X0.725000X-0.600000X0.725000X0.600000X-0.725000X0.600000X-0.725000X-0.600000X0*%
%ADD12O,1.950000X1.700000*%
%ADD13C,3.800000*%
%ADD14RoundRect,0.250000X-0.725000X0.600000X-0.725000X-0.600000X0.725000X-0.600000X0.725000X0.600000X0*%
%ADD15R,1.700000X1.700000*%
%ADD16O,1.700000X1.700000*%
%ADD17R,2.540000X2.540000*%
%ADD18C,2.540000*%
%ADD19C,2.200000*%
G04 APERTURE END LIST*
D10*
%TO.C,12V*%
X162509200Y-105260400D03*
%TD*%
D11*
%TO.C,LED10-GPIO27*%
X183138400Y-74565200D03*
D12*
X183138400Y-72065200D03*
X183138400Y-69565200D03*
X183138400Y-67065200D03*
%TD*%
D13*
%TO.C, *%
X120038400Y-138766800D03*
%TD*%
D14*
%TO.C,LED1-GPIO4*%
X113741200Y-66751200D03*
D12*
X113741200Y-69251200D03*
X113741200Y-71751200D03*
X113741200Y-74251200D03*
%TD*%
D14*
%TO.C,LED3-GPIO17*%
X113741200Y-98526600D03*
D12*
X113741200Y-101026600D03*
X113741200Y-103526600D03*
X113741200Y-106026600D03*
%TD*%
D15*
%TO.C,H1*%
X147320000Y-108432600D03*
D16*
X144780000Y-108432600D03*
X147320000Y-105892600D03*
X144780000Y-105892600D03*
X147320000Y-103352600D03*
X144780000Y-103352600D03*
%TD*%
D17*
%TO.C,U2*%
X171704000Y-95605600D03*
D18*
X171704000Y-77825600D03*
X131064000Y-77825600D03*
X131064000Y-95605600D03*
%TD*%
D11*
%TO.C,LED6-GPIO32*%
X183138400Y-138116000D03*
D12*
X183138400Y-135616000D03*
X183138400Y-133116000D03*
X183138400Y-130616000D03*
%TD*%
D13*
%TO.C, *%
X166776400Y-133946400D03*
%TD*%
D14*
%TO.C,LED2-GPIO16*%
X113741200Y-82638900D03*
D12*
X113741200Y-85138900D03*
X113741200Y-87638900D03*
X113741200Y-90138900D03*
%TD*%
D19*
%TO.C,GND*%
X171015200Y-105260400D03*
%TD*%
D11*
%TO.C,LED9-GPIO26*%
X183138400Y-90452900D03*
D12*
X183138400Y-87952900D03*
X183138400Y-85452900D03*
X183138400Y-82952900D03*
%TD*%
D13*
%TO.C, *%
X176836800Y-138766800D03*
%TD*%
D14*
%TO.C,LED5-GPIO23*%
X113741200Y-130302000D03*
D12*
X113741200Y-132802000D03*
X113741200Y-135302000D03*
X113741200Y-137802000D03*
%TD*%
D13*
%TO.C, *%
X120038400Y-66804800D03*
%TD*%
D11*
%TO.C,LED7-GPIO33*%
X183138400Y-122228300D03*
D12*
X183138400Y-119728300D03*
X183138400Y-117228300D03*
X183138400Y-114728300D03*
%TD*%
D11*
%TO.C,LED8-GPIO25*%
X183138400Y-106340600D03*
D12*
X183138400Y-103840600D03*
X183138400Y-101340600D03*
X183138400Y-98840600D03*
%TD*%
D13*
%TO.C, *%
X176836800Y-66804800D03*
%TD*%
D14*
%TO.C,LED4-GPIO22*%
X113741200Y-114414300D03*
D12*
X113741200Y-116914300D03*
X113741200Y-119414300D03*
X113741200Y-121914300D03*
%TD*%
M02*
