%TF.GenerationSoftware,KiCad,Pcbnew,(6.0.6)*%
%TF.CreationDate,2023-01-23T13:41:07-05:00*%
%TF.ProjectId,esp32-wled,65737033-322d-4776-9c65-642e6b696361,rev?*%
%TF.SameCoordinates,Original*%
%TF.FileFunction,Legend,Top*%
%TF.FilePolarity,Positive*%
%FSLAX46Y46*%
G04 Gerber Fmt 4.6, Leading zero omitted, Abs format (unit mm)*
G04 Created by KiCad (PCBNEW (6.0.6)) date 2023-01-23 13:41:07*
%MOMM*%
%LPD*%
G01*
G04 APERTURE LIST*
G04 Aperture macros list*
%AMRoundRect*
0 Rectangle with rounded corners*
0 $1 Rounding radius*
0 $2 $3 $4 $5 $6 $7 $8 $9 X,Y pos of 4 corners*
0 Add a 4 corners polygon primitive as box body*
4,1,4,$2,$3,$4,$5,$6,$7,$8,$9,$2,$3,0*
0 Add four circle primitives for the rounded corners*
1,1,$1+$1,$2,$3*
1,1,$1+$1,$4,$5*
1,1,$1+$1,$6,$7*
1,1,$1+$1,$8,$9*
0 Add four rect primitives between the rounded corners*
20,1,$1+$1,$2,$3,$4,$5,0*
20,1,$1+$1,$4,$5,$6,$7,0*
20,1,$1+$1,$6,$7,$8,$9,0*
20,1,$1+$1,$8,$9,$2,$3,0*%
G04 Aperture macros list end*
%ADD10C,0.300000*%
%ADD11C,0.150000*%
%ADD12C,0.120000*%
%ADD13RoundRect,0.550000X0.550000X0.550000X-0.550000X0.550000X-0.550000X-0.550000X0.550000X-0.550000X0*%
%ADD14C,2.200000*%
G04 APERTURE END LIST*
D10*
X125368314Y-78041928D02*
X125439742Y-77970500D01*
X125582600Y-77899071D01*
X125939742Y-77899071D01*
X126082600Y-77970500D01*
X126154028Y-78041928D01*
X126225457Y-78184785D01*
X126225457Y-78327642D01*
X126154028Y-78541928D01*
X125296885Y-79399071D01*
X126225457Y-79399071D01*
X127154028Y-77899071D02*
X127296885Y-77899071D01*
X127439742Y-77970500D01*
X127511171Y-78041928D01*
X127582600Y-78184785D01*
X127654028Y-78470500D01*
X127654028Y-78827642D01*
X127582600Y-79113357D01*
X127511171Y-79256214D01*
X127439742Y-79327642D01*
X127296885Y-79399071D01*
X127154028Y-79399071D01*
X127011171Y-79327642D01*
X126939742Y-79256214D01*
X126868314Y-79113357D01*
X126796885Y-78827642D01*
X126796885Y-78470500D01*
X126868314Y-78184785D01*
X126939742Y-78041928D01*
X127011171Y-77970500D01*
X127154028Y-77899071D01*
X128225457Y-78041928D02*
X128296885Y-77970500D01*
X128439742Y-77899071D01*
X128796885Y-77899071D01*
X128939742Y-77970500D01*
X129011171Y-78041928D01*
X129082600Y-78184785D01*
X129082600Y-78327642D01*
X129011171Y-78541928D01*
X128154028Y-79399071D01*
X129082600Y-79399071D01*
X129582600Y-77899071D02*
X130511171Y-77899071D01*
X130011171Y-78470500D01*
X130225457Y-78470500D01*
X130368314Y-78541928D01*
X130439742Y-78613357D01*
X130511171Y-78756214D01*
X130511171Y-79113357D01*
X130439742Y-79256214D01*
X130368314Y-79327642D01*
X130225457Y-79399071D01*
X129796885Y-79399071D01*
X129654028Y-79327642D01*
X129582600Y-79256214D01*
X132296885Y-79399071D02*
X132296885Y-77899071D01*
X132796885Y-78970500D01*
X133296885Y-77899071D01*
X133296885Y-79399071D01*
X134011171Y-79399071D02*
X134011171Y-78399071D01*
X134011171Y-77899071D02*
X133939742Y-77970500D01*
X134011171Y-78041928D01*
X134082600Y-77970500D01*
X134011171Y-77899071D01*
X134011171Y-78041928D01*
X134725457Y-79399071D02*
X134725457Y-77899071D01*
X134868314Y-78827642D02*
X135296885Y-79399071D01*
X135296885Y-78399071D02*
X134725457Y-78970500D01*
X136511171Y-79327642D02*
X136368314Y-79399071D01*
X136082600Y-79399071D01*
X135939742Y-79327642D01*
X135868314Y-79184785D01*
X135868314Y-78613357D01*
X135939742Y-78470500D01*
X136082600Y-78399071D01*
X136368314Y-78399071D01*
X136511171Y-78470500D01*
X136582600Y-78613357D01*
X136582600Y-78756214D01*
X135868314Y-78899071D01*
X138868314Y-78613357D02*
X138368314Y-78613357D01*
X138368314Y-79399071D02*
X138368314Y-77899071D01*
X139082600Y-77899071D01*
X139654028Y-79399071D02*
X139654028Y-78399071D01*
X139654028Y-77899071D02*
X139582600Y-77970500D01*
X139654028Y-78041928D01*
X139725457Y-77970500D01*
X139654028Y-77899071D01*
X139654028Y-78041928D01*
X140368314Y-78399071D02*
X140368314Y-79399071D01*
X140368314Y-78541928D02*
X140439742Y-78470500D01*
X140582600Y-78399071D01*
X140796885Y-78399071D01*
X140939742Y-78470500D01*
X141011171Y-78613357D01*
X141011171Y-79399071D01*
X141725457Y-79399071D02*
X141725457Y-77899071D01*
X141868314Y-78827642D02*
X142296885Y-79399071D01*
X142296885Y-78399071D02*
X141725457Y-78970500D01*
X125118314Y-81814071D02*
X125118314Y-80314071D01*
X125475457Y-80314071D01*
X125689742Y-80385500D01*
X125832600Y-80528357D01*
X125904028Y-80671214D01*
X125975457Y-80956928D01*
X125975457Y-81171214D01*
X125904028Y-81456928D01*
X125832600Y-81599785D01*
X125689742Y-81742642D01*
X125475457Y-81814071D01*
X125118314Y-81814071D01*
X126475457Y-80314071D02*
X126832600Y-81814071D01*
X127118314Y-80742642D01*
X127404028Y-81814071D01*
X127761171Y-80314071D01*
X128118314Y-80314071D02*
X128975457Y-80314071D01*
X128546885Y-81814071D02*
X128546885Y-80314071D01*
X129975457Y-81028357D02*
X129475457Y-81028357D01*
X129475457Y-81814071D02*
X129475457Y-80314071D01*
X130189742Y-80314071D01*
X131046885Y-81099785D02*
X131046885Y-81814071D01*
X130546885Y-80314071D02*
X131046885Y-81099785D01*
X131546885Y-80314071D01*
X131904028Y-80314071D02*
X132261171Y-81814071D01*
X132546885Y-80742642D01*
X132832600Y-81814071D01*
X133189742Y-80314071D01*
X135618314Y-81814071D02*
X134904028Y-81814071D01*
X134904028Y-80314071D01*
X136118314Y-81814071D02*
X136118314Y-80814071D01*
X136118314Y-80314071D02*
X136046885Y-80385500D01*
X136118314Y-80456928D01*
X136189742Y-80385500D01*
X136118314Y-80314071D01*
X136118314Y-80456928D01*
X137475457Y-81742642D02*
X137332600Y-81814071D01*
X137046885Y-81814071D01*
X136904028Y-81742642D01*
X136832600Y-81671214D01*
X136761171Y-81528357D01*
X136761171Y-81099785D01*
X136832600Y-80956928D01*
X136904028Y-80885500D01*
X137046885Y-80814071D01*
X137332600Y-80814071D01*
X137475457Y-80885500D01*
X138689742Y-81742642D02*
X138546885Y-81814071D01*
X138261171Y-81814071D01*
X138118314Y-81742642D01*
X138046885Y-81599785D01*
X138046885Y-81028357D01*
X138118314Y-80885500D01*
X138261171Y-80814071D01*
X138546885Y-80814071D01*
X138689742Y-80885500D01*
X138761171Y-81028357D01*
X138761171Y-81171214D01*
X138046885Y-81314071D01*
X139404028Y-80814071D02*
X139404028Y-81814071D01*
X139404028Y-80956928D02*
X139475457Y-80885500D01*
X139618314Y-80814071D01*
X139832600Y-80814071D01*
X139975457Y-80885500D01*
X140046885Y-81028357D01*
X140046885Y-81814071D01*
X140689742Y-81742642D02*
X140832600Y-81814071D01*
X141118314Y-81814071D01*
X141261171Y-81742642D01*
X141332600Y-81599785D01*
X141332600Y-81528357D01*
X141261171Y-81385500D01*
X141118314Y-81314071D01*
X140904028Y-81314071D01*
X140761171Y-81242642D01*
X140689742Y-81099785D01*
X140689742Y-81028357D01*
X140761171Y-80885500D01*
X140904028Y-80814071D01*
X141118314Y-80814071D01*
X141261171Y-80885500D01*
X142546885Y-81742642D02*
X142404028Y-81814071D01*
X142118314Y-81814071D01*
X141975457Y-81742642D01*
X141904028Y-81599785D01*
X141904028Y-81028357D01*
X141975457Y-80885500D01*
X142118314Y-80814071D01*
X142404028Y-80814071D01*
X142546885Y-80885500D01*
X142618314Y-81028357D01*
X142618314Y-81171214D01*
X141904028Y-81314071D01*
X123404028Y-83229071D02*
X123404028Y-84443357D01*
X123332600Y-84586214D01*
X123261171Y-84657642D01*
X123118314Y-84729071D01*
X122904028Y-84729071D01*
X122761171Y-84657642D01*
X123404028Y-84157642D02*
X123261171Y-84229071D01*
X122975457Y-84229071D01*
X122832600Y-84157642D01*
X122761171Y-84086214D01*
X122689742Y-83943357D01*
X122689742Y-83514785D01*
X122761171Y-83371928D01*
X122832600Y-83300500D01*
X122975457Y-83229071D01*
X123261171Y-83229071D01*
X123404028Y-83300500D01*
X124118314Y-84229071D02*
X124118314Y-83229071D01*
X124118314Y-82729071D02*
X124046885Y-82800500D01*
X124118314Y-82871928D01*
X124189742Y-82800500D01*
X124118314Y-82729071D01*
X124118314Y-82871928D01*
X124618314Y-83229071D02*
X125189742Y-83229071D01*
X124832600Y-82729071D02*
X124832600Y-84014785D01*
X124904028Y-84157642D01*
X125046885Y-84229071D01*
X125189742Y-84229071D01*
X125689742Y-84229071D02*
X125689742Y-82729071D01*
X126332600Y-84229071D02*
X126332600Y-83443357D01*
X126261171Y-83300500D01*
X126118314Y-83229071D01*
X125904028Y-83229071D01*
X125761171Y-83300500D01*
X125689742Y-83371928D01*
X127689742Y-83229071D02*
X127689742Y-84229071D01*
X127046885Y-83229071D02*
X127046885Y-84014785D01*
X127118314Y-84157642D01*
X127261171Y-84229071D01*
X127475457Y-84229071D01*
X127618314Y-84157642D01*
X127689742Y-84086214D01*
X128404028Y-84229071D02*
X128404028Y-82729071D01*
X128404028Y-83300500D02*
X128546885Y-83229071D01*
X128832600Y-83229071D01*
X128975457Y-83300500D01*
X129046885Y-83371928D01*
X129118314Y-83514785D01*
X129118314Y-83943357D01*
X129046885Y-84086214D01*
X128975457Y-84157642D01*
X128832600Y-84229071D01*
X128546885Y-84229071D01*
X128404028Y-84157642D01*
X129761171Y-84086214D02*
X129832600Y-84157642D01*
X129761171Y-84229071D01*
X129689742Y-84157642D01*
X129761171Y-84086214D01*
X129761171Y-84229071D01*
X131118314Y-84157642D02*
X130975457Y-84229071D01*
X130689742Y-84229071D01*
X130546885Y-84157642D01*
X130475457Y-84086214D01*
X130404028Y-83943357D01*
X130404028Y-83514785D01*
X130475457Y-83371928D01*
X130546885Y-83300500D01*
X130689742Y-83229071D01*
X130975457Y-83229071D01*
X131118314Y-83300500D01*
X131975457Y-84229071D02*
X131832600Y-84157642D01*
X131761171Y-84086214D01*
X131689742Y-83943357D01*
X131689742Y-83514785D01*
X131761171Y-83371928D01*
X131832600Y-83300500D01*
X131975457Y-83229071D01*
X132189742Y-83229071D01*
X132332600Y-83300500D01*
X132404028Y-83371928D01*
X132475457Y-83514785D01*
X132475457Y-83943357D01*
X132404028Y-84086214D01*
X132332600Y-84157642D01*
X132189742Y-84229071D01*
X131975457Y-84229071D01*
X133118314Y-84229071D02*
X133118314Y-83229071D01*
X133118314Y-83371928D02*
X133189742Y-83300500D01*
X133332600Y-83229071D01*
X133546885Y-83229071D01*
X133689742Y-83300500D01*
X133761171Y-83443357D01*
X133761171Y-84229071D01*
X133761171Y-83443357D02*
X133832600Y-83300500D01*
X133975457Y-83229071D01*
X134189742Y-83229071D01*
X134332600Y-83300500D01*
X134404028Y-83443357D01*
X134404028Y-84229071D01*
X136189742Y-82657642D02*
X134904028Y-84586214D01*
X136689742Y-84229071D02*
X136689742Y-83229071D01*
X136689742Y-83371928D02*
X136761171Y-83300500D01*
X136904028Y-83229071D01*
X137118314Y-83229071D01*
X137261171Y-83300500D01*
X137332600Y-83443357D01*
X137332600Y-84229071D01*
X137332600Y-83443357D02*
X137404028Y-83300500D01*
X137546885Y-83229071D01*
X137761171Y-83229071D01*
X137904028Y-83300500D01*
X137975457Y-83443357D01*
X137975457Y-84229071D01*
X138689742Y-84229071D02*
X138689742Y-82729071D01*
X138832600Y-83657642D02*
X139261171Y-84229071D01*
X139261171Y-83229071D02*
X138689742Y-83800500D01*
X139689742Y-83229071D02*
X140261171Y-83229071D01*
X139904028Y-84229071D02*
X139904028Y-82943357D01*
X139975457Y-82800500D01*
X140118314Y-82729071D01*
X140261171Y-82729071D01*
X140761171Y-84229071D02*
X140761171Y-83229071D01*
X140761171Y-82729071D02*
X140689742Y-82800500D01*
X140761171Y-82871928D01*
X140832600Y-82800500D01*
X140761171Y-82729071D01*
X140761171Y-82871928D01*
X141475457Y-83229071D02*
X141475457Y-84229071D01*
X141475457Y-83371928D02*
X141546885Y-83300500D01*
X141689742Y-83229071D01*
X141904028Y-83229071D01*
X142046885Y-83300500D01*
X142118314Y-83443357D01*
X142118314Y-84229071D01*
X142832600Y-84229071D02*
X142832600Y-82729071D01*
X142975457Y-83657642D02*
X143404028Y-84229071D01*
X143404028Y-83229071D02*
X142832600Y-83800500D01*
X145118314Y-82657642D02*
X143832600Y-84586214D01*
X121082600Y-86572642D02*
X120939742Y-86644071D01*
X120654028Y-86644071D01*
X120511171Y-86572642D01*
X120439742Y-86429785D01*
X120439742Y-85858357D01*
X120511171Y-85715500D01*
X120654028Y-85644071D01*
X120939742Y-85644071D01*
X121082600Y-85715500D01*
X121154028Y-85858357D01*
X121154028Y-86001214D01*
X120439742Y-86144071D01*
X121725457Y-86572642D02*
X121868314Y-86644071D01*
X122154028Y-86644071D01*
X122296885Y-86572642D01*
X122368314Y-86429785D01*
X122368314Y-86358357D01*
X122296885Y-86215500D01*
X122154028Y-86144071D01*
X121939742Y-86144071D01*
X121796885Y-86072642D01*
X121725457Y-85929785D01*
X121725457Y-85858357D01*
X121796885Y-85715500D01*
X121939742Y-85644071D01*
X122154028Y-85644071D01*
X122296885Y-85715500D01*
X123011171Y-85644071D02*
X123011171Y-87144071D01*
X123011171Y-85715500D02*
X123154028Y-85644071D01*
X123439742Y-85644071D01*
X123582600Y-85715500D01*
X123654028Y-85786928D01*
X123725457Y-85929785D01*
X123725457Y-86358357D01*
X123654028Y-86501214D01*
X123582600Y-86572642D01*
X123439742Y-86644071D01*
X123154028Y-86644071D01*
X123011171Y-86572642D01*
X124225457Y-85144071D02*
X125154028Y-85144071D01*
X124654028Y-85715500D01*
X124868314Y-85715500D01*
X125011171Y-85786928D01*
X125082600Y-85858357D01*
X125154028Y-86001214D01*
X125154028Y-86358357D01*
X125082600Y-86501214D01*
X125011171Y-86572642D01*
X124868314Y-86644071D01*
X124439742Y-86644071D01*
X124296885Y-86572642D01*
X124225457Y-86501214D01*
X125725457Y-85286928D02*
X125796885Y-85215500D01*
X125939742Y-85144071D01*
X126296885Y-85144071D01*
X126439742Y-85215500D01*
X126511171Y-85286928D01*
X126582600Y-85429785D01*
X126582600Y-85572642D01*
X126511171Y-85786928D01*
X125654028Y-86644071D01*
X126582600Y-86644071D01*
X127225457Y-86072642D02*
X128368314Y-86072642D01*
X129868314Y-86644071D02*
X129011171Y-86644071D01*
X129439742Y-86644071D02*
X129439742Y-85144071D01*
X129296885Y-85358357D01*
X129154028Y-85501214D01*
X129011171Y-85572642D01*
X130796885Y-85144071D02*
X130939742Y-85144071D01*
X131082600Y-85215500D01*
X131154028Y-85286928D01*
X131225457Y-85429785D01*
X131296885Y-85715500D01*
X131296885Y-86072642D01*
X131225457Y-86358357D01*
X131154028Y-86501214D01*
X131082600Y-86572642D01*
X130939742Y-86644071D01*
X130796885Y-86644071D01*
X130654028Y-86572642D01*
X130582600Y-86501214D01*
X130511171Y-86358357D01*
X130439742Y-86072642D01*
X130439742Y-85715500D01*
X130511171Y-85429785D01*
X130582600Y-85286928D01*
X130654028Y-85215500D01*
X130796885Y-85144071D01*
X131939742Y-86072642D02*
X133082600Y-86072642D01*
X134439742Y-86572642D02*
X134296885Y-86644071D01*
X134011171Y-86644071D01*
X133868314Y-86572642D01*
X133796885Y-86501214D01*
X133725457Y-86358357D01*
X133725457Y-85929785D01*
X133796885Y-85786928D01*
X133868314Y-85715500D01*
X134011171Y-85644071D01*
X134296885Y-85644071D01*
X134439742Y-85715500D01*
X135082600Y-86644071D02*
X135082600Y-85144071D01*
X135725457Y-86644071D02*
X135725457Y-85858357D01*
X135654028Y-85715500D01*
X135511171Y-85644071D01*
X135296885Y-85644071D01*
X135154028Y-85715500D01*
X135082600Y-85786928D01*
X137082600Y-86644071D02*
X137082600Y-85858357D01*
X137011171Y-85715500D01*
X136868314Y-85644071D01*
X136582600Y-85644071D01*
X136439742Y-85715500D01*
X137082600Y-86572642D02*
X136939742Y-86644071D01*
X136582600Y-86644071D01*
X136439742Y-86572642D01*
X136368314Y-86429785D01*
X136368314Y-86286928D01*
X136439742Y-86144071D01*
X136582600Y-86072642D01*
X136939742Y-86072642D01*
X137082600Y-86001214D01*
X137796885Y-85644071D02*
X137796885Y-86644071D01*
X137796885Y-85786928D02*
X137868314Y-85715500D01*
X138011171Y-85644071D01*
X138225457Y-85644071D01*
X138368314Y-85715500D01*
X138439742Y-85858357D01*
X138439742Y-86644071D01*
X139154028Y-85644071D02*
X139154028Y-86644071D01*
X139154028Y-85786928D02*
X139225457Y-85715500D01*
X139368314Y-85644071D01*
X139582600Y-85644071D01*
X139725457Y-85715500D01*
X139796885Y-85858357D01*
X139796885Y-86644071D01*
X141082600Y-86572642D02*
X140939742Y-86644071D01*
X140654028Y-86644071D01*
X140511171Y-86572642D01*
X140439742Y-86429785D01*
X140439742Y-85858357D01*
X140511171Y-85715500D01*
X140654028Y-85644071D01*
X140939742Y-85644071D01*
X141082600Y-85715500D01*
X141154028Y-85858357D01*
X141154028Y-86001214D01*
X140439742Y-86144071D01*
X142011171Y-86644071D02*
X141868314Y-86572642D01*
X141796885Y-86429785D01*
X141796885Y-85144071D01*
X142582600Y-86072642D02*
X143725457Y-86072642D01*
X144654028Y-86644071D02*
X144511171Y-86572642D01*
X144439742Y-86429785D01*
X144439742Y-85144071D01*
X145796885Y-86572642D02*
X145654028Y-86644071D01*
X145368314Y-86644071D01*
X145225457Y-86572642D01*
X145154028Y-86429785D01*
X145154028Y-85858357D01*
X145225457Y-85715500D01*
X145368314Y-85644071D01*
X145654028Y-85644071D01*
X145796885Y-85715500D01*
X145868314Y-85858357D01*
X145868314Y-86001214D01*
X145154028Y-86144071D01*
X147154028Y-86644071D02*
X147154028Y-85144071D01*
X147154028Y-86572642D02*
X147011171Y-86644071D01*
X146725457Y-86644071D01*
X146582600Y-86572642D01*
X146511171Y-86501214D01*
X146439742Y-86358357D01*
X146439742Y-85929785D01*
X146511171Y-85786928D01*
X146582600Y-85715500D01*
X146725457Y-85644071D01*
X147011171Y-85644071D01*
X147154028Y-85715500D01*
D11*
%TO.C,12V*%
X139995352Y-90393780D02*
X139423923Y-90393780D01*
X139709638Y-90393780D02*
X139709638Y-89393780D01*
X139614400Y-89536638D01*
X139519161Y-89631876D01*
X139423923Y-89679495D01*
X140376304Y-89489019D02*
X140423923Y-89441400D01*
X140519161Y-89393780D01*
X140757257Y-89393780D01*
X140852495Y-89441400D01*
X140900114Y-89489019D01*
X140947733Y-89584257D01*
X140947733Y-89679495D01*
X140900114Y-89822352D01*
X140328685Y-90393780D01*
X140947733Y-90393780D01*
X141233447Y-89393780D02*
X141566780Y-90393780D01*
X141900114Y-89393780D01*
%TO.C,LED10-GPIO27*%
X149764292Y-66142571D02*
X149764292Y-66618761D01*
X148764292Y-66618761D01*
X149240483Y-65809238D02*
X149240483Y-65475904D01*
X149764292Y-65333047D02*
X149764292Y-65809238D01*
X148764292Y-65809238D01*
X148764292Y-65333047D01*
X149764292Y-64904476D02*
X148764292Y-64904476D01*
X148764292Y-64666380D01*
X148811912Y-64523523D01*
X148907150Y-64428285D01*
X149002388Y-64380666D01*
X149192864Y-64333047D01*
X149335721Y-64333047D01*
X149526197Y-64380666D01*
X149621435Y-64428285D01*
X149716673Y-64523523D01*
X149764292Y-64666380D01*
X149764292Y-64904476D01*
X149764292Y-63380666D02*
X149764292Y-63952095D01*
X149764292Y-63666380D02*
X148764292Y-63666380D01*
X148907150Y-63761619D01*
X149002388Y-63856857D01*
X149050007Y-63952095D01*
X148764292Y-62761619D02*
X148764292Y-62666380D01*
X148811912Y-62571142D01*
X148859531Y-62523523D01*
X148954769Y-62475904D01*
X149145245Y-62428285D01*
X149383340Y-62428285D01*
X149573816Y-62475904D01*
X149669054Y-62523523D01*
X149716673Y-62571142D01*
X149764292Y-62666380D01*
X149764292Y-62761619D01*
X149716673Y-62856857D01*
X149669054Y-62904476D01*
X149573816Y-62952095D01*
X149383340Y-62999714D01*
X149145245Y-62999714D01*
X148954769Y-62952095D01*
X148859531Y-62904476D01*
X148811912Y-62856857D01*
X148764292Y-62761619D01*
X149383340Y-61999714D02*
X149383340Y-61237809D01*
X148811912Y-60237809D02*
X148764292Y-60333047D01*
X148764292Y-60475904D01*
X148811912Y-60618761D01*
X148907150Y-60714000D01*
X149002388Y-60761619D01*
X149192864Y-60809238D01*
X149335721Y-60809238D01*
X149526197Y-60761619D01*
X149621435Y-60714000D01*
X149716673Y-60618761D01*
X149764292Y-60475904D01*
X149764292Y-60380666D01*
X149716673Y-60237809D01*
X149669054Y-60190190D01*
X149335721Y-60190190D01*
X149335721Y-60380666D01*
X149764292Y-59761619D02*
X148764292Y-59761619D01*
X148764292Y-59380666D01*
X148811912Y-59285428D01*
X148859531Y-59237809D01*
X148954769Y-59190190D01*
X149097626Y-59190190D01*
X149192864Y-59237809D01*
X149240483Y-59285428D01*
X149288102Y-59380666D01*
X149288102Y-59761619D01*
X149764292Y-58761619D02*
X148764292Y-58761619D01*
X148764292Y-58094952D02*
X148764292Y-57904476D01*
X148811912Y-57809238D01*
X148907150Y-57714000D01*
X149097626Y-57666380D01*
X149430959Y-57666380D01*
X149621435Y-57714000D01*
X149716673Y-57809238D01*
X149764292Y-57904476D01*
X149764292Y-58094952D01*
X149716673Y-58190190D01*
X149621435Y-58285428D01*
X149430959Y-58333047D01*
X149097626Y-58333047D01*
X148907150Y-58285428D01*
X148811912Y-58190190D01*
X148764292Y-58094952D01*
X148859531Y-57285428D02*
X148811912Y-57237809D01*
X148764292Y-57142571D01*
X148764292Y-56904476D01*
X148811912Y-56809238D01*
X148859531Y-56761619D01*
X148954769Y-56714000D01*
X149050007Y-56714000D01*
X149192864Y-56761619D01*
X149764292Y-57333047D01*
X149764292Y-56714000D01*
X148764292Y-56380666D02*
X148764292Y-55714000D01*
X149764292Y-56142571D01*
%TO.C,R1*%
X146509980Y-103408076D02*
X146509980Y-103979504D01*
X146509980Y-103693790D02*
X145509980Y-103693790D01*
X145652838Y-103789028D01*
X145748076Y-103884266D01*
X145795695Y-103979504D01*
X145605219Y-103027123D02*
X145557600Y-102979504D01*
X145509980Y-102884266D01*
X145509980Y-102646171D01*
X145557600Y-102550933D01*
X145605219Y-102503314D01*
X145700457Y-102455695D01*
X145795695Y-102455695D01*
X145938552Y-102503314D01*
X146509980Y-103074742D01*
X146509980Y-102455695D01*
X146509980Y-102027123D02*
X145509980Y-102027123D01*
X146509980Y-101455695D02*
X145938552Y-101884266D01*
X145509980Y-101455695D02*
X146081409Y-102027123D01*
%TO.C, *%
%TO.C,LED1-GPIO4*%
X117262868Y-65190190D02*
X117262868Y-65666380D01*
X116262868Y-65666380D01*
X116739059Y-64856857D02*
X116739059Y-64523523D01*
X117262868Y-64380666D02*
X117262868Y-64856857D01*
X116262868Y-64856857D01*
X116262868Y-64380666D01*
X117262868Y-63952095D02*
X116262868Y-63952095D01*
X116262868Y-63714000D01*
X116310488Y-63571142D01*
X116405726Y-63475904D01*
X116500964Y-63428285D01*
X116691440Y-63380666D01*
X116834297Y-63380666D01*
X117024773Y-63428285D01*
X117120011Y-63475904D01*
X117215249Y-63571142D01*
X117262868Y-63714000D01*
X117262868Y-63952095D01*
X117262868Y-62428285D02*
X117262868Y-62999714D01*
X117262868Y-62714000D02*
X116262868Y-62714000D01*
X116405726Y-62809238D01*
X116500964Y-62904476D01*
X116548583Y-62999714D01*
X116881916Y-61999714D02*
X116881916Y-61237809D01*
X116310488Y-60237809D02*
X116262868Y-60333047D01*
X116262868Y-60475904D01*
X116310488Y-60618761D01*
X116405726Y-60714000D01*
X116500964Y-60761619D01*
X116691440Y-60809238D01*
X116834297Y-60809238D01*
X117024773Y-60761619D01*
X117120011Y-60714000D01*
X117215249Y-60618761D01*
X117262868Y-60475904D01*
X117262868Y-60380666D01*
X117215249Y-60237809D01*
X117167630Y-60190190D01*
X116834297Y-60190190D01*
X116834297Y-60380666D01*
X117262868Y-59761619D02*
X116262868Y-59761619D01*
X116262868Y-59380666D01*
X116310488Y-59285428D01*
X116358107Y-59237809D01*
X116453345Y-59190190D01*
X116596202Y-59190190D01*
X116691440Y-59237809D01*
X116739059Y-59285428D01*
X116786678Y-59380666D01*
X116786678Y-59761619D01*
X117262868Y-58761619D02*
X116262868Y-58761619D01*
X116262868Y-58094952D02*
X116262868Y-57904476D01*
X116310488Y-57809238D01*
X116405726Y-57714000D01*
X116596202Y-57666380D01*
X116929535Y-57666380D01*
X117120011Y-57714000D01*
X117215249Y-57809238D01*
X117262868Y-57904476D01*
X117262868Y-58094952D01*
X117215249Y-58190190D01*
X117120011Y-58285428D01*
X116929535Y-58333047D01*
X116596202Y-58333047D01*
X116405726Y-58285428D01*
X116310488Y-58190190D01*
X116262868Y-58094952D01*
X116596202Y-56809238D02*
X117262868Y-56809238D01*
X116215249Y-57047333D02*
X116929535Y-57285428D01*
X116929535Y-56666380D01*
%TO.C,LED3-GPIO17*%
X117262868Y-102242380D02*
X117262868Y-102718571D01*
X116262868Y-102718571D01*
X116739059Y-101909047D02*
X116739059Y-101575714D01*
X117262868Y-101432857D02*
X117262868Y-101909047D01*
X116262868Y-101909047D01*
X116262868Y-101432857D01*
X117262868Y-101004285D02*
X116262868Y-101004285D01*
X116262868Y-100766190D01*
X116310488Y-100623333D01*
X116405726Y-100528095D01*
X116500964Y-100480476D01*
X116691440Y-100432857D01*
X116834297Y-100432857D01*
X117024773Y-100480476D01*
X117120011Y-100528095D01*
X117215249Y-100623333D01*
X117262868Y-100766190D01*
X117262868Y-101004285D01*
X116262868Y-100099523D02*
X116262868Y-99480476D01*
X116643821Y-99813809D01*
X116643821Y-99670952D01*
X116691440Y-99575714D01*
X116739059Y-99528095D01*
X116834297Y-99480476D01*
X117072392Y-99480476D01*
X117167630Y-99528095D01*
X117215249Y-99575714D01*
X117262868Y-99670952D01*
X117262868Y-99956666D01*
X117215249Y-100051904D01*
X117167630Y-100099523D01*
X116881916Y-99051904D02*
X116881916Y-98290000D01*
X116310488Y-97290000D02*
X116262868Y-97385238D01*
X116262868Y-97528095D01*
X116310488Y-97670952D01*
X116405726Y-97766190D01*
X116500964Y-97813809D01*
X116691440Y-97861428D01*
X116834297Y-97861428D01*
X117024773Y-97813809D01*
X117120011Y-97766190D01*
X117215249Y-97670952D01*
X117262868Y-97528095D01*
X117262868Y-97432857D01*
X117215249Y-97290000D01*
X117167630Y-97242380D01*
X116834297Y-97242380D01*
X116834297Y-97432857D01*
X117262868Y-96813809D02*
X116262868Y-96813809D01*
X116262868Y-96432857D01*
X116310488Y-96337619D01*
X116358107Y-96290000D01*
X116453345Y-96242380D01*
X116596202Y-96242380D01*
X116691440Y-96290000D01*
X116739059Y-96337619D01*
X116786678Y-96432857D01*
X116786678Y-96813809D01*
X117262868Y-95813809D02*
X116262868Y-95813809D01*
X116262868Y-95147142D02*
X116262868Y-94956666D01*
X116310488Y-94861428D01*
X116405726Y-94766190D01*
X116596202Y-94718571D01*
X116929535Y-94718571D01*
X117120011Y-94766190D01*
X117215249Y-94861428D01*
X117262868Y-94956666D01*
X117262868Y-95147142D01*
X117215249Y-95242380D01*
X117120011Y-95337619D01*
X116929535Y-95385238D01*
X116596202Y-95385238D01*
X116405726Y-95337619D01*
X116310488Y-95242380D01*
X116262868Y-95147142D01*
X117262868Y-93766190D02*
X117262868Y-94337619D01*
X117262868Y-94051904D02*
X116262868Y-94051904D01*
X116405726Y-94147142D01*
X116500964Y-94242380D01*
X116548583Y-94337619D01*
X116262868Y-93432857D02*
X116262868Y-92766190D01*
X117262868Y-93194761D01*
%TO.C,H1*%
X128595380Y-107111704D02*
X127595380Y-107111704D01*
X128071571Y-107111704D02*
X128071571Y-106540276D01*
X128595380Y-106540276D02*
X127595380Y-106540276D01*
X128595380Y-105540276D02*
X128595380Y-106111704D01*
X128595380Y-105825990D02*
X127595380Y-105825990D01*
X127738238Y-105921228D01*
X127833476Y-106016466D01*
X127881095Y-106111704D01*
X123822971Y-110127609D02*
X123822971Y-109794276D01*
X124346780Y-109651419D02*
X124346780Y-110127609D01*
X123346780Y-110127609D01*
X123346780Y-109651419D01*
X124299161Y-109270466D02*
X124346780Y-109127609D01*
X124346780Y-108889514D01*
X124299161Y-108794276D01*
X124251542Y-108746657D01*
X124156304Y-108699038D01*
X124061066Y-108699038D01*
X123965828Y-108746657D01*
X123918209Y-108794276D01*
X123870590Y-108889514D01*
X123822971Y-109079990D01*
X123775352Y-109175228D01*
X123727733Y-109222847D01*
X123632495Y-109270466D01*
X123537257Y-109270466D01*
X123442019Y-109222847D01*
X123394400Y-109175228D01*
X123346780Y-109079990D01*
X123346780Y-108841895D01*
X123394400Y-108699038D01*
X124346780Y-108270466D02*
X123346780Y-108270466D01*
X123346780Y-107889514D01*
X123394400Y-107794276D01*
X123442019Y-107746657D01*
X123537257Y-107699038D01*
X123680114Y-107699038D01*
X123775352Y-107746657D01*
X123822971Y-107794276D01*
X123870590Y-107889514D01*
X123870590Y-108270466D01*
X123965828Y-107270466D02*
X123965828Y-106508561D01*
X124346780Y-106032371D02*
X123346780Y-106032371D01*
X123346780Y-105651419D01*
X123394400Y-105556180D01*
X123442019Y-105508561D01*
X123537257Y-105460942D01*
X123680114Y-105460942D01*
X123775352Y-105508561D01*
X123822971Y-105556180D01*
X123870590Y-105651419D01*
X123870590Y-106032371D01*
X124346780Y-105032371D02*
X123680114Y-105032371D01*
X123870590Y-105032371D02*
X123775352Y-104984752D01*
X123727733Y-104937133D01*
X123680114Y-104841895D01*
X123680114Y-104746657D01*
X124346780Y-104270466D02*
X124299161Y-104365704D01*
X124251542Y-104413323D01*
X124156304Y-104460942D01*
X123870590Y-104460942D01*
X123775352Y-104413323D01*
X123727733Y-104365704D01*
X123680114Y-104270466D01*
X123680114Y-104127609D01*
X123727733Y-104032371D01*
X123775352Y-103984752D01*
X123870590Y-103937133D01*
X124156304Y-103937133D01*
X124251542Y-103984752D01*
X124299161Y-104032371D01*
X124346780Y-104127609D01*
X124346780Y-104270466D01*
X123680114Y-103079990D02*
X124489638Y-103079990D01*
X124584876Y-103127609D01*
X124632495Y-103175228D01*
X124680114Y-103270466D01*
X124680114Y-103413323D01*
X124632495Y-103508561D01*
X124299161Y-103079990D02*
X124346780Y-103175228D01*
X124346780Y-103365704D01*
X124299161Y-103460942D01*
X124251542Y-103508561D01*
X124156304Y-103556180D01*
X123870590Y-103556180D01*
X123775352Y-103508561D01*
X123727733Y-103460942D01*
X123680114Y-103365704D01*
X123680114Y-103175228D01*
X123727733Y-103079990D01*
%TO.C,LED6-GPIO32*%
X149764292Y-138818380D02*
X149764292Y-139294571D01*
X148764292Y-139294571D01*
X149240483Y-138485047D02*
X149240483Y-138151714D01*
X149764292Y-138008857D02*
X149764292Y-138485047D01*
X148764292Y-138485047D01*
X148764292Y-138008857D01*
X149764292Y-137580285D02*
X148764292Y-137580285D01*
X148764292Y-137342190D01*
X148811912Y-137199333D01*
X148907150Y-137104095D01*
X149002388Y-137056476D01*
X149192864Y-137008857D01*
X149335721Y-137008857D01*
X149526197Y-137056476D01*
X149621435Y-137104095D01*
X149716673Y-137199333D01*
X149764292Y-137342190D01*
X149764292Y-137580285D01*
X148764292Y-136151714D02*
X148764292Y-136342190D01*
X148811912Y-136437428D01*
X148859531Y-136485047D01*
X149002388Y-136580285D01*
X149192864Y-136627904D01*
X149573816Y-136627904D01*
X149669054Y-136580285D01*
X149716673Y-136532666D01*
X149764292Y-136437428D01*
X149764292Y-136246952D01*
X149716673Y-136151714D01*
X149669054Y-136104095D01*
X149573816Y-136056476D01*
X149335721Y-136056476D01*
X149240483Y-136104095D01*
X149192864Y-136151714D01*
X149145245Y-136246952D01*
X149145245Y-136437428D01*
X149192864Y-136532666D01*
X149240483Y-136580285D01*
X149335721Y-136627904D01*
X149383340Y-135627904D02*
X149383340Y-134866000D01*
X148811912Y-133866000D02*
X148764292Y-133961238D01*
X148764292Y-134104095D01*
X148811912Y-134246952D01*
X148907150Y-134342190D01*
X149002388Y-134389809D01*
X149192864Y-134437428D01*
X149335721Y-134437428D01*
X149526197Y-134389809D01*
X149621435Y-134342190D01*
X149716673Y-134246952D01*
X149764292Y-134104095D01*
X149764292Y-134008857D01*
X149716673Y-133866000D01*
X149669054Y-133818380D01*
X149335721Y-133818380D01*
X149335721Y-134008857D01*
X149764292Y-133389809D02*
X148764292Y-133389809D01*
X148764292Y-133008857D01*
X148811912Y-132913619D01*
X148859531Y-132866000D01*
X148954769Y-132818380D01*
X149097626Y-132818380D01*
X149192864Y-132866000D01*
X149240483Y-132913619D01*
X149288102Y-133008857D01*
X149288102Y-133389809D01*
X149764292Y-132389809D02*
X148764292Y-132389809D01*
X148764292Y-131723142D02*
X148764292Y-131532666D01*
X148811912Y-131437428D01*
X148907150Y-131342190D01*
X149097626Y-131294571D01*
X149430959Y-131294571D01*
X149621435Y-131342190D01*
X149716673Y-131437428D01*
X149764292Y-131532666D01*
X149764292Y-131723142D01*
X149716673Y-131818380D01*
X149621435Y-131913619D01*
X149430959Y-131961238D01*
X149097626Y-131961238D01*
X148907150Y-131913619D01*
X148811912Y-131818380D01*
X148764292Y-131723142D01*
X148764292Y-130961238D02*
X148764292Y-130342190D01*
X149145245Y-130675523D01*
X149145245Y-130532666D01*
X149192864Y-130437428D01*
X149240483Y-130389809D01*
X149335721Y-130342190D01*
X149573816Y-130342190D01*
X149669054Y-130389809D01*
X149716673Y-130437428D01*
X149764292Y-130532666D01*
X149764292Y-130818380D01*
X149716673Y-130913619D01*
X149669054Y-130961238D01*
X148859531Y-129961238D02*
X148811912Y-129913619D01*
X148764292Y-129818380D01*
X148764292Y-129580285D01*
X148811912Y-129485047D01*
X148859531Y-129437428D01*
X148954769Y-129389809D01*
X149050007Y-129389809D01*
X149192864Y-129437428D01*
X149764292Y-130008857D01*
X149764292Y-129389809D01*
%TO.C,U2*%
X137705066Y-101748600D02*
X137705066Y-101272409D01*
X137990780Y-101843838D02*
X136990780Y-101510504D01*
X137990780Y-101177171D01*
X137990780Y-100843838D02*
X136990780Y-100843838D01*
X137705066Y-100510504D01*
X136990780Y-100177171D01*
X137990780Y-100177171D01*
X137943161Y-99748600D02*
X137990780Y-99605742D01*
X137990780Y-99367647D01*
X137943161Y-99272409D01*
X137895542Y-99224790D01*
X137800304Y-99177171D01*
X137705066Y-99177171D01*
X137609828Y-99224790D01*
X137562209Y-99272409D01*
X137514590Y-99367647D01*
X137466971Y-99558123D01*
X137419352Y-99653361D01*
X137371733Y-99700980D01*
X137276495Y-99748600D01*
X137181257Y-99748600D01*
X137086019Y-99700980D01*
X137038400Y-99653361D01*
X136990780Y-99558123D01*
X136990780Y-99320028D01*
X137038400Y-99177171D01*
X137990780Y-98224790D02*
X137990780Y-98796219D01*
X137990780Y-98510504D02*
X136990780Y-98510504D01*
X137133638Y-98605742D01*
X137228876Y-98700980D01*
X137276495Y-98796219D01*
X137990780Y-97272409D02*
X137990780Y-97843838D01*
X137990780Y-97558123D02*
X136990780Y-97558123D01*
X137133638Y-97653361D01*
X137228876Y-97748600D01*
X137276495Y-97843838D01*
X137990780Y-96320028D02*
X137990780Y-96891457D01*
X137990780Y-96605742D02*
X136990780Y-96605742D01*
X137133638Y-96700980D01*
X137228876Y-96796219D01*
X137276495Y-96891457D01*
X136990780Y-95986695D02*
X136990780Y-95320028D01*
X137990780Y-95748600D01*
X137609828Y-94939076D02*
X137609828Y-94177171D01*
X136990780Y-93796219D02*
X136990780Y-93177171D01*
X137371733Y-93510504D01*
X137371733Y-93367647D01*
X137419352Y-93272409D01*
X137466971Y-93224790D01*
X137562209Y-93177171D01*
X137800304Y-93177171D01*
X137895542Y-93224790D01*
X137943161Y-93272409D01*
X137990780Y-93367647D01*
X137990780Y-93653361D01*
X137943161Y-93748600D01*
X137895542Y-93796219D01*
X137895542Y-92748600D02*
X137943161Y-92700980D01*
X137990780Y-92748600D01*
X137943161Y-92796219D01*
X137895542Y-92748600D01*
X137990780Y-92748600D01*
X136990780Y-92367647D02*
X136990780Y-91748600D01*
X137371733Y-92081933D01*
X137371733Y-91939076D01*
X137419352Y-91843838D01*
X137466971Y-91796219D01*
X137562209Y-91748600D01*
X137800304Y-91748600D01*
X137895542Y-91796219D01*
X137943161Y-91843838D01*
X137990780Y-91939076D01*
X137990780Y-92224790D01*
X137943161Y-92320028D01*
X137895542Y-92367647D01*
%TO.C, *%
%TO.C,U1*%
X121968771Y-130342209D02*
X121968771Y-130008876D01*
X122492580Y-129866019D02*
X122492580Y-130342209D01*
X121492580Y-130342209D01*
X121492580Y-129866019D01*
X122444961Y-129485066D02*
X122492580Y-129342209D01*
X122492580Y-129104114D01*
X122444961Y-129008876D01*
X122397342Y-128961257D01*
X122302104Y-128913638D01*
X122206866Y-128913638D01*
X122111628Y-128961257D01*
X122064009Y-129008876D01*
X122016390Y-129104114D01*
X121968771Y-129294590D01*
X121921152Y-129389828D01*
X121873533Y-129437447D01*
X121778295Y-129485066D01*
X121683057Y-129485066D01*
X121587819Y-129437447D01*
X121540200Y-129389828D01*
X121492580Y-129294590D01*
X121492580Y-129056495D01*
X121540200Y-128913638D01*
X122492580Y-128485066D02*
X121492580Y-128485066D01*
X121492580Y-128104114D01*
X121540200Y-128008876D01*
X121587819Y-127961257D01*
X121683057Y-127913638D01*
X121825914Y-127913638D01*
X121921152Y-127961257D01*
X121968771Y-128008876D01*
X122016390Y-128104114D01*
X122016390Y-128485066D01*
X121492580Y-127580304D02*
X121492580Y-126961257D01*
X121873533Y-127294590D01*
X121873533Y-127151733D01*
X121921152Y-127056495D01*
X121968771Y-127008876D01*
X122064009Y-126961257D01*
X122302104Y-126961257D01*
X122397342Y-127008876D01*
X122444961Y-127056495D01*
X122492580Y-127151733D01*
X122492580Y-127437447D01*
X122444961Y-127532685D01*
X122397342Y-127580304D01*
X121587819Y-126580304D02*
X121540200Y-126532685D01*
X121492580Y-126437447D01*
X121492580Y-126199352D01*
X121540200Y-126104114D01*
X121587819Y-126056495D01*
X121683057Y-126008876D01*
X121778295Y-126008876D01*
X121921152Y-126056495D01*
X122492580Y-126627923D01*
X122492580Y-126008876D01*
X122111628Y-125580304D02*
X122111628Y-124818400D01*
X121492580Y-124437447D02*
X122492580Y-124199352D01*
X121778295Y-124008876D01*
X122492580Y-123818400D01*
X121492580Y-123580304D01*
X122492580Y-122627923D02*
X122016390Y-122961257D01*
X122492580Y-123199352D02*
X121492580Y-123199352D01*
X121492580Y-122818400D01*
X121540200Y-122723161D01*
X121587819Y-122675542D01*
X121683057Y-122627923D01*
X121825914Y-122627923D01*
X121921152Y-122675542D01*
X121968771Y-122723161D01*
X122016390Y-122818400D01*
X122016390Y-123199352D01*
X121492580Y-122008876D02*
X121492580Y-121818400D01*
X121540200Y-121723161D01*
X121635438Y-121627923D01*
X121825914Y-121580304D01*
X122159247Y-121580304D01*
X122349723Y-121627923D01*
X122444961Y-121723161D01*
X122492580Y-121818400D01*
X122492580Y-122008876D01*
X122444961Y-122104114D01*
X122349723Y-122199352D01*
X122159247Y-122246971D01*
X121825914Y-122246971D01*
X121635438Y-122199352D01*
X121540200Y-122104114D01*
X121492580Y-122008876D01*
X121492580Y-120961257D02*
X121492580Y-120770780D01*
X121540200Y-120675542D01*
X121635438Y-120580304D01*
X121825914Y-120532685D01*
X122159247Y-120532685D01*
X122349723Y-120580304D01*
X122444961Y-120675542D01*
X122492580Y-120770780D01*
X122492580Y-120961257D01*
X122444961Y-121056495D01*
X122349723Y-121151733D01*
X122159247Y-121199352D01*
X121825914Y-121199352D01*
X121635438Y-121151733D01*
X121540200Y-121056495D01*
X121492580Y-120961257D01*
X122492580Y-120104114D02*
X121492580Y-120104114D01*
X122206866Y-119770780D01*
X121492580Y-119437447D01*
X122492580Y-119437447D01*
X122111628Y-118961257D02*
X122111628Y-118199352D01*
X121492580Y-117818400D02*
X121492580Y-117199352D01*
X121873533Y-117532685D01*
X121873533Y-117389828D01*
X121921152Y-117294590D01*
X121968771Y-117246971D01*
X122064009Y-117199352D01*
X122302104Y-117199352D01*
X122397342Y-117246971D01*
X122444961Y-117294590D01*
X122492580Y-117389828D01*
X122492580Y-117675542D01*
X122444961Y-117770780D01*
X122397342Y-117818400D01*
X121587819Y-116818400D02*
X121540200Y-116770780D01*
X121492580Y-116675542D01*
X121492580Y-116437447D01*
X121540200Y-116342209D01*
X121587819Y-116294590D01*
X121683057Y-116246971D01*
X121778295Y-116246971D01*
X121921152Y-116294590D01*
X122492580Y-116866019D01*
X122492580Y-116246971D01*
X122492580Y-115818400D02*
X121492580Y-115818400D01*
X121492580Y-115580304D01*
X121540200Y-115437447D01*
X121635438Y-115342209D01*
X121730676Y-115294590D01*
X121921152Y-115246971D01*
X122064009Y-115246971D01*
X122254485Y-115294590D01*
X122349723Y-115342209D01*
X122444961Y-115437447D01*
X122492580Y-115580304D01*
X122492580Y-115818400D01*
%TO.C,R2*%
X145509980Y-106814904D02*
X145509980Y-107291095D01*
X145986171Y-107338714D01*
X145938552Y-107291095D01*
X145890933Y-107195857D01*
X145890933Y-106957761D01*
X145938552Y-106862523D01*
X145986171Y-106814904D01*
X146081409Y-106767285D01*
X146319504Y-106767285D01*
X146414742Y-106814904D01*
X146462361Y-106862523D01*
X146509980Y-106957761D01*
X146509980Y-107195857D01*
X146462361Y-107291095D01*
X146414742Y-107338714D01*
X146509980Y-106338714D02*
X145509980Y-106338714D01*
X146509980Y-105767285D02*
X145938552Y-106195857D01*
X145509980Y-105767285D02*
X146081409Y-106338714D01*
%TO.C,LED2-GPIO16*%
X117262868Y-83954380D02*
X117262868Y-84430571D01*
X116262868Y-84430571D01*
X116739059Y-83621047D02*
X116739059Y-83287714D01*
X117262868Y-83144857D02*
X117262868Y-83621047D01*
X116262868Y-83621047D01*
X116262868Y-83144857D01*
X117262868Y-82716285D02*
X116262868Y-82716285D01*
X116262868Y-82478190D01*
X116310488Y-82335333D01*
X116405726Y-82240095D01*
X116500964Y-82192476D01*
X116691440Y-82144857D01*
X116834297Y-82144857D01*
X117024773Y-82192476D01*
X117120011Y-82240095D01*
X117215249Y-82335333D01*
X117262868Y-82478190D01*
X117262868Y-82716285D01*
X116358107Y-81763904D02*
X116310488Y-81716285D01*
X116262868Y-81621047D01*
X116262868Y-81382952D01*
X116310488Y-81287714D01*
X116358107Y-81240095D01*
X116453345Y-81192476D01*
X116548583Y-81192476D01*
X116691440Y-81240095D01*
X117262868Y-81811523D01*
X117262868Y-81192476D01*
X116881916Y-80763904D02*
X116881916Y-80002000D01*
X116310488Y-79002000D02*
X116262868Y-79097238D01*
X116262868Y-79240095D01*
X116310488Y-79382952D01*
X116405726Y-79478190D01*
X116500964Y-79525809D01*
X116691440Y-79573428D01*
X116834297Y-79573428D01*
X117024773Y-79525809D01*
X117120011Y-79478190D01*
X117215249Y-79382952D01*
X117262868Y-79240095D01*
X117262868Y-79144857D01*
X117215249Y-79002000D01*
X117167630Y-78954380D01*
X116834297Y-78954380D01*
X116834297Y-79144857D01*
X117262868Y-78525809D02*
X116262868Y-78525809D01*
X116262868Y-78144857D01*
X116310488Y-78049619D01*
X116358107Y-78002000D01*
X116453345Y-77954380D01*
X116596202Y-77954380D01*
X116691440Y-78002000D01*
X116739059Y-78049619D01*
X116786678Y-78144857D01*
X116786678Y-78525809D01*
X117262868Y-77525809D02*
X116262868Y-77525809D01*
X116262868Y-76859142D02*
X116262868Y-76668666D01*
X116310488Y-76573428D01*
X116405726Y-76478190D01*
X116596202Y-76430571D01*
X116929535Y-76430571D01*
X117120011Y-76478190D01*
X117215249Y-76573428D01*
X117262868Y-76668666D01*
X117262868Y-76859142D01*
X117215249Y-76954380D01*
X117120011Y-77049619D01*
X116929535Y-77097238D01*
X116596202Y-77097238D01*
X116405726Y-77049619D01*
X116310488Y-76954380D01*
X116262868Y-76859142D01*
X117262868Y-75478190D02*
X117262868Y-76049619D01*
X117262868Y-75763904D02*
X116262868Y-75763904D01*
X116405726Y-75859142D01*
X116500964Y-75954380D01*
X116548583Y-76049619D01*
X116262868Y-74621047D02*
X116262868Y-74811523D01*
X116310488Y-74906761D01*
X116358107Y-74954380D01*
X116500964Y-75049619D01*
X116691440Y-75097238D01*
X117072392Y-75097238D01*
X117167630Y-75049619D01*
X117215249Y-75002000D01*
X117262868Y-74906761D01*
X117262868Y-74716285D01*
X117215249Y-74621047D01*
X117167630Y-74573428D01*
X117072392Y-74525809D01*
X116834297Y-74525809D01*
X116739059Y-74573428D01*
X116691440Y-74621047D01*
X116643821Y-74716285D01*
X116643821Y-74906761D01*
X116691440Y-75002000D01*
X116739059Y-75049619D01*
X116834297Y-75097238D01*
%TO.C,C1*%
X145509980Y-111990000D02*
X145509980Y-111894761D01*
X145557600Y-111799523D01*
X145605219Y-111751904D01*
X145700457Y-111704285D01*
X145890933Y-111656666D01*
X146129028Y-111656666D01*
X146319504Y-111704285D01*
X146414742Y-111751904D01*
X146462361Y-111799523D01*
X146509980Y-111894761D01*
X146509980Y-111990000D01*
X146462361Y-112085238D01*
X146414742Y-112132857D01*
X146319504Y-112180476D01*
X146129028Y-112228095D01*
X145890933Y-112228095D01*
X145700457Y-112180476D01*
X145605219Y-112132857D01*
X145557600Y-112085238D01*
X145509980Y-111990000D01*
X146414742Y-111228095D02*
X146462361Y-111180476D01*
X146509980Y-111228095D01*
X146462361Y-111275714D01*
X146414742Y-111228095D01*
X146509980Y-111228095D01*
X146509980Y-110228095D02*
X146509980Y-110799523D01*
X146509980Y-110513809D02*
X145509980Y-110513809D01*
X145652838Y-110609047D01*
X145748076Y-110704285D01*
X145795695Y-110799523D01*
X145843314Y-109370952D02*
X146509980Y-109370952D01*
X145843314Y-109799523D02*
X146367123Y-109799523D01*
X146462361Y-109751904D01*
X146509980Y-109656666D01*
X146509980Y-109513809D01*
X146462361Y-109418571D01*
X146414742Y-109370952D01*
X145843314Y-109037619D02*
X145843314Y-108656666D01*
X146509980Y-108894761D02*
X145652838Y-108894761D01*
X145557600Y-108847142D01*
X145509980Y-108751904D01*
X145509980Y-108656666D01*
%TO.C,GND*%
X125171295Y-89543000D02*
X125076057Y-89495380D01*
X124933200Y-89495380D01*
X124790342Y-89543000D01*
X124695104Y-89638238D01*
X124647485Y-89733476D01*
X124599866Y-89923952D01*
X124599866Y-90066809D01*
X124647485Y-90257285D01*
X124695104Y-90352523D01*
X124790342Y-90447761D01*
X124933200Y-90495380D01*
X125028438Y-90495380D01*
X125171295Y-90447761D01*
X125218914Y-90400142D01*
X125218914Y-90066809D01*
X125028438Y-90066809D01*
X125647485Y-90495380D02*
X125647485Y-89495380D01*
X126218914Y-90495380D01*
X126218914Y-89495380D01*
X126695104Y-90495380D02*
X126695104Y-89495380D01*
X126933200Y-89495380D01*
X127076057Y-89543000D01*
X127171295Y-89638238D01*
X127218914Y-89733476D01*
X127266533Y-89923952D01*
X127266533Y-90066809D01*
X127218914Y-90257285D01*
X127171295Y-90352523D01*
X127076057Y-90447761D01*
X126933200Y-90495380D01*
X126695104Y-90495380D01*
%TO.C,LED9-GPIO26*%
X149764292Y-83954380D02*
X149764292Y-84430571D01*
X148764292Y-84430571D01*
X149240483Y-83621047D02*
X149240483Y-83287714D01*
X149764292Y-83144857D02*
X149764292Y-83621047D01*
X148764292Y-83621047D01*
X148764292Y-83144857D01*
X149764292Y-82716285D02*
X148764292Y-82716285D01*
X148764292Y-82478190D01*
X148811912Y-82335333D01*
X148907150Y-82240095D01*
X149002388Y-82192476D01*
X149192864Y-82144857D01*
X149335721Y-82144857D01*
X149526197Y-82192476D01*
X149621435Y-82240095D01*
X149716673Y-82335333D01*
X149764292Y-82478190D01*
X149764292Y-82716285D01*
X149764292Y-81668666D02*
X149764292Y-81478190D01*
X149716673Y-81382952D01*
X149669054Y-81335333D01*
X149526197Y-81240095D01*
X149335721Y-81192476D01*
X148954769Y-81192476D01*
X148859531Y-81240095D01*
X148811912Y-81287714D01*
X148764292Y-81382952D01*
X148764292Y-81573428D01*
X148811912Y-81668666D01*
X148859531Y-81716285D01*
X148954769Y-81763904D01*
X149192864Y-81763904D01*
X149288102Y-81716285D01*
X149335721Y-81668666D01*
X149383340Y-81573428D01*
X149383340Y-81382952D01*
X149335721Y-81287714D01*
X149288102Y-81240095D01*
X149192864Y-81192476D01*
X149383340Y-80763904D02*
X149383340Y-80002000D01*
X148811912Y-79002000D02*
X148764292Y-79097238D01*
X148764292Y-79240095D01*
X148811912Y-79382952D01*
X148907150Y-79478190D01*
X149002388Y-79525809D01*
X149192864Y-79573428D01*
X149335721Y-79573428D01*
X149526197Y-79525809D01*
X149621435Y-79478190D01*
X149716673Y-79382952D01*
X149764292Y-79240095D01*
X149764292Y-79144857D01*
X149716673Y-79002000D01*
X149669054Y-78954380D01*
X149335721Y-78954380D01*
X149335721Y-79144857D01*
X149764292Y-78525809D02*
X148764292Y-78525809D01*
X148764292Y-78144857D01*
X148811912Y-78049619D01*
X148859531Y-78002000D01*
X148954769Y-77954380D01*
X149097626Y-77954380D01*
X149192864Y-78002000D01*
X149240483Y-78049619D01*
X149288102Y-78144857D01*
X149288102Y-78525809D01*
X149764292Y-77525809D02*
X148764292Y-77525809D01*
X148764292Y-76859142D02*
X148764292Y-76668666D01*
X148811912Y-76573428D01*
X148907150Y-76478190D01*
X149097626Y-76430571D01*
X149430959Y-76430571D01*
X149621435Y-76478190D01*
X149716673Y-76573428D01*
X149764292Y-76668666D01*
X149764292Y-76859142D01*
X149716673Y-76954380D01*
X149621435Y-77049619D01*
X149430959Y-77097238D01*
X149097626Y-77097238D01*
X148907150Y-77049619D01*
X148811912Y-76954380D01*
X148764292Y-76859142D01*
X148859531Y-76049619D02*
X148811912Y-76002000D01*
X148764292Y-75906761D01*
X148764292Y-75668666D01*
X148811912Y-75573428D01*
X148859531Y-75525809D01*
X148954769Y-75478190D01*
X149050007Y-75478190D01*
X149192864Y-75525809D01*
X149764292Y-76097238D01*
X149764292Y-75478190D01*
X148764292Y-74621047D02*
X148764292Y-74811523D01*
X148811912Y-74906761D01*
X148859531Y-74954380D01*
X149002388Y-75049619D01*
X149192864Y-75097238D01*
X149573816Y-75097238D01*
X149669054Y-75049619D01*
X149716673Y-75002000D01*
X149764292Y-74906761D01*
X149764292Y-74716285D01*
X149716673Y-74621047D01*
X149669054Y-74573428D01*
X149573816Y-74525809D01*
X149335721Y-74525809D01*
X149240483Y-74573428D01*
X149192864Y-74621047D01*
X149145245Y-74716285D01*
X149145245Y-74906761D01*
X149192864Y-75002000D01*
X149240483Y-75049619D01*
X149335721Y-75097238D01*
%TO.C,J1*%
X122454980Y-57008933D02*
X123169266Y-57008933D01*
X123312123Y-57056552D01*
X123407361Y-57151790D01*
X123454980Y-57294647D01*
X123454980Y-57389885D01*
X123454980Y-56008933D02*
X123454980Y-56580361D01*
X123454980Y-56294647D02*
X122454980Y-56294647D01*
X122597838Y-56389885D01*
X122693076Y-56485123D01*
X122740695Y-56580361D01*
%TO.C, *%
%TO.C,LED5-GPIO23*%
X117262868Y-138818380D02*
X117262868Y-139294571D01*
X116262868Y-139294571D01*
X116739059Y-138485047D02*
X116739059Y-138151714D01*
X117262868Y-138008857D02*
X117262868Y-138485047D01*
X116262868Y-138485047D01*
X116262868Y-138008857D01*
X117262868Y-137580285D02*
X116262868Y-137580285D01*
X116262868Y-137342190D01*
X116310488Y-137199333D01*
X116405726Y-137104095D01*
X116500964Y-137056476D01*
X116691440Y-137008857D01*
X116834297Y-137008857D01*
X117024773Y-137056476D01*
X117120011Y-137104095D01*
X117215249Y-137199333D01*
X117262868Y-137342190D01*
X117262868Y-137580285D01*
X116262868Y-136104095D02*
X116262868Y-136580285D01*
X116739059Y-136627904D01*
X116691440Y-136580285D01*
X116643821Y-136485047D01*
X116643821Y-136246952D01*
X116691440Y-136151714D01*
X116739059Y-136104095D01*
X116834297Y-136056476D01*
X117072392Y-136056476D01*
X117167630Y-136104095D01*
X117215249Y-136151714D01*
X117262868Y-136246952D01*
X117262868Y-136485047D01*
X117215249Y-136580285D01*
X117167630Y-136627904D01*
X116881916Y-135627904D02*
X116881916Y-134866000D01*
X116310488Y-133866000D02*
X116262868Y-133961238D01*
X116262868Y-134104095D01*
X116310488Y-134246952D01*
X116405726Y-134342190D01*
X116500964Y-134389809D01*
X116691440Y-134437428D01*
X116834297Y-134437428D01*
X117024773Y-134389809D01*
X117120011Y-134342190D01*
X117215249Y-134246952D01*
X117262868Y-134104095D01*
X117262868Y-134008857D01*
X117215249Y-133866000D01*
X117167630Y-133818380D01*
X116834297Y-133818380D01*
X116834297Y-134008857D01*
X117262868Y-133389809D02*
X116262868Y-133389809D01*
X116262868Y-133008857D01*
X116310488Y-132913619D01*
X116358107Y-132866000D01*
X116453345Y-132818380D01*
X116596202Y-132818380D01*
X116691440Y-132866000D01*
X116739059Y-132913619D01*
X116786678Y-133008857D01*
X116786678Y-133389809D01*
X117262868Y-132389809D02*
X116262868Y-132389809D01*
X116262868Y-131723142D02*
X116262868Y-131532666D01*
X116310488Y-131437428D01*
X116405726Y-131342190D01*
X116596202Y-131294571D01*
X116929535Y-131294571D01*
X117120011Y-131342190D01*
X117215249Y-131437428D01*
X117262868Y-131532666D01*
X117262868Y-131723142D01*
X117215249Y-131818380D01*
X117120011Y-131913619D01*
X116929535Y-131961238D01*
X116596202Y-131961238D01*
X116405726Y-131913619D01*
X116310488Y-131818380D01*
X116262868Y-131723142D01*
X116358107Y-130913619D02*
X116310488Y-130866000D01*
X116262868Y-130770761D01*
X116262868Y-130532666D01*
X116310488Y-130437428D01*
X116358107Y-130389809D01*
X116453345Y-130342190D01*
X116548583Y-130342190D01*
X116691440Y-130389809D01*
X117262868Y-130961238D01*
X117262868Y-130342190D01*
X116262868Y-130008857D02*
X116262868Y-129389809D01*
X116643821Y-129723142D01*
X116643821Y-129580285D01*
X116691440Y-129485047D01*
X116739059Y-129437428D01*
X116834297Y-129389809D01*
X117072392Y-129389809D01*
X117167630Y-129437428D01*
X117215249Y-129485047D01*
X117262868Y-129580285D01*
X117262868Y-129866000D01*
X117215249Y-129961238D01*
X117167630Y-130008857D01*
%TO.C, *%
%TO.C,LED7-GPIO33*%
X149764292Y-120530380D02*
X149764292Y-121006571D01*
X148764292Y-121006571D01*
X149240483Y-120197047D02*
X149240483Y-119863714D01*
X149764292Y-119720857D02*
X149764292Y-120197047D01*
X148764292Y-120197047D01*
X148764292Y-119720857D01*
X149764292Y-119292285D02*
X148764292Y-119292285D01*
X148764292Y-119054190D01*
X148811912Y-118911333D01*
X148907150Y-118816095D01*
X149002388Y-118768476D01*
X149192864Y-118720857D01*
X149335721Y-118720857D01*
X149526197Y-118768476D01*
X149621435Y-118816095D01*
X149716673Y-118911333D01*
X149764292Y-119054190D01*
X149764292Y-119292285D01*
X148764292Y-118387523D02*
X148764292Y-117720857D01*
X149764292Y-118149428D01*
X149383340Y-117339904D02*
X149383340Y-116578000D01*
X148811912Y-115578000D02*
X148764292Y-115673238D01*
X148764292Y-115816095D01*
X148811912Y-115958952D01*
X148907150Y-116054190D01*
X149002388Y-116101809D01*
X149192864Y-116149428D01*
X149335721Y-116149428D01*
X149526197Y-116101809D01*
X149621435Y-116054190D01*
X149716673Y-115958952D01*
X149764292Y-115816095D01*
X149764292Y-115720857D01*
X149716673Y-115578000D01*
X149669054Y-115530380D01*
X149335721Y-115530380D01*
X149335721Y-115720857D01*
X149764292Y-115101809D02*
X148764292Y-115101809D01*
X148764292Y-114720857D01*
X148811912Y-114625619D01*
X148859531Y-114578000D01*
X148954769Y-114530380D01*
X149097626Y-114530380D01*
X149192864Y-114578000D01*
X149240483Y-114625619D01*
X149288102Y-114720857D01*
X149288102Y-115101809D01*
X149764292Y-114101809D02*
X148764292Y-114101809D01*
X148764292Y-113435142D02*
X148764292Y-113244666D01*
X148811912Y-113149428D01*
X148907150Y-113054190D01*
X149097626Y-113006571D01*
X149430959Y-113006571D01*
X149621435Y-113054190D01*
X149716673Y-113149428D01*
X149764292Y-113244666D01*
X149764292Y-113435142D01*
X149716673Y-113530380D01*
X149621435Y-113625619D01*
X149430959Y-113673238D01*
X149097626Y-113673238D01*
X148907150Y-113625619D01*
X148811912Y-113530380D01*
X148764292Y-113435142D01*
X148764292Y-112673238D02*
X148764292Y-112054190D01*
X149145245Y-112387523D01*
X149145245Y-112244666D01*
X149192864Y-112149428D01*
X149240483Y-112101809D01*
X149335721Y-112054190D01*
X149573816Y-112054190D01*
X149669054Y-112101809D01*
X149716673Y-112149428D01*
X149764292Y-112244666D01*
X149764292Y-112530380D01*
X149716673Y-112625619D01*
X149669054Y-112673238D01*
X148764292Y-111720857D02*
X148764292Y-111101809D01*
X149145245Y-111435142D01*
X149145245Y-111292285D01*
X149192864Y-111197047D01*
X149240483Y-111149428D01*
X149335721Y-111101809D01*
X149573816Y-111101809D01*
X149669054Y-111149428D01*
X149716673Y-111197047D01*
X149764292Y-111292285D01*
X149764292Y-111578000D01*
X149716673Y-111673238D01*
X149669054Y-111720857D01*
%TO.C,LED8-GPIO25*%
X149764292Y-102242380D02*
X149764292Y-102718571D01*
X148764292Y-102718571D01*
X149240483Y-101909047D02*
X149240483Y-101575714D01*
X149764292Y-101432857D02*
X149764292Y-101909047D01*
X148764292Y-101909047D01*
X148764292Y-101432857D01*
X149764292Y-101004285D02*
X148764292Y-101004285D01*
X148764292Y-100766190D01*
X148811912Y-100623333D01*
X148907150Y-100528095D01*
X149002388Y-100480476D01*
X149192864Y-100432857D01*
X149335721Y-100432857D01*
X149526197Y-100480476D01*
X149621435Y-100528095D01*
X149716673Y-100623333D01*
X149764292Y-100766190D01*
X149764292Y-101004285D01*
X149192864Y-99861428D02*
X149145245Y-99956666D01*
X149097626Y-100004285D01*
X149002388Y-100051904D01*
X148954769Y-100051904D01*
X148859531Y-100004285D01*
X148811912Y-99956666D01*
X148764292Y-99861428D01*
X148764292Y-99670952D01*
X148811912Y-99575714D01*
X148859531Y-99528095D01*
X148954769Y-99480476D01*
X149002388Y-99480476D01*
X149097626Y-99528095D01*
X149145245Y-99575714D01*
X149192864Y-99670952D01*
X149192864Y-99861428D01*
X149240483Y-99956666D01*
X149288102Y-100004285D01*
X149383340Y-100051904D01*
X149573816Y-100051904D01*
X149669054Y-100004285D01*
X149716673Y-99956666D01*
X149764292Y-99861428D01*
X149764292Y-99670952D01*
X149716673Y-99575714D01*
X149669054Y-99528095D01*
X149573816Y-99480476D01*
X149383340Y-99480476D01*
X149288102Y-99528095D01*
X149240483Y-99575714D01*
X149192864Y-99670952D01*
X149383340Y-99051904D02*
X149383340Y-98290000D01*
X148811912Y-97290000D02*
X148764292Y-97385238D01*
X148764292Y-97528095D01*
X148811912Y-97670952D01*
X148907150Y-97766190D01*
X149002388Y-97813809D01*
X149192864Y-97861428D01*
X149335721Y-97861428D01*
X149526197Y-97813809D01*
X149621435Y-97766190D01*
X149716673Y-97670952D01*
X149764292Y-97528095D01*
X149764292Y-97432857D01*
X149716673Y-97290000D01*
X149669054Y-97242380D01*
X149335721Y-97242380D01*
X149335721Y-97432857D01*
X149764292Y-96813809D02*
X148764292Y-96813809D01*
X148764292Y-96432857D01*
X148811912Y-96337619D01*
X148859531Y-96290000D01*
X148954769Y-96242380D01*
X149097626Y-96242380D01*
X149192864Y-96290000D01*
X149240483Y-96337619D01*
X149288102Y-96432857D01*
X149288102Y-96813809D01*
X149764292Y-95813809D02*
X148764292Y-95813809D01*
X148764292Y-95147142D02*
X148764292Y-94956666D01*
X148811912Y-94861428D01*
X148907150Y-94766190D01*
X149097626Y-94718571D01*
X149430959Y-94718571D01*
X149621435Y-94766190D01*
X149716673Y-94861428D01*
X149764292Y-94956666D01*
X149764292Y-95147142D01*
X149716673Y-95242380D01*
X149621435Y-95337619D01*
X149430959Y-95385238D01*
X149097626Y-95385238D01*
X148907150Y-95337619D01*
X148811912Y-95242380D01*
X148764292Y-95147142D01*
X148859531Y-94337619D02*
X148811912Y-94290000D01*
X148764292Y-94194761D01*
X148764292Y-93956666D01*
X148811912Y-93861428D01*
X148859531Y-93813809D01*
X148954769Y-93766190D01*
X149050007Y-93766190D01*
X149192864Y-93813809D01*
X149764292Y-94385238D01*
X149764292Y-93766190D01*
X148764292Y-92861428D02*
X148764292Y-93337619D01*
X149240483Y-93385238D01*
X149192864Y-93337619D01*
X149145245Y-93242380D01*
X149145245Y-93004285D01*
X149192864Y-92909047D01*
X149240483Y-92861428D01*
X149335721Y-92813809D01*
X149573816Y-92813809D01*
X149669054Y-92861428D01*
X149716673Y-92909047D01*
X149764292Y-93004285D01*
X149764292Y-93242380D01*
X149716673Y-93337619D01*
X149669054Y-93385238D01*
%TO.C, *%
%TO.C,LED4-GPIO22*%
X117262868Y-120530380D02*
X117262868Y-121006571D01*
X116262868Y-121006571D01*
X116739059Y-120197047D02*
X116739059Y-119863714D01*
X117262868Y-119720857D02*
X117262868Y-120197047D01*
X116262868Y-120197047D01*
X116262868Y-119720857D01*
X117262868Y-119292285D02*
X116262868Y-119292285D01*
X116262868Y-119054190D01*
X116310488Y-118911333D01*
X116405726Y-118816095D01*
X116500964Y-118768476D01*
X116691440Y-118720857D01*
X116834297Y-118720857D01*
X117024773Y-118768476D01*
X117120011Y-118816095D01*
X117215249Y-118911333D01*
X117262868Y-119054190D01*
X117262868Y-119292285D01*
X116596202Y-117863714D02*
X117262868Y-117863714D01*
X116215249Y-118101809D02*
X116929535Y-118339904D01*
X116929535Y-117720857D01*
X116881916Y-117339904D02*
X116881916Y-116578000D01*
X116310488Y-115578000D02*
X116262868Y-115673238D01*
X116262868Y-115816095D01*
X116310488Y-115958952D01*
X116405726Y-116054190D01*
X116500964Y-116101809D01*
X116691440Y-116149428D01*
X116834297Y-116149428D01*
X117024773Y-116101809D01*
X117120011Y-116054190D01*
X117215249Y-115958952D01*
X117262868Y-115816095D01*
X117262868Y-115720857D01*
X117215249Y-115578000D01*
X117167630Y-115530380D01*
X116834297Y-115530380D01*
X116834297Y-115720857D01*
X117262868Y-115101809D02*
X116262868Y-115101809D01*
X116262868Y-114720857D01*
X116310488Y-114625619D01*
X116358107Y-114578000D01*
X116453345Y-114530380D01*
X116596202Y-114530380D01*
X116691440Y-114578000D01*
X116739059Y-114625619D01*
X116786678Y-114720857D01*
X116786678Y-115101809D01*
X117262868Y-114101809D02*
X116262868Y-114101809D01*
X116262868Y-113435142D02*
X116262868Y-113244666D01*
X116310488Y-113149428D01*
X116405726Y-113054190D01*
X116596202Y-113006571D01*
X116929535Y-113006571D01*
X117120011Y-113054190D01*
X117215249Y-113149428D01*
X117262868Y-113244666D01*
X117262868Y-113435142D01*
X117215249Y-113530380D01*
X117120011Y-113625619D01*
X116929535Y-113673238D01*
X116596202Y-113673238D01*
X116405726Y-113625619D01*
X116310488Y-113530380D01*
X116262868Y-113435142D01*
X116358107Y-112625619D02*
X116310488Y-112578000D01*
X116262868Y-112482761D01*
X116262868Y-112244666D01*
X116310488Y-112149428D01*
X116358107Y-112101809D01*
X116453345Y-112054190D01*
X116548583Y-112054190D01*
X116691440Y-112101809D01*
X117262868Y-112673238D01*
X117262868Y-112054190D01*
X116358107Y-111673238D02*
X116310488Y-111625619D01*
X116262868Y-111530380D01*
X116262868Y-111292285D01*
X116310488Y-111197047D01*
X116358107Y-111149428D01*
X116453345Y-111101809D01*
X116548583Y-111101809D01*
X116691440Y-111149428D01*
X117262868Y-111720857D01*
X117262868Y-111101809D01*
%TO.C,12V*%
X141505600Y-75961550D02*
X133105600Y-75961550D01*
X133355600Y-51361550D02*
X141255600Y-51361550D01*
X141405600Y-62561550D02*
X141505600Y-75961550D01*
X133205600Y-62561550D02*
X133105600Y-75961550D01*
X141255600Y-51361550D02*
X141405600Y-59961550D01*
X133355600Y-51361550D02*
X133205600Y-59961550D01*
X133205600Y-62561550D02*
G75*
G03*
X134505600Y-61261550I0J1300000D01*
G01*
X141405600Y-59961550D02*
G75*
G03*
X140105600Y-61261550I-1J-1299999D01*
G01*
X140105600Y-61261550D02*
G75*
G03*
X141405600Y-62561550I1299999J-1D01*
G01*
X134505600Y-61261550D02*
G75*
G03*
X133205600Y-59961550I-1300000J0D01*
G01*
D12*
%TO.C,LED10-GPIO27*%
X157423371Y-53581300D02*
X151333200Y-53581300D01*
X151333200Y-60944440D02*
X151333200Y-61483560D01*
X161594800Y-66929559D02*
X161594800Y-55498441D01*
X151333200Y-53581300D02*
X151333200Y-56483560D01*
X151333200Y-65944440D02*
X151333200Y-68846700D01*
X151333200Y-63444440D02*
X151333200Y-63983560D01*
X151333200Y-68846700D02*
X157423371Y-68846700D01*
X151333200Y-58444440D02*
X151333200Y-58983560D01*
%TO.C,R1*%
X144105100Y-102480342D02*
X144105100Y-102954858D01*
X145150100Y-102480342D02*
X145150100Y-102954858D01*
%TO.C,LED1-GPIO4*%
X114789200Y-56483560D02*
X114789200Y-53581300D01*
X114789200Y-63983560D02*
X114789200Y-63444440D01*
X114789200Y-61483560D02*
X114789200Y-60944440D01*
X114789200Y-58983560D02*
X114789200Y-58444440D01*
X114789200Y-68846700D02*
X114789200Y-65944440D01*
X108699029Y-68846700D02*
X114789200Y-68846700D01*
X104527600Y-55498441D02*
X104527600Y-66929559D01*
X114789200Y-53581300D02*
X108699029Y-53581300D01*
%TO.C,LED3-GPIO17*%
X114789200Y-93059560D02*
X114789200Y-90157300D01*
X114789200Y-105422700D02*
X114789200Y-102520440D01*
X108699029Y-105422700D02*
X114789200Y-105422700D01*
X114789200Y-100559560D02*
X114789200Y-100020440D01*
X114789200Y-95559560D02*
X114789200Y-95020440D01*
X104527600Y-92074441D02*
X104527600Y-103505559D01*
X114789200Y-98059560D02*
X114789200Y-97520440D01*
X114789200Y-90157300D02*
X108699029Y-90157300D01*
%TO.C,H1*%
X130493400Y-111417300D02*
X129993400Y-112417300D01*
X125283400Y-101907300D02*
X140783400Y-101907300D01*
X139483400Y-103217300D02*
X139483400Y-109717300D01*
X129993400Y-112417300D02*
X130993400Y-112417300D01*
X130993400Y-112417300D02*
X130493400Y-111417300D01*
X140783400Y-111027300D02*
X125283400Y-111027300D01*
X140783400Y-101907300D02*
X140783400Y-111027300D01*
X125283400Y-111027300D02*
X125283400Y-101907300D01*
X130983400Y-109717300D02*
X126583400Y-109717300D01*
X126583400Y-103217300D02*
X139483400Y-103217300D01*
X139483400Y-109717300D02*
X135083400Y-109717300D01*
X135083400Y-109717300D02*
X135083400Y-109717300D01*
X135083400Y-109717300D02*
X135083400Y-111027300D01*
X126583400Y-109717300D02*
X126583400Y-103217300D01*
X130983400Y-111027300D02*
X130983400Y-109717300D01*
%TO.C,LED6-GPIO32*%
X151333200Y-131596440D02*
X151333200Y-132135560D01*
X151333200Y-136596440D02*
X151333200Y-137135560D01*
X151333200Y-139096440D02*
X151333200Y-141998700D01*
X151333200Y-141998700D02*
X157423371Y-141998700D01*
X157423371Y-126733300D02*
X151333200Y-126733300D01*
X151333200Y-126733300D02*
X151333200Y-129635560D01*
X161594800Y-140081559D02*
X161594800Y-128650441D01*
X151333200Y-134096440D02*
X151333200Y-134635560D01*
%TO.C,U2*%
X129628400Y-94838600D02*
X130888400Y-94838600D01*
X136448400Y-98598600D02*
X136448400Y-94838600D01*
X129628400Y-100848600D02*
X129628400Y-94838600D01*
X136448400Y-94838600D02*
X135188400Y-94838600D01*
%TO.C,U1*%
X142158400Y-132415800D02*
X142538400Y-132415800D01*
X123918400Y-138835800D02*
X123918400Y-132415800D01*
X142158400Y-138835800D02*
X142158400Y-132415800D01*
X123918400Y-113870800D02*
X123918400Y-113090800D01*
X142158400Y-113870800D02*
X142158400Y-113090800D01*
X142158400Y-113090800D02*
X141158400Y-113090800D01*
X123918400Y-113090800D02*
X124918400Y-113090800D01*
X142158400Y-138835800D02*
X123918400Y-138835800D01*
%TO.C,R2*%
X144105100Y-106315742D02*
X144105100Y-106790258D01*
X145150100Y-106315742D02*
X145150100Y-106790258D01*
%TO.C,LED2-GPIO16*%
X114789200Y-77271560D02*
X114789200Y-76732440D01*
X114789200Y-71869300D02*
X108699029Y-71869300D01*
X104527600Y-73786441D02*
X104527600Y-85217559D01*
X114789200Y-74771560D02*
X114789200Y-71869300D01*
X108699029Y-87134700D02*
X114789200Y-87134700D01*
X114789200Y-79771560D02*
X114789200Y-79232440D01*
X114789200Y-82271560D02*
X114789200Y-81732440D01*
X114789200Y-87134700D02*
X114789200Y-84232440D01*
%TO.C,C1*%
X144117600Y-110630580D02*
X144117600Y-110349420D01*
X145137600Y-110630580D02*
X145137600Y-110349420D01*
D11*
%TO.C,GND*%
X132749600Y-51361550D02*
X132899600Y-59961550D01*
X124849600Y-51361550D02*
X132749600Y-51361550D01*
X124699600Y-62561550D02*
X124599600Y-75961550D01*
X132899600Y-62561550D02*
X132999600Y-75961550D01*
X132999600Y-75961550D02*
X124599600Y-75961550D01*
X124849600Y-51361550D02*
X124699600Y-59961550D01*
X131599600Y-61261550D02*
G75*
G03*
X132899600Y-62561550I1299999J-1D01*
G01*
X125999600Y-61261550D02*
G75*
G03*
X124699600Y-59961550I-1300000J0D01*
G01*
X124699600Y-62561550D02*
G75*
G03*
X125999600Y-61261550I0J1300000D01*
G01*
X132899600Y-59961550D02*
G75*
G03*
X131599600Y-61261550I-1J-1299999D01*
G01*
D12*
%TO.C,LED9-GPIO26*%
X151333200Y-79232440D02*
X151333200Y-79771560D01*
X161594800Y-85217559D02*
X161594800Y-73786441D01*
X157423371Y-71869300D02*
X151333200Y-71869300D01*
X151333200Y-71869300D02*
X151333200Y-74771560D01*
X151333200Y-81732440D02*
X151333200Y-82271560D01*
X151333200Y-84232440D02*
X151333200Y-87134700D01*
X151333200Y-87134700D02*
X157423371Y-87134700D01*
X151333200Y-76732440D02*
X151333200Y-77271560D01*
%TO.C,J1*%
X133352600Y-51325600D02*
X133352600Y-65925600D01*
X124152600Y-51325600D02*
X133352600Y-51325600D01*
X133352600Y-65925600D02*
X130552600Y-65925600D01*
X126952600Y-65925600D02*
X124152600Y-65925600D01*
X133592600Y-66165600D02*
X131852600Y-66165600D01*
X133592600Y-64425600D02*
X133592600Y-66165600D01*
X124152600Y-60325600D02*
X124152600Y-51325600D01*
X124152600Y-65925600D02*
X124152600Y-63925600D01*
%TO.C,LED5-GPIO23*%
X108699029Y-141998700D02*
X114789200Y-141998700D01*
X114789200Y-132135560D02*
X114789200Y-131596440D01*
X114789200Y-137135560D02*
X114789200Y-136596440D01*
X114789200Y-129635560D02*
X114789200Y-126733300D01*
X114789200Y-126733300D02*
X108699029Y-126733300D01*
X114789200Y-134635560D02*
X114789200Y-134096440D01*
X104527600Y-128650441D02*
X104527600Y-140081559D01*
X114789200Y-141998700D02*
X114789200Y-139096440D01*
%TO.C,LED7-GPIO33*%
X151333200Y-115808440D02*
X151333200Y-116347560D01*
X161594800Y-121793559D02*
X161594800Y-110362441D01*
X151333200Y-113308440D02*
X151333200Y-113847560D01*
X157423371Y-108445300D02*
X151333200Y-108445300D01*
X151333200Y-108445300D02*
X151333200Y-111347560D01*
X151333200Y-123710700D02*
X157423371Y-123710700D01*
X151333200Y-118308440D02*
X151333200Y-118847560D01*
X151333200Y-120808440D02*
X151333200Y-123710700D01*
%TO.C,LED8-GPIO25*%
X157423371Y-90157300D02*
X151333200Y-90157300D01*
X151333200Y-97520440D02*
X151333200Y-98059560D01*
X161594800Y-103505559D02*
X161594800Y-92074441D01*
X151333200Y-100020440D02*
X151333200Y-100559560D01*
X151333200Y-90157300D02*
X151333200Y-93059560D01*
X151333200Y-102520440D02*
X151333200Y-105422700D01*
X151333200Y-95020440D02*
X151333200Y-95559560D01*
X151333200Y-105422700D02*
X157423371Y-105422700D01*
%TO.C,LED4-GPIO22*%
X114789200Y-108445300D02*
X108699029Y-108445300D01*
X114789200Y-118847560D02*
X114789200Y-118308440D01*
X114789200Y-111347560D02*
X114789200Y-108445300D01*
X114789200Y-116347560D02*
X114789200Y-115808440D01*
X114789200Y-113847560D02*
X114789200Y-113308440D01*
X104527600Y-110362441D02*
X104527600Y-121793559D01*
X114789200Y-123710700D02*
X114789200Y-120808440D01*
X108699029Y-123710700D02*
X114789200Y-123710700D01*
%TD*%
D13*
%TO.C,12V*%
X137305600Y-89961550D03*
%TD*%
D14*
%TO.C,GND*%
X128799600Y-89961550D03*
%TD*%
M02*
