M48
; DRILL file {KiCad (6.0.6)} date Fri Dec  2 03:24:48 2022
; FORMAT={-:-/ absolute / metric / decimal}
; #@! TF.CreationDate,2022-12-02T03:24:48-05:00
; #@! TF.GenerationSoftware,Kicad,Pcbnew,(6.0.6)
; #@! TF.FileFunction,MixedPlating,1,2
FMAT,2
METRIC
; #@! TA.AperFunction,Plated,PTH,ViaDrill
T1C0.400
; #@! TA.AperFunction,Plated,PTH,ComponentDrill
T2C0.950
; #@! TA.AperFunction,Plated,PTH,ComponentDrill
T3C1.000
; #@! TA.AperFunction,Plated,PTH,ComponentDrill
T4C1.800
; #@! TA.AperFunction,Plated,PTH,ComponentDrill
T5C2.200
%
G90
G05
T1
X139.522Y-116.272
X139.522Y-119.101
X142.453Y-116.272
X143.688Y-128.956
T2
X113.741Y-66.751
X113.741Y-69.251
X113.741Y-71.751
X113.741Y-74.251
X113.741Y-82.639
X113.741Y-85.139
X113.741Y-87.639
X113.741Y-90.139
X113.741Y-98.527
X113.741Y-101.027
X113.741Y-103.527
X113.741Y-106.027
X113.741Y-114.414
X113.741Y-116.914
X113.741Y-119.414
X113.741Y-121.914
X113.741Y-130.302
X113.741Y-132.802
X113.741Y-135.302
X113.741Y-137.802
X183.138Y-67.065
X183.138Y-69.565
X183.138Y-72.065
X183.138Y-74.565
X183.138Y-82.953
X183.138Y-85.453
X183.138Y-87.953
X183.138Y-90.453
X183.138Y-98.841
X183.138Y-101.341
X183.138Y-103.841
X183.138Y-106.341
X183.138Y-114.728
X183.138Y-117.228
X183.138Y-119.728
X183.138Y-122.228
X183.138Y-130.616
X183.138Y-133.116
X183.138Y-135.616
X183.138Y-138.116
T3
X131.064Y-77.826
X131.064Y-95.606
X144.78Y-103.353
X144.78Y-105.893
X144.78Y-108.433
X147.32Y-103.353
X147.32Y-105.893
X147.32Y-108.433
X171.704Y-77.826
X171.704Y-95.606
T4
X162.509Y-105.26
X171.015Y-105.26
T5
X120.038Y-66.805
X120.038Y-138.767
X166.776Y-133.946
X176.837Y-66.805
X176.837Y-138.767
T0
M30
